<?xml version="1.0" encoding="utf-8"?>
<!-- Generator: Adobe Illustrator 23.0.1, SVG Export Plug-In . SVG Version: 6.00 Build 0)  -->
<svg version="1.1" id="Layer_1" xmlns="http://www.w3.org/2000/svg" xmlns:xlink="http://www.w3.org/1999/xlink" x="0px" y="0px"
	 viewBox="0 0 200 200" style="enable-background:new 0 0 200 200;" xml:space="preserve">
<style type="text/css">
	.st0{fill:#2A3C24;}
	.st1{fill:#FFFFFF;}
</style>
<g>
	<path class="st0" d="M175,190H25c-8.3,0-15-6.7-15-15V25c0-8.3,6.7-15,15-15h150c8.3,0,15,6.7,15,15v150
		C190,183.3,183.3,190,175,190z"/>
</g>
<g>
	<path class="st1" d="M39.7,122.7H17.5v-0.3L19,122c2.8-0.7,3.8-3.5,15.7-42.9c-0.6-0.7-1.5-1.2-2.8-1.5l-3.1-0.8l0.1-0.3h22.9
		c1.2,9.9,2.5,15.2,5.5,25.6c5.4-8.5,10.7-17,15.6-25.6h18.6l-0.1,0.3l-2.2,0.4c-2.2,0.4-2.8,2.9-6.6,19
		c-5.7,23.7-5.6,25.2-3.7,25.8l1.2,0.4l-0.1,0.3H52.8l0.1-0.3l5.5-0.9c3.9-0.6,4.9-2.4,8.6-19.7c3.5-15.9,4.5-20.4,5-22.4
		c-8.7,13.7-17.6,28.1-26.3,43.2h-0.2c-2.2-12.8-5.6-29-8.9-39.7c-0.5-1.5-0.9-2.8-1.6-3.6c-5.3,36.4-3.9,40.4,1.5,42l3.2,1
		L39.7,122.7z"/>
	<path class="st1" d="M84.3,122.7v-0.3l2-0.5c2.3-0.6,3.1-2.8,7.3-20c5.9-23.3,5.8-24.4,3.9-24.7l-1.8-0.4l0.2-0.3h22.4
		c10.7,0,15.4,2.5,15.4,8.2c0,5.9-7.9,10.6-17,12.9v0.3c11.3,0.5,13.3,4.6,13.3,9.2c0,9.1-8.3,15.7-21.9,15.7H84.3z M112.7,98.2
		c-1.1,0-2.1,0.1-3.6,0.2l-0.5,2.2c-4.4,17.5-4.9,19.8-4.7,21.6c5.3-0.6,12.3-7.9,12.3-17C116.2,99.7,115.4,98.2,112.7,98.2z
		 M115.1,77c-1.2,2.2-1.8,4.4-5.8,20.8c1.7,0,3.4-0.1,5-0.1c0.2,0,0.5,0,0.8,0c2.7-3.5,5.1-8.6,5.1-13.6
		C120.1,79.4,119.3,77.7,115.1,77z"/>
	<path class="st1" d="M165.2,122.7h-30.5v-0.3l4.3-0.8c3.9-0.7,4.3-2.5,8.6-19.7c4.8-19,5.5-22.9,5.4-24.7
		c-2.7,1.4-5.1,4.7-10.2,11.3l-7.6,9.9h-0.3c2.6-7.7,4.7-15.8,6.3-22h40.2c-1.6,6.2-3.5,14.3-4.8,22h-0.3l-2.7-9.9
		c-1.7-6.6-2.9-9.6-4.5-11.3c-1.2,2.2-1.8,4.9-5.4,19c-6.1,24.2-5.4,24.9-2.2,25.5l3.7,0.7V122.7z"/>
</g>
</svg>
