<?xml version="1.0" encoding="utf-8"?>
<!-- Generator: Adobe Illustrator 23.0.1, SVG Export Plug-In . SVG Version: 6.00 Build 0)  -->
<svg version="1.1" id="Layer_1" xmlns="http://www.w3.org/2000/svg" xmlns:xlink="http://www.w3.org/1999/xlink" x="0px" y="0px"
	 viewBox="0 0 1920 1080" style="enable-background:new 0 0 1920 1080;" xml:space="preserve">
<style type="text/css">
	.st0{font-family:'SwearBannerDemo-Thin';}
	.st1{font-size:50px;}
	.st2{fill:#FFFFFF;}
	.st3{font-size:200px;}
	.st4{font-size:100px;}
</style>
<g>
	<text transform="matrix(1 0 0 1 1039.1426 154.7856)" class="st0 st1">fall</text>
	<text transform="matrix(1 0 0 1 1039.1426 154.7856)" class="st0 st1">fall</text>
	<rect x="549" y="186" class="st2" width="894" height="822"/>
	<path d="M1441,188v818H551V188H1441 M1445,184H547v826h898V184z"/>
	<rect x="1476" y="186" class="st2" width="146" height="146"/>
	<path d="M1620,188v142h-142V188H1620 M1624,184h-150v150h150V184z"/>
	<rect x="1660" y="186" class="st2" width="146" height="146"/>
	<path d="M1804,188v142h-142V188H1804 M1808,184h-150v150h150V184z"/>
	<rect x="1476" y="744" class="st2" width="146" height="146"/>
	<path d="M1620,746v142h-142V746H1620 M1624,742h-150v150h150V742z"/>
	<rect x="1476" y="558" class="st2" width="146" height="146"/>
	<path d="M1620,560v142h-142V560H1620 M1624,556h-150v150h150V556z"/>
	<rect x="1476" y="372" class="st2" width="146" height="146"/>
	<path d="M1620,374v142h-142V374H1620 M1624,370h-150v150h150V370z"/>
	<rect x="1660" y="372" class="st2" width="146" height="146"/>
	<path d="M1804,374v142h-142V374H1804 M1808,370h-150v150h150V370z"/>
	<rect x="1660" y="558" class="st2" width="146" height="146"/>
	<path d="M1804,560v142h-142V560H1804 M1808,556h-150v150h150V556z"/>
	<rect x="1660" y="744" class="st2" width="146" height="146"/>
	<path d="M1804,746v142h-142V746H1804 M1808,742h-150v150h150V742z"/>
	<rect x="1237" y="111" class="st2" width="206" height="56"/>
	<path d="M1441,113v52h-202v-52H1441 M1445,109h-210v60h210V109z"/>
	<rect x="549" y="111" class="st2" width="206" height="56"/>
	<path d="M753,113v52H551v-52H753 M757,109H547v60h210V109z"/>
	<rect x="778" y="111" class="st2" width="206" height="56"/>
	<path d="M982,113v52H780v-52H982 M986,109H776v60h210V109z"/>
	<rect x="1008" y="111" class="st2" width="206" height="56"/>
	<path d="M1212,113v52h-202v-52H1212 M1216,109h-210v60h210V109z"/>
	<rect x="17" y="186" class="st2" width="512" height="704"/>
	<path d="M527,188v700H19V188H527 M531,184H15v708h516V184z"/>
	<text transform="matrix(1 0 0 1 776.2148 631.1431)" class="st0 st3">MAP</text>
	<text transform="matrix(1 0 0 1 125.3574 445.4287)" class="st0 st4">park </text>
	<text transform="matrix(1 0 0 1 125.3574 565.4287)" class="st0 st4">info</text>
	<text transform="matrix(1 0 0 1 1503.3574 273.4287)" class="st0 st1">food</text>
	<text transform="matrix(1 0 0 1 1688.3574 458.4287)" class="st0 st1">food</text>
	<text transform="matrix(1 0 0 1 1688.3574 646.4287)" class="st0 st1">food</text>
	<text transform="matrix(1 0 0 1 1688.3574 832.4287)" class="st0 st1">food</text>
	<text transform="matrix(1 0 0 1 1500.3574 832.4287)" class="st0 st1">food</text>
	<text transform="matrix(1 0 0 1 1498.3574 646.4287)" class="st0 st1">food</text>
	<text transform="matrix(1 0 0 1 1496.3574 458.4287)" class="st0 st1">food</text>
	<text transform="matrix(1 0 0 1 1688.3574 273.4287)" class="st0 st1">food</text>
	<text transform="matrix(1 0 0 1 579.7148 155)" class="st0 st1">Spring</text>
	<text transform="matrix(1 0 0 1 789.7148 155)" class="st0 st1">Summer</text>
	<text transform="matrix(1 0 0 1 1039.1426 154.7856)" class="st0 st1">fall</text>
	<text transform="matrix(1 0 0 1 1264.1426 154.7856)" class="st0 st1">Winter</text>
</g>
</svg>
