<?xml version="1.0" encoding="utf-8"?>
<!-- Generator: Adobe Illustrator 23.0.1, SVG Export Plug-In . SVG Version: 6.00 Build 0)  -->
<svg version="1.1" id="Layer_1" xmlns="http://www.w3.org/2000/svg" xmlns:xlink="http://www.w3.org/1999/xlink" x="0px" y="0px"
	 viewBox="0 0 500 500" style="enable-background:new 0 0 500 500;" xml:space="preserve">
<style type="text/css">
	.st0{fill:#CE7719;}
	.st1{fill:#EAD16A;}
	.st2{opacity:0.5;fill:#8B5C1B;}
	.st3{fill:#FFB524;}
	.st4{fill:#F2E0AF;}
	.st5{opacity:0.6;}
	.st6{fill:#5E3C13;}
	.st7{opacity:0.5;fill:#5E3C13;}
</style>
<g id="Cantharellus_cibarius_1_">
	<path class="st0" d="M260.42,238.59c-9.74,6.96-9.98,11.69-24.61,27.3c-19.54,20.85-23.98,17.64-31.43,29.9
		c-2.39,3.93-4.56,12.33-8.97,29.38c-6.11,23.63-7.69,37.53-8.31,44.07c-0.38,4.02-0.76,8.04-0.88,13.59
		c-0.21,9.33,0.22,26.8,5.97,48.37c5.86,21.97,10.82,24.45,7.8,30.4c-7.7,15.14-43.8,9.06-47.03,8.48
		c-8.22-1.46-10.12-3.29-10.89-4.14c-7.51-8.26,0.74-24.06,0.41-42.63c-0.11-6.28-1.21-12.66-12.82-35.73
		c-11.38-22.61-18.17-36.09-30.71-52.66c-18.72-24.73-26.61-24.73-42.37-44.37c-5.98-7.45-8.4-11.92-15.44-14.48
		c-4.89-1.78-9.64-1.78-10.07-5.53c-0.38-3.28,2.62-8.7,6.33-10.93c6.32-3.81,10.15,4.42,23.95,8.52c5.73,1.7,21.46,6.38,33.98-2.47
		c10.71-7.57,10-18.64,17.82-21.72c7.41-2.92,10.07,6.13,27.02,12.97c8.1,3.27,16.92,6.68,29.15,4.1
		c10.23-2.15,25.34-9.03,28.88-18.58c2.65-7.14-2.8-11.53,0.41-14.8c3.37-3.43,12.89-2.14,19.29,0.95
		c9.23,4.45,8.36,10.82,15.87,11.28c5.75,0.35,12.53-2.98,15.62-4.5c5.35-2.63,9.12-5.75,14.27-5.59c0.85,0.03,3.36,0.11,3.74,1.38
		C268.02,233.29,262.16,237.34,260.42,238.59z"/>
	<g>
		<path class="st1" d="M240.39,248.64c-1.3,1.66-2.53,3.37-3.75,5.07c-0.63,0.71-1.28,1.41-1.91,2.11c2.55-3.68,5-7.39,7.62-11.02
			C241.69,246.07,241.09,247.37,240.39,248.64z"/>
		<path class="st1" d="M225.02,234.82c-3.32,2.82-5.56,6.48-7.43,10.08c-1.78,3.44-3.23,6.96-4.82,10.46
			c-0.92,2.01-1.96,3.99-3.01,5.97c-0.55,0.79-1.08,1.58-1.58,2.39c-1.76,2.81-3.17,5.72-4.23,8.73c-0.35,0.99-0.67,1.99-0.96,2.99
			c-0.85,1.82-1.72,3.64-2.63,5.44c-0.71,1.41-1.42,2.82-2.1,4.25c3.27-9.56,6.34-19.07,9.82-28.42c0.96-2.58,1.94-5.17,3.04-7.72
			c0.82-1.92,1.86-3.8,2.89-5.67c1.87-3.39,4.05-6.87,5.23-10.4c0.61-0.83,1.17-1.69,1.77-2.54c1.96,1.37,3.3,2.8,4.45,4.14
			C225.31,234.6,225.16,234.69,225.02,234.82z"/>
		<path class="st1" d="M218.53,249.01c1.99-4.5,4.37-9.04,8.26-12.34c0.11-0.09,0.19-0.18,0.27-0.27c0.19,0.22,0.39,0.43,0.59,0.64
			C224.34,240.86,221.41,244.92,218.53,249.01z"/>
		<path class="st1" d="M185.83,355.03c1.52-11.59,2.11-22.95,3.45-34.2c0.65-5.45,1.46-10.9,2.81-16.29
			c0.79-3.18,1.75-6.33,2.77-9.46c0.5,0.95,2.54,0.65,2.93-0.87c0.32-1.25,0.72-2.48,1.18-3.7c-0.36,1.36-0.72,2.72-1.07,4.08
			c-2.29,3.94-4.24,8.08-4.25,12.35c0,0.78,0.52,1.11,1.13,1.09c-0.71,3.56-1.31,7.14-1.74,10.73c-0.25,2.04-0.37,4.07-0.67,6.12
			c-0.3,2.01-0.71,4.02-1.17,6.04c-0.91,4.01-1.99,8.03-2.67,12.09c-0.18,1.09,1.48,1.15,1.66,0.06c0.75-4.47,1.98-8.9,2.93-13.31
			c0.98-4.53,1.26-8.97,1.89-13.44c0.77-5.48,1.89-10.92,3.18-16.33c1.21-2.79,2.97-5.51,4.52-8.05c2.61-4.28,4.59-8.63,6.68-13.05
			c2.43-5.13,5.4-9.84,8.58-14.66c2.99-4.54,6.02-9.1,9.83-13.16c1.61-1.71,3.12-3.48,4.7-5.22c1.54-1.7,3.24-3.46,5.4-4.44
			c1.04-0.48,1.18-1.39,0.78-1.99c4.31-0.92,8.47-2.96,10.7-4.06c1.68-0.83,3.2-1.7,4.66-2.51c-0.68,1.5-1.83,2.9-2.95,4.22
			c-0.77,0.91-1.57,1.81-2.37,2.7c0.42-0.64,0.86-1.27,1.38-1.87c0.73-0.84-0.55-1.53-1.29-0.74c-0.23-0.26-0.72-0.34-1.15-0.1
			c-0.31-0.25-0.92-0.27-1.33,0.22c-3.4,3.99-6.37,8.21-9.27,12.46c-2.53,3.71-5.03,7.46-7.78,11.08c-2.63,3.46-5.54,6.69-8.65,9.81
			c-5.61,5.63-12.14,11.6-15.05,18.79c-0.41,1.01,1.09,1.41,1.5,0.41c1.62-4.01,4.51-7.6,7.53-10.93c1.77-1.95,3.63-3.82,5.49-5.69
			c0.18,0.26,0.55,0.39,0.99,0.17c2.8-1.39,5.22-3.89,7.37-6.07c2.39-2.42,4.65-4.95,6.86-7.51c2.5-2.91,4.67-5.95,6.8-9.06
			c0.99-1.45,2-2.88,3.04-4.29c0.58-0.69,1.14-1.39,1.63-2.12c0.83-1.04,1.68-2.07,2.59-3.09c2.24-2.51,4.93-5.16,6.25-8.09
			c0.23-0.5-0.08-0.83-0.5-0.9c2.78-1.48,5.4-2.6,8.54-2.5c0.01,0,0.02,0,0.03,0c-4.57,2.76-8.52,6.34-12.09,10.11
			c-7.21,7.62-12.87,16.18-19.44,24.23c-3.62,4.44-7.1,9.33-11.62,13.07c-4.16,3.44-8.71,6.63-11.87,10.98
			c-0.46,0.63,0.01,1.2,0.56,1.19c-1.59,1.65-3.13,3.64-4.83,6.43c-2.39,3.93-4.56,12.33-8.97,29.38
			c-6.11,23.63-7.69,37.53-8.31,44.07c-0.38,4.02-0.76,8.04-0.88,13.59c0,0.16-0.01,0.32-0.01,0.48c-1.16,0.4-2.32,0.78-3.48,1.13
			c-0.35,0.11-0.7,0.21-1.06,0.31C182.9,374.72,184.54,364.82,185.83,355.03z"/>
		<path class="st1" d="M204.06,279.66c2.25-4.52,4.15-9.1,6.31-13.61c1.72-3.57,3.75-7.02,5.37-10.59c0.6-0.83,1.2-1.67,1.78-2.5
			c3.54-5.07,7.05-10.21,11.14-14.97c1.19,0.97,2.6,1.65,4.68,1.84c-1.61,2.08-3.18,4.2-4.71,6.33c-1.34,1.48-2.67,2.97-4,4.46
			c-4.02,4.49-7.16,9.46-10.42,14.37c-0.92,1.39-1.8,2.78-2.65,4.18c-2.65,3.36-4.96,6.91-5.82,10.86c-0.02,0.05-0.05,0.1-0.07,0.15
			c-1.09,2.33-2.11,4.7-3.36,6.99c-0.49,0.9-1.02,1.79-1.55,2.67c0.68-2.57,1.36-5.12,2.04-7.68
			C203.22,281.32,203.65,280.49,204.06,279.66z"/>
		<path class="st1" d="M216.39,282.42c2.25-1.87,4.72-3.59,6.82-5.64c4.1-4,7.58-8.58,11.1-12.97c3.15-3.94,6.12-7.99,9.19-11.97
			c6.02-7.8,12.75-16.26,21.88-21.39c0.21-0.12,0.35-0.27,0.43-0.43c0.74,0.19,1.41,0.52,1.59,1.13c0.63,2.15-5.23,6.2-6.97,7.44
			c-9.74,6.96-9.98,11.69-24.61,27.3c-13.64,14.56-19.93,17.39-25.01,21.94C212.44,285.84,214.38,284.09,216.39,282.42z"/>
		<path class="st1" d="M227.72,265.11c0.84-1,1.66-2.02,2.46-3.05c-0.01,0.11,0.02,0.21,0.08,0.3
			C229.46,263.32,228.62,264.25,227.72,265.11z"/>
		<path class="st1" d="M222.51,270.79c0.24-0.24,0.48-0.48,0.72-0.73c1.03-1.06,2.03-2.14,3-3.23c0.01,0.17,0.08,0.33,0.2,0.44
			C225.22,268.47,223.93,269.75,222.51,270.79z"/>
		<path class="st1" d="M113.5,243.86c-0.03-0.01-0.06-0.02-0.09-0.03c0.24-0.09,0.47-0.16,0.7-0.22c0.43,0.38,0.87,0.75,1.31,1.12
			C114.79,244.42,114.15,244.13,113.5,243.86z"/>
		<path class="st1" d="M112.71,245.27c-0.39-0.18-0.79-0.35-1.18-0.52c0.3-0.19,0.61-0.36,0.93-0.51c-0.21,0.24-0.28,0.54-0.05,0.76
			C112.51,245.09,112.61,245.18,112.71,245.27z"/>
		<path class="st1" d="M165.38,265.96c-0.15-0.23-0.32-0.46-0.5-0.67c-0.04-0.05-0.09-0.1-0.15-0.13c-0.04-0.34-0.08-0.68-0.13-1.02
			c0-0.01,0-0.02,0-0.03c-0.05-0.8-0.1-1.59-0.18-2.38c0.26-0.02,0.52-0.05,0.78-0.08c0.02,1.31,0.09,2.61,0.15,3.9
			C165.37,265.7,165.38,265.83,165.38,265.96z"/>
		<path class="st1" d="M181.29,265.12c-0.06,1.21-0.16,2.43-0.29,3.66c0.03-1.08,0.08-2.17,0.16-3.26c0.03-0.15,0.06-0.31,0.09-0.46
			C181.26,265.08,181.27,265.1,181.29,265.12z"/>
		<path class="st1" d="M177.26,285.13c-0.12,0.24-0.24,0.48-0.35,0.73c0.03-0.33,0.06-0.65,0.1-0.98
			C177.06,284.99,177.15,285.07,177.26,285.13z"/>
		<path class="st1" d="M187.47,256.53c0.03,0.64,0.03,1.28,0.01,1.93C187.47,257.82,187.47,257.18,187.47,256.53z"/>
		<path class="st1" d="M176.59,290.92c0.58-1.07,1.09-2.15,1.56-3.24c0.1,0.05,0.2,0.07,0.32,0.07c-0.67,1.29-1.36,2.57-2.06,3.85
			c0.02-0.16,0.03-0.32,0.04-0.48C176.5,291.06,176.55,291,176.59,290.92z"/>
		<path class="st1" d="M179.48,259.56c0.13,0.82,0.3,1.65,0.53,2.45c-0.17,1.13-0.29,2.25-0.37,3.37c0.08-2.57-0.12-5.07-0.87-7.28
			c0.17-0.07,0.33-0.13,0.5-0.2C179.32,258.46,179.39,259.01,179.48,259.56z"/>
		<path class="st1" d="M31.59,267.05c0.09-0.26,0.19-0.52,0.31-0.78c0.49,0.4,1.01,0.77,1.55,1.12
			C32.85,267.24,32.23,267.13,31.59,267.05z"/>
		<path class="st1" d="M92.14,275.83c0.41,0.49,0.82,0.99,1.22,1.49c-0.01,0.02-0.01,0.03-0.02,0.05
			C92.93,276.86,92.53,276.35,92.14,275.83z"/>
		<path class="st1" d="M86.97,271.99c-0.6-0.63-1.19-1.27-1.78-1.91c0.13-0.03,0.26-0.06,0.39-0.09
			C86.03,270.66,86.49,271.33,86.97,271.99z"/>
		<path class="st1" d="M31.08,269.14c2.46,0.61,4.74,1.59,6.87,2.8c2.86,1.63,5.47,3.64,8.06,5.71c2.65,2.12,5.34,4.25,8.03,6.42
			c1.96,1.57,3.95,3.14,5.9,4.78c-0.07,0.35,0.02,0.69,0.33,0.92c3.56,2.56,6.22,6.17,8.94,9.74c2.82,3.71,6.48,6.6,9.68,10.06
			c0.99,1.07,3.28-0.86,2.27-1.93c-3.3-3.55-7.05-6.53-9.95-10.34c-2.75-3.61-5.51-7.23-9.12-9.81c-0.13-0.09-0.27-0.14-0.41-0.16
			c-0.01-0.02-0.03-0.03-0.04-0.05c-0.31-0.37-0.62-0.74-0.93-1.11c0.06-0.17,0.07-0.35,0.01-0.5c-0.05-0.14-0.37-0.27-0.38-0.38
			c-0.04-0.41-0.4-0.52-0.74-0.43c-1.78-2.07-3.58-4.09-5.47-5.99c-2.09-2.1-4.15-4.19-6.31-6.14c-2.3-2.07-4.7-4.02-7.39-5.51
			c-2.17-1.2-4.63-2.24-7.47-2.06c-0.12-0.09-0.24-0.19-0.36-0.29c1.17-2.11,2.89-4.11,4.8-5.26c0.83-0.5,1.63-0.8,2.4-0.92
			c0.23,0.12,0.47,0.24,0.7,0.35c1.01,0.51,2.03,1.04,3.04,1.58c4.07,5.46,8.86,10.43,13.61,15.55c-0.21,0.3-0.29,0.69-0.06,0.93
			c1.82,1.85,3.64,3.72,5.46,5.62c-0.01,0.21,0.05,0.42,0.2,0.61c2.54,3.14,5.19,6.22,7.87,9.33c4.69,5.45,9.32,11.11,13.79,17.1
			c3.32,4.45,6.64,9.02,10.19,13.46c-0.28,0.33-0.4,0.81-0.07,1.1c1.39,1.2,2.74,2.44,4.07,3.72c0.01,0.01,0.01,0.01,0.02,0.02
			c0.05,0.06,0.1,0.1,0.16,0.15c2.39,2.32,4.69,4.78,6.9,7.37c4.5,5.28,8.62,11.08,12.35,17.31c0.64,1.8,1.29,3.6,2.02,5.37
			c1.65,3.99,3.75,7.73,5.93,11.45c1.73,2.96,3.54,5.94,5.2,9.04c1.27,2.86,2.34,5.89,2.69,9.17c-1.46-0.2-2.91-0.42-4.35-0.67
			c-11.28-22.41-18.06-35.84-30.54-52.33c-18.72-24.73-26.61-24.73-42.37-44.37c-5.99-7.45-8.4-11.92-15.44-14.48
			c-4.89-1.78-9.64-1.78-10.07-5.53C31.01,270.1,31.02,269.63,31.08,269.14z"/>
		<path class="st1" d="M193.11,291.7c0.22-1.58,0.4-3.15,0.56-4.72c3.15-15.17,4.98-29.99,5.15-44.29c0-0.37-0.24-0.52-0.55-0.51
			c2.44-7-2.85-11.33,0.32-14.56c0.65-0.67,1.54-1.15,2.58-1.48c-0.12,1.26-0.2,2.52-0.12,3.73c-0.19,1.45-0.42,2.91-0.65,4.37
			c-0.05,0.34,0.11,0.55,0.35,0.63c-0.14,0.76-0.28,1.51-0.43,2.27c-0.09,0.48,0.2,0.69,0.56,0.68c-0.16,0.78-0.28,1.56-0.33,2.34
			c-0.06,0.94,1.53,0.47,1.59-0.46c0.14-2.28,0.95-4.59,1.61-6.88c0.38-1.33,0.68-2.66,0.81-3.96c0.16-1.12,0.21-2.22,0.12-3.28
			c1.08-0.04,2.23,0.02,3.4,0.15c-0.01,0.1,0,0.2,0.04,0.3c0.63,1.6,0.44,3.55,0.11,5.41c-0.37,2.11-0.98,4.24-1.61,6.37
			c-0.53,1.79-1.1,3.6-1.49,5.41c-0.51,2.37-0.88,4.75-1.27,7.12c-0.8,4.89-1.54,9.81-2.57,14.78c-0.79,3.83-1.58,7.69-2.51,11.55
			c-0.79,3.25-1.61,7.01-3.73,10.02c-0.46,0.66,0.05,1.24,0.62,1.18c-0.53,1.55-1.07,3.11-1.59,4.67c-0.9,2.68-1.78,5.37-2.56,8.07
			C192.19,297.63,192.71,294.66,193.11,291.7z"/>
		<path class="st1" d="M114.92,344.92c-0.01-0.02-0.02-0.03-0.03-0.05c-1.53-2.22-3.11-4.38-4.74-6.47
			C112.23,340.08,113.72,342.39,114.92,344.92z"/>
		<path class="st1" d="M160.26,333.3c1.29-10.09,2.58-20.06,2.96-29.79c0.04-1-1.54-0.58-1.58,0.41
			c-0.22,5.51-0.74,11.11-1.39,16.75c-1,8.68-2.28,17.49-3.23,26.36c0.15-2.39,0.36-4.78,0.59-7.16c0.57-5.8,1.29-11.57,1.97-17.29
			c0.55-4.61,1.16-9.57-0.39-13.56c-0.48-3.84-1.32-7.53-2.32-11.11c-0.08-0.89-0.17-1.78-0.26-2.67c-1.3-12.46-3.39-24.78-8-35.24
			c2.21,0.67,4.52,1.21,6.97,1.55c0.5,7.09,2.1,13.9,3.48,20.85c0.33,1.64,3.2,0.89,2.87-0.77c-1.33-6.61-2.86-13.08-3.45-19.79
			c0.81,0.05,1.63,0.08,2.46,0.07c0.88,2.83,0.88,6.13,1.17,9.21c0.41,4.44,1.09,8.84,1.55,13.34c0.47,4.62,0.83,9.32,0.92,14.12
			c0.01,0.81,0.05,1.62,0.09,2.43c-0.24,6.28-0.47,12.61-1.2,19.07c-0.09,0.82,0.88,1.01,1.34,0.53c0.41,0.09,1-0.16,1.19-0.73
			c1.35-4.13,1-8.46,0.73-12.36c-0.17-2.48-0.33-4.94-0.46-7.41c0.16-4.05,0.33-8.08,0.64-12.1c0.33-0.22,0.59-0.61,0.51-1.02
			c-0.12-0.6-0.2-1.21-0.26-1.83c0.23-2.36,0.52-4.72,0.9-7.08c0.9-5.63,1.97-11.75,1.14-17.05c0.03-0.01,0.07-0.01,0.1-0.02
			c2.43-0.51,5.12-1.29,7.88-2.3c0.67,1.98,0.85,4.2,0.83,6.44c-0.05,5.69-1.39,11.61-2.32,17.49c-0.37,2.33-0.47,4.63-0.67,6.96
			c-0.16,1.8-0.17,3.73-0.62,5.56c-0.2,0.28-0.38,0.58-0.52,0.91c-0.21,0.47-0.02,0.8,0.29,0.91c-1.3,5-2.71,10.03-4.14,15.08
			c-2.6,6.73-5.47,13.38-6.63,20.4c-0.11,0.69,0.18,1.14,0.62,1.36c-1.31,5.07-2.53,10.18-3.57,15.33
			c-1.36,6.71-2.42,13.52-2.97,20.33c-0.04-0.47-0.08-0.94-0.11-1.41c0-1.2,0.01-2.41,0.04-3.62
			C157.66,354,158.95,343.57,160.26,333.3z"/>
		<path class="st1" d="M136.79,255.43c2.54,2.9,4.68,6.19,6.53,9.71c3.31,6.32,5.9,13.32,8.11,20.52c1.29,4.21,2.72,8.43,3.92,12.78
			c0.31,3.43,0.56,6.9,0.77,10.38c-0.13,0.3-0.14,0.64,0.02,0.99c2.14,4.62,0.78,10.86,0.15,16.32c-1.38,12.06-3,24.25-2.37,36.45
			c0.45,8.7,1.51,17.39,1.84,26.34c-1.23,0.05-2.46,0.1-3.69,0.11c-0.19-6.25-0.49-12.43-0.81-18.53c-0.57-10.82-1.22-21.44-1.39-32
			c-0.16-9.89,0.12-19.75,1.19-29.56c0.18-0.29,0.26-0.62,0.26-0.92c0-0.15-0.04-0.31-0.1-0.44c0.02-0.16,0.04-0.32,0.06-0.48
			c0.11-0.91-1.16-1-1.46-0.24c-0.12,0.01-0.24,0.02-0.38,0.05c-0.38,0.07-0.74,0.36-1,0.67c-0.01,0.01-0.02,0.02-0.02,0.04
			c-1.05-6.11-2.12-12.15-3.62-17.92c-0.44-1.69-0.92-3.36-1.45-5c-1.3-5.44-2.83-10.7-4.7-15.72c-0.2-0.95-0.51-1.86-0.85-2.73
			c-0.58-1.47-1.28-2.87-2.05-4.2c-1.83-3.87-3.94-7.52-6.45-10.79C131.38,252.61,133.83,254.04,136.79,255.43z"/>
		<path class="st1" d="M164.68,371.56c-0.27,5.52-1.48,11.23-1.48,16.81c-1.45,0.16-2.89,0.28-4.33,0.38
			c-0.02-0.56-0.04-1.12-0.07-1.67c0.14-0.17,0.23-0.39,0.21-0.66c-0.53-6.96-0.3-14,0.47-21.01c1.17-10.71,3.5-21.32,6.19-31.75
			c0.32-0.23,0.58-0.6,0.66-1.1c1.29-7.87,4.76-15.31,7.56-22.88c2.37-6.39,3.6-12.81,4.77-19.18c0.64-1.18,1.26-2.36,1.86-3.55
			c3.19-6.26,6-12.65,7.84-19.09c1.51-5.31,2.35-10.77,1.41-15.63c3.17-2.26,5.82-4.85,7.45-7.72c-0.08,3.96-0.27,7.97-0.6,12.03
			c-0.44,5.53-1.14,11.13-2.04,16.77c0.03-0.77,0.06-1.53,0.09-2.3c0.26-6.74,1.2-13.91-1.34-19.66c-0.36-0.8-1.85,0.01-1.5,0.81
			c1.41,3.2,1.67,6.86,1.58,10.62c-0.15,6.63-0.45,13.38-0.98,20.2c-0.1,1.28-0.21,2.56-0.35,3.84c-1.24,5.96-2.67,11.97-4.22,18.01
			c-0.08,0.29,0,0.5,0.15,0.63c-1.51,7.46-1.61,14.99-2.77,22.57c-0.16,1.06,0.65,1.58,1.47,1.51c-0.96,9.85-1.75,19.81-3.18,29.95
			c-1.2,8.49-2.57,17.07-3.62,25.74c-0.82,0.22-1.64,0.43-2.45,0.63c0.79-4.36,1.53-8.7,2.19-13.02
			c2.26-14.68,3.77-29.19,3.61-43.13c0.39,0.49,1.54,0.07,1.53-0.8c-0.02-4.78,0.18-9.56,0.56-14.33
			c1.32-16.63,4.6-33.08,7.77-49.15c0.19-0.99-1.38-0.95-1.57,0.03c-0.12,0.59-0.23,1.18-0.35,1.77c-0.44-0.1-1.03,0.14-1.09,0.72
			c-0.75,6.42-1.76,12.92-3.01,19.48c-2.02,10.63-4.64,21.39-7.63,32.25c0.65-4.54,1.18-9.05,1.48-13.52
			c0.07-1.02-1.56-0.6-1.62,0.41c-0.38,5.54-1.11,11.17-2.01,16.83c-0.49,3.08-1.03,6.17-1.58,9.27
			c-2.69,9.01-5.58,18.09-8.57,27.22c-0.35,1.08,1.28,1.15,1.62,0.09c1.56-4.78,3.09-9.53,4.58-14.28
			c-0.48,2.72-0.95,5.45-1.38,8.19c-0.82,5.21-1.58,10.49-1.96,15.76c-0.4,5.42-0.1,10.8,0.19,16.19c0.06,1.11,1.76,0.76,1.7-0.35
			c-0.34-6.09-0.62-12.13-0.02-18.25c1.13-11.59,3.39-23.04,5.41-34.33c1.34-4.5,2.63-8.99,3.86-13.46
			c0.36,4.63,0.5,9.34,0.45,14.12c-0.17,17.04-2.64,34.75-5.92,52.73c-3.61,0.82-7.21,1.44-10.81,1.89
			c-0.04-7.96,2.43-16.18,1.15-23.77c-0.03-0.21-0.13-0.36-0.26-0.46c0.4-3.19,0.87-6.36,1.38-9.53
			c3.07-18.85,7.92-37.27,11.66-55.32c0.21-1.02-1.37-1.02-1.58-0.01c-1.06,5.07-2.2,10.17-3.36,15.29
			c-4.18,18.4-8.64,37.23-10.52,56.47C163.29,371.68,164.19,371.95,164.68,371.56z"/>
		<path class="st1" d="M115.52,277.48c-4.46-6.25-9.39-11.94-14.74-17.01c1.01-1.28,1.87-2.59,2.62-3.88
			c0.45,0.22,0.89,0.44,1.33,0.66c-0.54,0.32-0.66,1.28,0.04,1.31c1.37,0.06,2.63,0.38,3.79,0.88c1.34,0.84,2.65,1.75,3.91,2.71
			c0.4,0.31,0.8,0.62,1.19,0.94c4.16,4.13,7.02,9.56,10.48,14.5c1.56,2.22,3.45,4.22,5.29,6.27c0.81,1.16,1.67,2.28,2.62,3.34
			c0.32,0.55,0.63,1.11,0.92,1.68c1.5,2.92,2.55,6.12,3.44,9.44c0.69,2.58,1.27,5.22,1.8,7.9c-0.02,0.1-0.02,0.2-0.02,0.31
			c0.17,3.97,1.17,7.67,1.71,11.57c0.07,0.5,0.34,0.8,0.69,0.94c0.07,0.38,0.15,0.77,0.22,1.15c0.19,0.93,1.67,0.15,1.49-0.78
			c-0.05-0.23-0.09-0.47-0.14-0.7c0.14-0.12,0.26-0.26,0.36-0.43c0.08,0.9,0.17,1.81,0.24,2.71c1.53,18.61,1.32,38.45,6.57,57.08
			c0.1,0.36,0.37,0.49,0.66,0.46c0.16,3.48,0.3,6.99,0.41,10.52c-0.8,0-1.6-0.01-2.39-0.03c-0.65-3.13-1.32-6.24-2-9.32
			c0.43-0.17,0.8-0.64,0.64-1.18c-0.89-2.96-1.87-5.85-2.89-8.7c-0.15-0.64-0.3-1.27-0.45-1.9c-2.87-12.01-6.03-23.61-9.64-34.7
			c-1.98-6.1-4.11-12.04-6.39-17.8c0.43-0.39,0.68-0.96,0.46-1.58c-0.76-2.11-1.23-4.35-1.72-6.57c-0.41-1.87-0.96-3.66-1.39-5.5
			c-0.13-0.54-0.25-1.09-0.38-1.63c0.67,1.19,1.34,2.39,1.98,3.62c0.22,0.78,0.44,1.57,0.63,2.37c0.1,0.39,0.43,0.46,0.75,0.34
			c2,4.01,3.81,8.19,5.4,12.56c-0.28,0.47-0.39,1.03-0.12,1.53c3.18,5.86,3.71,13.16,4.82,20.19c0.28,1.79,3.2,1.11,2.91-0.69
			c-1.14-7.11-1.79-14.29-4.7-20.35c-1.39-4.61-2.96-9.09-4.71-13.41C126.94,295.75,121.66,286.08,115.52,277.48z"/>
		<path class="st1" d="M54.9,271.52c-2.7-2.9-5.39-5.82-7.89-8.86c0.74,0.64,1.47,1.3,2.18,1.96c1.81,1.69,3.58,3.44,5.38,5.18
			c0.45,0.79,0.92,1.55,1.53,2.19c0.22,0.23,0.54,0.19,0.8,0.02c0.97,0.9,1.95,1.78,2.96,2.64c4.32,3.65,8.56,7.54,12.57,11.77
			c8.18,8.61,15.44,18.64,21.11,30.33c0.33,0.68,1.61-0.21,1.33-0.91c-2.57-6.34-5.76-12.17-9.3-17.56
			c-2.85-4.35-6.03-8.33-9.08-12.34c-2.83-3.71-5.61-7.41-8.52-10.91c-1.95-2.35-3.97-4.63-6.11-6.75c2.1,0.62,5.25,1.51,9,2.08
			c1.38,2.77,3.47,5.12,5.28,7.52c1.16,1.55,2.24,3.18,3.48,4.68c1.4,1.69,2.91,3.28,4.49,4.81c1.17,1.13,2.37,2.22,3.61,3.28
			c-0.15,0.06-0.29,0.15-0.42,0.26c-1.8-1.98-3.66-3.86-5.67-5.57c-0.58-0.5-1.58,0.75-1,1.25c2.12,1.82,4.08,3.83,5.96,5.94
			c0.05,0.19,0.15,0.37,0.32,0.52c0.18,0.16,0.37,0.32,0.55,0.48c1.06,1.22,2.11,2.47,3.14,3.74c2.78,3.38,5.54,6.83,8.51,10.15
			c3.09,3.45,6.01,7.13,8.76,11.03c1.08,1.54,2.14,3.12,3.16,4.72c0.34,0.82,0.67,1.65,0.98,2.49c0.18,0.49,0.56,0.69,0.99,0.68
			c0.43,0.72,0.87,1.45,1.29,2.18c-0.06,0.19-0.06,0.4,0.04,0.59c1.7,3.19,3.42,6.4,5.13,9.66c0.49,0.93,0.98,1.86,1.46,2.8
			c0.41,0.93,0.82,1.86,1.22,2.81c0.08,0.2,0.23,0.31,0.4,0.35c5.03,9.88,9.83,20.23,13.65,31.46c0.33,0.96,1.87,0.18,1.54-0.78
			c-1.33-3.9-2.78-7.71-4.32-11.42c-3.39-8.17-7.2-15.89-11.1-23.37c-1.94-4.31-4.03-8.46-6.29-12.43c-0.51-0.9-1.03-1.78-1.56-2.66
			c0.27-0.37,0.38-0.82,0.21-1.29c-0.37-1-0.76-1.98-1.17-2.94c1.39,2.26,2.77,4.55,4.12,6.87c4.99,8.54,9.74,17.54,13.78,27.23
			c4.05,9.69,7.41,20.08,9.34,31.28c0.18,1.05,1.74,0.25,1.56-0.78c-1.1-6.32-2.65-12.38-4.53-18.21
			c-3.36-10.42-7.71-20.06-12.46-29.12c-4.6-8.77-9.6-17-14.67-24.93c-0.25-0.39-0.74-0.25-1.06,0.07
			c-0.89-1.47-1.83-2.89-2.82-4.27c0.28-0.23,0.48-0.6,0.36-0.92c1.01-0.15,2.01-1.84,1.13-2.66c-0.19-0.17-0.37-0.34-0.56-0.51
			c-0.18-1.09-1.01-1.97-1.68-2.65c-1.18-1.21-2.53-2.22-3.91-3.18c-1.17-0.82-2.37-1.58-3.56-2.35c-0.68-0.43-1.32-0.9-1.95-1.37
			c-3.84-4.22-7.72-8.31-11.26-12.61c-1.6-1.95-3.13-3.94-4.55-6.01c-0.39-0.59-0.78-1.18-1.18-1.77c-0.95-1.47-1.84-2.98-2.65-4.54
			c2.08,0.03,4.23-0.09,6.41-0.44c0.46,0.52,0.93,1.03,1.41,1.54c5.51,5.94,11.59,11.53,17.35,17.68
			c5.21,5.57,10.15,11.65,14.09,18.68c-0.45,0.49-0.65,1.17-0.2,1.69c3.19,3.71,5.65,8.31,6.97,13.45c0.22,0.87,1.06,0.9,1.75,0.49
			c0.48,1.51,0.92,3.05,1.35,4.6c0.56,2,1.08,4.03,1.74,6c0.72,2.13,1.57,4.21,2.4,6.3c1.62,4.1,3.35,8.18,5.07,12.31
			c2.38,5.69,4.78,11.46,6.93,17.46c1.41,6.02,2.75,12.14,4.05,18.35c-2.83-0.1-5.62-0.29-8.36-0.57c-0.22-0.02-0.44-0.05-0.66-0.07
			c-1.08-3.33-2.5-6.46-4.06-9.46c-0.2-0.38-0.4-0.75-0.6-1.13c-0.9-2.01-1.9-3.95-2.85-5.84c-2.31-4.58-4.38-9.25-6.74-13.67
			c-1.16-2.17-2.37-4.29-3.61-6.37c-1.35-3.87-2.66-7.83-4.78-11.04c0.65-0.49,1.11-1.42,0.68-2.18
			c-3.02-5.42-6.18-10.62-9.37-15.71c-2.62-4.18-4.67-8.95-8.25-12.13c-1.14-1.01-3.02,1.4-1.9,2.4c3.5,3.13,5.49,8.02,8.05,12.14
			c2.29,3.68,4.56,7.43,6.78,11.28c-0.5-0.16-1.08,0.41-1.12,0.92c-2.76-3.47-5.68-6.73-8.75-9.77c0.48-0.5,0.7-1.19,0.23-1.72
			c-2.97-3.39-5.73-6.9-8.41-10.44c-4.58-6.04-8.97-12.07-13.61-17.71c-4.67-5.66-9.52-10.96-14-16.46
			c-0.37-0.45-0.98-0.37-1.49-0.05c-0.83-0.87-1.66-1.73-2.5-2.58c0.19-0.24,0.26-0.53,0.06-0.75
			C58.97,275.86,56.92,273.69,54.9,271.52z"/>
		<path class="st1" d="M96.73,302.17c2.24,2.33,4.39,4.78,6.38,7.41c-1.31-1.56-2.63-3.08-3.97-4.59
			C98.32,304.06,97.52,303.11,96.73,302.17z"/>
		<path class="st1" d="M128.77,332.05c-0.6-2.01-1.15-4.03-1.73-6.03c-0.6-2.07-1.24-4.11-1.98-6.07
			c-1.47-4.51-3.81-8.59-6.69-11.92c-0.11-0.13-0.24-0.22-0.38-0.28c-1.41-2.87-3.24-5.43-5.07-7.92c-2.08-2.82-4.08-5.64-5.74-8.73
			c-1.65-3.07-3.1-6.25-4.55-9.39c-2.51-5.42-5.07-10.76-8.61-15.19c0.44-0.27,0.88-0.56,1.31-0.87c0.73-0.52,1.41-1.05,2.04-1.59
			c1.66,0.42,2.73,1.85,3.67,3.14c1.1,1.5,2.14,3.04,3.33,4.48c0.67,0.81,1.33,1.64,1.98,2.47c-0.01,0.17,0.05,0.32,0.2,0.44
			c0.11,0.08,0.22,0.17,0.33,0.25c1.28,1.66,2.54,3.36,3.79,5.08c-0.14,0.36-0.14,0.75,0.1,1.08c3.29,4.61,4.6,10.59,7.04,15.94
			c0.83,1.82,1.59,3.68,2.32,5.57c-0.02,0.11-0.01,0.23,0.05,0.35c0.19,0.4,0.37,0.81,0.55,1.21c1.41,3.72,2.76,7.52,4.35,11.21
			c0.14,0.33,0.38,0.52,0.66,0.61c0.53,1.35,1.06,2.71,1.57,4.07c3.96,10.51,7.42,21.59,10.53,33.11c0.42,1.56,0.84,3.14,1.25,4.72
			c-2.73-6.61-5.55-13.04-8.08-19.54C130.19,336.2,129.4,334.16,128.77,332.05z"/>
		<path class="st1" d="M148.89,356.52c0.26,5.35,0.56,10.74,0.83,16.18c-0.9-3.79-1.6-7.63-2.15-11.49
			c-2.69-18.87-2.02-38.15-5.1-55.72c-0.1-0.56-0.71-0.63-1.13-0.39c-1.26-6.03-3.05-11.78-4.18-17.7c-0.1-0.52-0.43-0.72-0.83-0.71
			c0.01-0.09,0-0.17-0.04-0.26c-2.97-6.67-5.37-13.94-10.13-19.04c-4.33-5.84-9.57-10.78-15.39-14.69c-0.19-0.12-0.4-0.11-0.59-0.01
			c-0.27-0.18-0.55-0.37-0.83-0.55c-0.83-0.64-1.68-1.24-2.57-1.8c0.65-1.17,1.33-2.25,2.1-3.19c2.86,1.56,5.9,2.94,8.78,4.56
			c0.39,0.36,0.77,0.73,1.15,1.1c3.21,3.16,6.1,6.7,8.84,10.41c2.94,3.99,5.79,8.13,8.1,12.74c5.08,10.16,8.03,21.87,10.66,33.91
			c0.18,0.81,1.64,0.23,1.52-0.59c-0.01-0.06-0.02-0.12-0.03-0.18c0.07-0.02,0.14-0.05,0.21-0.09c0.08,0.23,0.23,0.43,0.4,0.55
			c0.12,0.08,0.26,0.13,0.4,0.16c0.05,0.03,0.1,0.05,0.16,0.07c0.13,0.04,0.25,0.06,0.37,0.06c-0.53,4.97-0.87,9.96-1.05,14.95
			C148.03,335.3,148.37,345.85,148.89,356.52z"/>
		<path class="st1" d="M181.44,318.41c1.09-4.02,2.14-8.03,3.11-12.02c-0.75,6.42-1.25,12.87-1.38,19.32
			c-0.08-2.35-0.21-4.68-0.4-6.98C182.73,318.02,181.9,318,181.44,318.41z"/>
		<path class="st1" d="M75.42,274.38c-0.84-1.08-1.68-2.18-2.41-3.34C73.89,272.07,74.67,273.21,75.42,274.38z"/>
		<path class="st1" d="M58.7,268.44c-0.3-0.25-0.61-0.49-0.91-0.74c-0.58-0.52-1.17-1.03-1.76-1.53c0.75,0.33,1.53,0.65,2.36,0.96
			c0.24,0.21,0.48,0.43,0.71,0.65c1.61,1.49,3.15,3.07,4.63,4.72c-1.36-1.47-2.85-2.81-4.39-4.08
			C59.15,268.26,58.91,268.3,58.7,268.44z"/>
		<path class="st1" d="M153.04,283.3c0.17-0.14,0.3-0.33,0.33-0.53c0.16,0.92,0.31,1.85,0.45,2.79
			C153.54,284.81,153.28,284.06,153.04,283.3z"/>
		<path class="st1" d="M152.68,279.05c-0.27-1.1-0.59-2.17-0.93-3.23c0.07-0.03,0.14-0.07,0.21-0.11"/>
		<path class="st1" d="M146.85,262.93c-0.32-0.93-0.62-1.87-0.89-2.83c0.61,1.48,1.14,3.02,1.63,4.58
			C147.35,264.09,147.1,263.51,146.85,262.93z"/>
		<path class="st1" d="M116.78,243.66c1.02,0.78,1.94,1.68,2.83,2.63c-0.8-0.74-1.64-1.44-2.48-2.14
			C117.02,243.99,116.9,243.82,116.78,243.66z"/>
	</g>
	<path class="st1" d="M129.48,387.24c10,1.46,22.93,2.31,33.72,1.13c7.39-0.81,15.49-2.99,23.02-5.55
		c0.1,9.85,1.14,30.24,5.97,48.37c5.86,21.97,10.82,24.45,7.8,30.4c-7.7,15.14-43.8,9.06-47.03,8.48
		c-8.22-1.46-10.12-3.29-10.89-4.14c-7.51-8.26,0.74-24.06,0.41-42.63C142.37,417.47,138.85,406.39,129.48,387.24z"/>
	<path class="st2" d="M37.39,259.6c6.32-3.81,10.15,4.42,23.95,8.52c3.75,1.11,11.73,3.48,20.34,2.53
		c-0.54,6.31,0.49,12.42,1.99,18.05c1.72,6.45,4.54,12.24,8.45,17.38c4.57,6,10.16,11.17,15.3,16.97c2.74,3.09,5.2,6.41,7.25,10.19
		c2.09,3.86,3.81,8.01,5.53,12.22c3.41,8.35,7.28,16.43,12.09,24.22c4.8,7.78,10.1,15.43,14.35,24.07c4.4,8.94,7.92,19.5,7.73,30.69
		c-0.09,5.46-1.14,10.89-2.69,16.33c-1.42,4.97-3.01,10.03-3.25,15.18c-0.77,17.07,22.2,12.13,32.46,8.97
		c2.94-0.91,5.74-2.03,7.97-4.52c2-2.24,3.09-5.22,3.48-8.14c0.96-7.15-1.08-14.26-3.05-20.58c-2.17-6.95-4.69-13.54-6.3-20.54
		c-2.63-11.43-3.9-23.22-2.55-35.06c1.34-11.76,4.67-23.4,7.46-34.79c1.35-5.5,2.61-10.93,3.17-16.37
		c0.56-5.33,0.75-10.59,1.48-15.85c1.26-9.03,4.58-17.6,9.83-25.76c4.77-7.41,10.51-14.3,15.45-21.58
		c4.99-7.35,8.96-15.3,11.44-23.28c1.14,0.78,2.52,1.29,4.46,1.41c5.75,0.35,12.53-2.98,15.62-4.51c5.35-2.63,9.12-5.75,14.27-5.59
		c0.85,0.03,3.36,0.11,3.74,1.38c0.63,2.15-5.23,6.2-6.97,7.44c-9.74,6.96-9.98,11.69-24.61,27.3
		c-19.54,20.85-23.98,17.64-31.43,29.9c-2.39,3.93-4.56,12.33-8.97,29.38c-6.11,23.63-7.69,37.53-8.31,44.07
		c-0.38,4.02-0.76,8.04-0.88,13.58c-0.21,9.33,0.22,26.8,5.97,48.37c5.86,21.97,10.82,24.45,7.8,30.4
		c-7.7,15.14-43.8,9.06-47.03,8.48c-8.22-1.46-10.12-3.29-10.89-4.14c-7.51-8.26,0.74-24.06,0.41-42.63
		c-0.11-6.28-1.21-12.66-12.82-35.73c-11.38-22.61-18.17-36.09-30.71-52.66c-18.72-24.73-26.61-24.73-42.37-44.37
		c-5.99-7.45-8.4-11.92-15.44-14.48c-4.89-1.78-9.64-1.78-10.07-5.53C30.68,267.26,33.68,261.84,37.39,259.6z"/>
	<path class="st2" d="M37.39,259.6c6.32-3.81,10.15,4.42,23.95,8.52c5.73,1.7,21.46,6.38,33.98-2.47
		c10.71-7.57,10-18.64,17.82-21.72c7.41-2.92,10.07,6.13,27.02,12.97c8.1,3.27,16.92,6.68,29.15,4.1
		c10.23-2.15,25.34-9.03,28.88-18.58c2.65-7.14-2.8-11.53,0.41-14.8c3.37-3.43,12.89-2.14,19.29,0.95
		c9.23,4.45,8.36,10.82,15.87,11.28c5.75,0.35,12.53-2.98,15.62-4.51c5.35-2.63,9.12-5.75,14.27-5.59c0.85,0.03,3.36,0.11,3.74,1.38
		c0.63,2.15-5.23,6.2-6.97,7.44c-9.74,6.96-9.98,11.69-24.61,27.3c-6.2,6.61-10.88,10.81-14.62,13.84
		c-3.53-0.89-7.23-1.38-11.06-1.15c-3.24,0.19-6.51,0.86-9.74,1.63c-3.62,0.85-7.23,1.76-10.82,2.24
		c-4.16,0.55-8.21,0.27-12.15,0.02c-3.43-0.22-6.91-0.63-10.42-0.3c-3.63,0.34-7.31,1.1-10.93,1.76c-3.29,0.6-6.57,1.17-9.75,1.14
		c-2.8-0.03-5.46-0.43-8.04-0.99c-4.2-0.91-8.32-2.32-12.89-1.99c-5.37,0.39-10.03,3.34-14.86,6.6c-1.98,1.33-4,2.69-6.16,3.36
		c-2.77,0.85-5.49,0.77-8.15,0.95c-6.52,0.45-12.37-0.76-18.34-1.57c-3.17-0.43-6.34-0.82-9.56-1.01c-3.04-0.18-5.97-0.25-9.21,0.68
		c-0.56,0.16-1.11,0.34-1.66,0.54c-0.29-0.35-0.58-0.71-0.87-1.08c-5.99-7.45-8.4-11.92-15.44-14.48
		c-4.89-1.78-9.64-1.78-10.07-5.53C30.68,267.26,33.68,261.84,37.39,259.6z"/>
	<path class="st0" d="M257.59,243.57c2.12,0.25,5.48-0.04,12-3.98c7.23-4.36,11.77-7.11,12.52-10.75c1.32-6.4-10-10.82-15.96-12.16
		c-9.58-2.16-22.15-0.17-27.26,3.53c-0.52,0.38-1.99,1.51-3.98,1.91c-3.19,0.64-5.53-1.03-6.37-1.61
		c-4.32-2.98-12.68-8.75-20.29-9.11c-7.26-0.34-16.87,4.08-20.61,9.78c-2.2,3.35-1.2,5.36-3.84,7.81
		c-2.88,2.67-5.65,1.76-13.44,3.16c-8.87,1.6-16.29,4.79-19.35,6.1c-6.43,2.76-6.05,3.44-8.23,3.73c-7.99,1.03-7.7-8.86-16.84-11.65
		c-6.37-1.95-13.62,0.71-21.47,3.59c-9.1,3.33-9.59,5.66-19.17,9.52c-7.39,2.98-12.82,3.89-21.96,5.42
		c-7.12,1.2-11.77,1.49-22.63,3.54c-7.28,1.38-10.55,2.26-13.27,5.26c-4.07,4.47-3.96,10.4-3.92,11.37c0.17,4.68,2.87,7.62,5.96,8.7
		c2.41,0.84,6.05,0.88,6.8-0.36c0.89-1.48-6.47-3.87-5.35-6.48c0.3-0.71,0.98-0.88,2.78-2.02c4.6-2.93,5.35-5.15,7.82-6.24
		c1.98-0.87,3.8-0.47,7,1.25c6.32,3.41,7.31,6.19,10.88,8.48c6.37,4.08,14.75,2.65,24.17,1.05c7.5-1.28,11.28-1.93,14.47-4.63
		c5.17-4.38,5.14-9.35,13.12-17.44c4.32-4.39,6.19-4.82,6.96-4.93c3.68-0.52,4.59,3.43,8.38,7.47c4.28,4.57,9.25,6.11,18.87,9.08
		c5.41,1.67,9.93,3.07,16.5,3.32c6.89,0.26,23.65,0.89,34.39-10.21c3.88-4.01,9.24-11.92,7.68-17.79c-1.08-4.09-5.17-5.82-3.79-8.59
		c1.21-2.42,5.45-3.32,5.64-3.36c3.15-0.63,5.98,0.42,10.76,4.34c8.24,6.74,6.5,8.96,10.83,10.71c5.95,2.39,16.32,1.1,23.39-3.89
		c3.85-2.72,6.75-6.56,10.59-6.48c1.16,0.02,2.93,0.42,3.09,1.47c0.42,2.73-10.49,6.98-10.08,9.6
		C254.54,243.2,256.61,243.45,257.59,243.57z"/>
	<path class="st3" d="M42.5,262.31c-0.12,0.03-0.24,0.06-0.36,0.09c0.13-0.37,0.25-0.74,0.36-1.11c0.02-0.06,0.03-0.11,0.05-0.17
		L42.5,262.31z"/>
	<path class="st3" d="M130.51,255.13c0.03-0.02,0.06-0.04,0.09-0.05c-0.39,0.48-0.8,0.93-1.23,1.37c-0.07-0.05-0.13-0.1-0.2-0.15
		C129.63,255.93,130.07,255.53,130.51,255.13z"/>
	<path class="st3" d="M27.45,257.67c2.72-2.99,5.99-3.88,13.27-5.26c10.86-2.06,15.51-2.35,22.63-3.54
		c9.14-1.53,14.57-2.44,21.96-5.42c9.58-3.86,10.07-6.19,19.17-9.52c7.85-2.88,15.1-5.53,21.47-3.59c6.38,1.95,8.17,7.37,11.4,10.11
		c-0.78,2.07-1.49,4.18-2.3,6.27c-3.75,0.8-7.33,3.05-11.02,4.13c-1.98-2.74-3.18-4.8-5.91-4.42c-0.76,0.11-2.63,0.54-6.96,4.93
		c-7.98,8.09-7.95,13.06-13.12,17.44c-3.19,2.7-6.97,3.35-14.47,4.63c-9.42,1.61-17.8,3.04-24.17-1.05
		c-3.57-2.29-4.56-5.07-10.88-8.48c-0.83-0.45-1.56-0.8-2.23-1.07c0.34-0.44,0.53-1,0.31-1.47c-0.77-1.64-1.5-3.18-1.25-5.33
		c0.11-1.01-0.98-1.02-1.74-0.47c-1.56,1.12-2.4,2.75-2.95,4.42c-0.54,1.63-0.79,3.34-2.15,4.76c-0.21,0.22-0.33,0.43-0.4,0.63
		c-1.03,1-2.33,2.19-4.42,3.53c-0.89,0.57-1.5,0.89-1.93,1.16c-1.42-0.08-2.66-0.57-3.86-1.14c-1.04-0.49-2.38,1.64-1.52,2.29
		c1.38,1.04,2.93,1.89,5.02,1.61c1.55,1.84,5.54,3.47,4.87,4.58c-0.75,1.24-4.38,1.2-6.8,0.36c-3.09-1.08-5.79-4.02-5.96-8.7
		C23.49,268.07,23.39,262.14,27.45,257.67z"/>
	<path class="st3" d="M238.4,220.57c0.21-0.15,0.38-0.27,0.5-0.36c5.11-3.7,17.68-5.69,27.26-3.53c5.95,1.34,17.27,5.76,15.96,12.16
		c-0.75,3.64-5.3,6.39-12.52,10.75c-6.52,3.94-9.88,4.23-12,3.98c-0.98-0.12-3.05-0.36-3.22-1.47c-0.34-2.18,7.11-5.47,9.42-8.1
		c0.32-0.13,0.63-0.24,0.95-0.34c1.49-0.11,3-0.53,4.48-1.14c1.45-0.42,2.84-1.01,4.07-2.15c1.23-1.14,0.26-2.93-1.27-2.3
		c-0.2-0.51-0.78-0.83-1.67-0.63c-4.91,1.11-9.81,2.23-14.64,3.59c-1.75,0.49-1.72,2.57-0.37,2.76c-1.45,1.18-2.93,2.56-4.58,3.72
		c-1.14,0.8-2.37,1.51-3.65,2.12C249.13,232.18,243.68,224.74,238.4,220.57z"/>
	<path class="st3" d="M205.62,226.39c-1.49-0.88-3.32-1.29-5.19-1.6c-0.69-0.13-1.39-0.24-2.09-0.33c-0.62-0.1-1.23-0.2-1.82-0.33
		c-0.25-0.05-0.5-0.04-0.72,0.01c-0.94-0.13-1.89-0.23-2.86-0.29c-0.58-0.07-1.18-0.1-1.8-0.07c-0.2,0.01-0.39,0.05-0.56,0.12
		c-1.09-0.74-2.16-1.5-3.23-2.25c0.09-0.15,0.18-0.31,0.29-0.46c3.74-5.71,13.36-10.12,20.61-9.78c7.61,0.36,15.97,6.13,20.29,9.11
		c0.83,0.57,3.18,2.25,6.37,1.61c0.09-0.02,0.18-0.04,0.27-0.06c0.05,0.05,0.09,0.1,0.16,0.14c4.92,3.7,11.7,11.54,8.22,18.85
		c-5.81,1.89-12.06,2.01-16.18,0.35c-4.34-1.75-2.6-3.97-10.83-10.71c-4.79-3.92-7.61-4.98-10.76-4.34
		C205.77,226.36,205.71,226.37,205.62,226.39z"/>
	<path class="st3" d="M134.08,254.18c2.51-3.98,3.86-8.3,5.39-12.48c0.94,0.33,2.02,0.46,3.32,0.29c2.18-0.28,1.8-0.96,8.23-3.73
		c3.06-1.32,10.48-4.5,19.35-6.1c7.79-1.41,10.56-0.49,13.44-3.16c1.64-1.52,1.88-2.88,2.35-4.49c2.09,1.49,4.21,2.96,6.54,4.19
		c0.05,0.22,0.17,0.43,0.39,0.59c2.88,2.1,6,4.25,8.18,7.11c0.26,0.48,0.55,0.93,0.93,1.34c0.38,0.42,1.03,0.39,1.6,0.13
		c0.05,0.15,0.1,0.29,0.14,0.44c1.56,5.87-3.8,13.78-7.68,17.79c-10.74,11.1-27.5,10.47-34.39,10.21
		c-6.57-0.25-11.09-1.65-16.5-3.32c-6.33-1.96-10.63-3.29-14.06-5.27C132.33,256.65,133.26,255.48,134.08,254.18z"/>
	<path class="st4" d="M258.81,222.9c-2.48,1.43-5.08,1.94-7.57,1.49c-2.65-0.49-5.22-1.49-7.49-2.56c-1.4-0.66-2.53-1.48-3.32-2.57
		c5.78-3.07,16.99-4.54,25.72-2.58c0.02,0.01,0.05,0.01,0.07,0.02C263.97,218.92,261.62,221.27,258.81,222.9z"/>
	<path class="st4" d="M233.11,222.66c1.13,1.06,2.63,2.83,2.17,4.67c-0.45,1.8-3.41,2.03-4.77,1.81c-1.73-0.28-3.07-1.27-4.19-2.32
		c-1.33-1.25-2.44-2.68-3.54-4.1c-1.05-1.36-2.06-2.74-3.27-3.95c-1.23-1.23-2.69-2.03-4.48-2.58c-4.99-1.52-10.85-0.78-16.05-1.57
		c-0.8-0.12-1.61-0.3-2.28-0.63c3.76-1.75,7.95-2.76,11.56-2.59c7.61,0.36,15.97,6.13,20.29,9.11c0.65,0.45,2.22,1.56,4.39,1.73
		C232.93,222.39,232.98,222.53,233.11,222.66z"/>
	<path class="st4" d="M149.42,245.64c5.84-1.62,11.72-2.81,17.64-4.28c3.03-0.75,6.04-1.56,9.08-2.58c2.58-0.86,5.16-1.81,7.74-2.73
		c3.51,1.6,6.69,5.84,3.29,10.26c-1.52,1.98-3.87,3.34-6.12,4.22c-2.65,1.03-5.37,1.7-8.04,2.27c-2.75,0.59-5.48,1.05-8.2,1.45
		c-1.8,0.26-3.6,0.56-5.36,0.59c-4.2,0.08-8.29-0.45-12.01-1.47c-1.83-0.5-3.63-1.14-5.1-2.17c-0.9-0.63-1.71-1.46-1.88-2.61
		C143.43,247.42,146.42,246.48,149.42,245.64z"/>
	<path class="st4" d="M170.75,232.36c-1.8,1.01-3.7,1.74-5.58,2.36c-2.21,0.74-4.39,1.3-6.57,1.46c-0.88,0.07-1.75,0.08-2.61,0.05
		c3.71-1.41,8.75-3.06,14.38-4.08c0.35-0.06,0.69-0.12,1.02-0.18C171.18,232.11,170.96,232.24,170.75,232.36z"/>
	<path class="st4" d="M62.83,255.75c3.76,0.62,7.23,1.88,10.93,2.75c2.59,0.61,5.52,1.25,8.62-0.06c3.37-1.43,6.65-3.35,10.07-4.64
		c2.46-0.93,6.6-2.27,6.77,0.92c0.02,0.36,0.28,0.49,0.57,0.46c-0.98,2.06-3.79,4.45-5.26,5.62c-1.52,1.22-3.12,2.35-4.77,3.27
		c-1.49,0.84-3.07,1.23-4.7,1.7c-2.45,0.71-4.89,1.31-7.3,1.76c-2.28,0.43-4.6,0.75-6.74,0.61c-4.16-0.26-6.78-3.22-9.22-5.79
		c-1.25-1.31-2.52-2.61-4.09-3.53c-1.33-0.79-2.84-1.27-4.49-1.42C56.25,255.04,60.01,255.28,62.83,255.75z"/>
	<path class="st4" d="M27.45,257.67c1.39-1.53,2.92-2.51,5.05-3.28c1.69-0.1,3.32,0.01,4.87,0.27c0.25,0.04,0.49-0.09,0.68-0.28
		c0.08,0.37-0.17,0.85-0.57,1.34c-1.04,1.29-2.51,2.29-3.81,3.19c-1.25,0.86-2.54,1.62-3.77,2.52c-1.65,1.21-3.34,2.75-4.1,4.67
		c-0.72,1.81-0.52,3.57-0.4,5.2c-0.49,0.25-0.97,0.43-1.43,0.56c-0.26-0.86-0.42-1.8-0.45-2.82
		C23.49,268.07,23.39,262.14,27.45,257.67z"/>
</g>
<g id="Cantharellus_cibarius_2_" class="st5">
	<path class="st6" d="M306.17,243.02c-3.98-1.52-8.03-2.88-12.07-4.1c-14.71-4.47-30.16-7.14-45.42-8.86
		c-15.68-1.77-31.61-2.64-47.33-0.95c-7.8,0.84-15.54,2.22-23.21,3.82c-5.41,1.13-10.99,2.06-16.19,3.97
		c-3.72,1.37-7.47,2.73-11.33,3.62c-1.18,0.27-2.85,0.65-4.45,0.68c0.34,0.99,0.68,1.99,1.03,3.02
		c13.03,38.13,17.22,60.85,18.96,71.45c1.06,6.47,2.12,12.91,2.92,21.87c1.33,14.93,2.46,42.62-4.37,77.29
		c-6.71,34.02-14,38.8-8.75,46.66c13.3,19.9,69.2,3.06,74.37,1.46c13.27-4.11,16.28-7.29,17.5-8.75
		c12.05-14.36-2.47-36.43-2.92-65.62c-0.15-10.04,1.36-20.66,20.42-62.7C280.48,292.41,291.21,268.74,306.17,243.02z"/>
	<g>
		<path class="st6" d="M157.75,238.41c-1.96,0.68-3.94,1.3-5.94,1.82c0.14,0.75,0.29,1.49,0.45,2.24c0.74,3.38,1.69,6.71,2.7,10.02
			c2,6.57,4.28,13.05,5.89,19.73c0.43,1.79-2.32,2.54-2.75,0.76c-1.77-7.35-4.35-14.47-6.48-21.72c-1.01-3.44-1.77-6.92-2.46-10.42
			c-0.93,0.18-1.96,0.34-2.98,0.36c0.34,0.99,0.68,1.99,1.03,3.02c13.03,38.13,17.22,60.85,18.96,71.45
			c1.06,6.47,2.12,12.91,2.92,21.87c0.02,0.25,0.04,0.51,0.07,0.77c1.93,0.27,3.86,0.49,5.79,0.67c0.59,0.05,1.17,0.1,1.76,0.15
			c-3.04-15.92-6.8-31.7-9.99-47.58C163.14,273.94,160.91,256.1,157.75,238.41z"/>
		<path class="st6" d="M297.17,239.87c-4.28,6.87-8.31,13.89-12.07,21.05c-1.13,3.5-2.27,6.99-3.56,10.44
			c-2.89,7.75-6.57,15.17-10.35,22.51c-2.99,5.81-6.09,11.63-8.9,17.56c-2.12,5.34-3.86,10.86-4.33,16.52
			c2.55-0.85,5.1-1.74,7.63-2.68c15.02-33.14,25.71-56.69,40.58-82.25C303.2,241.88,300.18,240.84,297.17,239.87z"/>
		<path class="st6" d="M297.26,234.39c0.71-1.11,1.43-2.21,2.16-3.31c-0.96,1-1.86,2.05-2.69,3.14
			C296.91,234.27,297.09,234.33,297.26,234.39z"/>
		<path class="st6" d="M294.1,238.91c-0.12-0.04-0.25-0.07-0.37-0.11c-1.17,2.05-2.21,4.19-3.13,6.37c0.02-0.04,0.04-0.07,0.06-0.11
			c1.2-2.04,2.44-4.06,3.69-6.08C294.27,238.97,294.18,238.94,294.1,238.91z"/>
		<path class="st6" d="M214.87,266.63c-0.45-4.12-1-8.23-1.6-12.34c-1.27-8.62-2.73-17.21-4.18-25.81
			c-0.26,0.01-0.52,0.03-0.78,0.05C210.49,241.23,212.9,253.89,214.87,266.63z"/>
		<path class="st6" d="M208.11,243.76c-0.89-5.01-1.79-10.01-2.65-15.03c-1.37,0.11-2.74,0.23-4.11,0.38
			c-1.1,0.12-2.19,0.25-3.29,0.39c1.84,4.56,3.41,9.23,4.49,14.11c0.26,1.17-0.22,2.11-0.97,2.68c2.72,8.4,5.27,16.86,7.51,25.41
			c2.9,11.07,5.27,22.34,6.74,33.71c0.03-0.81,0.06-1.62,0.09-2.43c-0.09-2.04-0.2-4.09-0.34-6.13
			C214.33,279,211.24,261.35,208.11,243.76z"/>
		<path class="st6" d="M225.95,228.31c-3.87-0.13-7.74-0.15-11.61-0.05c0.05,0.31,0.1,0.63,0.15,0.94
			c3.38,20.99,7.15,41.78,6.95,63.12c-0.14,14.98-1.31,29.96-1.23,44.92c2.1-0.33,4.19-0.68,6.28-1.08
			c-0.11-10.45-0.02-20.89,0.12-31.34c0.24-18.74,0.64-37.49,0.2-56.23C226.64,241.84,226.37,235.07,225.95,228.31z"/>
		<path class="st6" d="M168.14,247.12c-0.6,1.02-2.59,0.75-2.69-0.76c-0.21-3.45-0.49-6.9-0.82-10.34
			c-0.56,0.17-1.12,0.35-1.67,0.54c0.49,2.83,1.03,5.66,1.65,8.46c0.4,1.79-0.91,3.02-2.31,3.25c2.74,16.68,5.18,33.39,8.67,49.95
			c2.89,13.71,6.04,27.38,8.64,41.15c1.36,0.09,2.73,0.15,4.09,0.2c-1.72-6.83-3.37-13.68-4.91-20.56
			C173.51,295.38,169.43,271.32,168.14,247.12z"/>
		<path class="st6" d="M200.83,299.98c0.04-0.36,0.19-0.65,0.4-0.87c-0.96-5.25-2.03-10.48-3.19-15.69
			c-3.89-17.42-8.75-34.59-13.75-51.71c-2.05,0.39-4.1,0.8-6.14,1.23c-0.21,0.04-0.42,0.09-0.63,0.13c0.03,0.14,0.06,0.27,0.09,0.41
			c1.16,5.24,2.41,10.47,3.68,15.68c5.5,14.63,11.31,29.14,17.22,43.6c0.7,1.7-2.06,2.43-2.75,0.76
			c-3.08-7.53-6.13-15.08-9.12-22.65c1.09,4.49,2.15,8.99,3.14,13.51c1.89,8.56,3.65,17.19,4.79,25.88
			c1.16,8.88,1.14,17.87,1.14,26.81c0,1.84-2.85,1.84-2.85,0c0-10.1-0.08-20.18-1.65-30.18c-3.01-19.14-7.97-37.87-12.56-56.68
			c-2.02-5.37-4-10.76-5.94-16.16c-0.7,0.15-1.41,0.3-2.11,0.45c0.07,6.22,0.34,12.44,0.79,18.64c2.13,29.27,8.1,58.11,15.29,86.52
			c6.04,0.13,12.09-0.07,18.12-0.55C204.18,325.99,199.33,313.19,200.83,299.98z"/>
		<path class="st6" d="M214.52,334.21c0.36-11.71-0.57-23.43-2.43-34.99c-2.88-17.88-7.79-35.35-13.37-52.56
			c-0.58-0.28-1.06-0.81-1.24-1.66c-1.13-5.11-2.81-9.99-4.76-14.76c-1.88,0.29-3.75,0.6-5.62,0.94
			c7.55,25.92,14.77,51.95,18.82,78.69c0.2,1.35-1.3,2.12-2.17,1.65c0.92,9.12,3.43,18.15,3.89,27.33c2.44-0.23,4.88-0.52,7.31-0.84
			c-0.01-0.93-0.01-1.85-0.01-2.78C214.67,335,214.51,334.66,214.52,334.21z"/>
		<path class="st6" d="M250.67,230.28c-0.79,5.71-1.3,11.48-2,17.18c-0.41,3.33-5.68,3.36-5.27,0c0.73-5.93,1.29-11.88,2.12-17.76
			c-2.56-0.27-5.12-0.51-7.69-0.71c-0.77,29.46-0.6,59.07-7.39,87.91c-0.15,0.64-0.61,0.96-1.1,1.01c-0.04,5.9-0.05,11.8,0,17.69
			c1.37-0.28,2.73-0.57,4.09-0.87c0.92-5.43,1.88-10.85,2.86-16.27c-0.75-0.13-1.43-0.79-1.19-1.75c1.36-5.32,2.88-10.6,4.5-15.85
			c0.22-1.14,0.45-2.29,0.67-3.43c4.36-21.95,9.36-43.78,15.31-65.36c0.1-0.38,0.21-0.75,0.32-1.13
			C254.16,230.71,252.41,230.49,250.67,230.28z"/>
		<path class="st6" d="M282.11,235.69c-0.03,0.07-0.07,0.14-0.1,0.21c-0.88,1.92-1.75,3.84-2.62,5.76
			c-0.74,1.87-1.46,3.75-2.17,5.64c-0.15,0.4-0.42,0.66-0.73,0.81c-8.82,19.84-17.01,39.98-23.23,60.8c-0.53,1.76-3.28,1-2.75-0.76
			c2.15-7.18,4.52-14.3,7.08-21.34c5.71-15.7,12.3-31.05,19.18-46.26c0.73-1.86,1.48-3.72,2.25-5.57c-1-0.22-2.01-0.44-3.01-0.65
			c-5.55,12-10.71,24.18-15.24,36.61c-6.78,18.59-12.17,37.75-14.93,57.37c-0.26,1.81-3,1.04-2.75-0.76
			c1.55-11.02,3.93-21.91,6.93-32.62c5.45-19.48,12.83-38.38,21.14-56.8c0.66-1.46,1.33-2.91,2-4.37c-2.32-0.45-4.64-0.88-6.96-1.27
			c-1.19,4.01-2.58,7.97-3.93,11.93c-2.76,8.08-5.68,16.11-8.58,24.14c-3.96,10.96-7.89,21.95-11.33,33.08
			c-2.11,10.78-4.07,21.59-5.92,32.41c4.86-1.14,9.68-2.43,14.44-3.86c0.38-0.12,0.77-0.23,1.15-0.35
			c1.72-5.98,4.05-11.79,6.66-17.45c0.33-0.72,0.67-1.43,1-2.15c1.5-3.78,3.19-7.48,4.81-11.11c3.95-8.84,7.5-17.84,11.63-26.6
			c2.04-4.33,4.18-8.62,6.41-12.87c2.33-7.4,4.61-14.99,8.34-21.7C287.98,237.15,285.05,236.39,282.11,235.69z"/>
		<path class="st6" d="M258.77,231.34c-3.51,12.62-6.7,25.32-9.61,38.09c-0.67,2.93-1.32,5.86-1.96,8.79
			c4.51-12.73,9.26-25.38,13.55-38.19c0.89-2.66,1.77-5.32,2.58-8.01C261.81,231.78,260.29,231.56,258.77,231.34z"/>
		<path class="st6" d="M228.8,228.42c1.06,17.14,1.15,34.32,0.98,51.48c-0.09,9.36-0.25,18.72-0.36,28.09
			c1.3-6.77,2.27-13.61,2.98-20.47c2.02-19.51,2.07-39.14,2.58-58.74C232.93,228.64,230.87,228.52,228.8,228.42z"/>
		<path class="st6" d="M167.4,235.24c0.16,1.6,0.31,3.2,0.44,4.81c-0.05-1.63-0.08-3.27-0.1-4.9
			C167.63,235.18,167.52,235.21,167.4,235.24z"/>
	</g>
	<path class="st6" d="M265.59,325.27c-17.44,5.99-39.64,11.86-57.96,13.58c-12.41,1.16-25.98,0.33-38.56-1.3
		c0.89,15.85,1.36,48.24-4.37,77.29c-6.71,34.02-14,38.8-8.75,46.66c13.3,19.9,69.2,3.06,74.37,1.46
		c13.27-4.11,16.28-7.29,17.5-8.75c12.05-14.36-2.47-36.43-2.92-65.62C244.75,379.27,250.17,360.25,265.59,325.27z"/>
	<path class="st7" d="M306.17,243.02c-3.98-1.52-8.03-2.88-12.07-4.1c-2.91-0.89-5.86-1.7-8.82-2.45
		c-1.54,3.97-3.01,7.97-4.46,11.97c-5.98,16.48-12.7,32.36-20.98,47.83c-8.12,15.16-16.95,30-23.75,45.82
		c-6.92,16.08-12.12,34.16-11.05,51.8c0.52,8.51,2.61,16.64,5.52,24.61c2.64,7.24,5.57,14.54,6.26,22.28
		c2.24,25.29-34.84,23.38-51.17,21.14c-4.66-0.64-9.1-1.62-12.79-4.71c-3.32-2.78-5.3-6.86-6.2-11.04
		c-2.22-10.28,0.19-21.35,2.63-31.37c2.71-11.13,6.04-21.96,7.93-33.29c3.12-18.79,4.02-38.09,0.61-56.91
		c-3.44-18.98-10.21-37.28-16.16-55.57c-2.9-8.91-5.64-17.79-7.25-27.04c-0.14-0.79-0.27-1.58-0.39-2.37
		c-1.12,0.33-2.25,0.64-3.39,0.9c-1.18,0.27-2.85,0.65-4.45,0.68c0.34,0.99,0.68,1.99,1.03,3.02
		c13.03,38.13,17.22,60.85,18.96,71.45c1.06,6.47,2.12,12.91,2.92,21.87c1.33,14.93,2.46,42.62-4.37,77.29
		c-6.71,34.02-14,38.8-8.75,46.66c13.3,19.9,69.2,3.06,74.37,1.46c13.27-4.11,16.28-7.29,17.5-8.75
		c12.05-14.36-2.47-36.43-2.92-65.62c-0.15-10.04,1.36-20.66,20.42-62.7C280.48,292.41,291.21,268.74,306.17,243.02z"/>
</g>
<g id="Cantharellus_cibarius">
	<path class="st0" d="M39.61,122.73c17.12,7.91,18.48,16.53,45.21,37.91c35.68,28.55,42.58,20.64,56.87,39.37
		c4.56,5.97,9.36,20.02,18.96,48.12c13.03,38.13,17.22,60.85,18.96,71.45c1.06,6.47,2.12,12.91,2.92,21.87
		c1.33,14.93,2.46,42.62-4.37,77.29c-6.71,34.02-14,38.8-8.75,46.66c13.3,19.9,69.2,3.06,74.37,1.46
		c13.27-4.11,16.28-7.29,17.5-8.75c12.05-14.36-2.47-36.43-2.92-65.62c-0.15-10.04,1.36-20.66,20.42-62.7
		c19.64-43.34,31.84-70.26,55.41-106.45c37.28-57.23,53.35-61.43,87.49-110.83c13.5-19.53,19.17-30.71,35-40.83
		c11.14-7.12,21.89-10.25,23.33-18.96c1.27-7.65-4.92-17.9-13.12-20.42c-13.93-4.28-23.32,16.88-53.95,35
		c-12.44,7.36-45.78,27.07-71.45,16.04c-21.83-9.38-20.51-33.42-36.46-35c-14.98-1.48-19.92,19.37-52.5,43.75
		c-15.12,11.32-31.28,23.1-53.95,24.79c-18.69,1.4-46.37-3.72-53.95-20.42c-5.72-12.59,3.27-24.5-2.92-29.16
		c-6.5-4.9-22.99,3.32-33.54,13.12c-14.93,13.88-12.31,25.69-24.79,30.62c-9.45,3.74-21.25,1.04-26.61-0.18
		c-9.24-2.11-16-5.98-24.24-2.92c-1.36,0.5-5.34,1.99-5.65,4.56C26.34,116.85,36.57,121.33,39.61,122.73z"/>
	<g>
		<path class="st1" d="M74.09,131.1c2.45,2.44,4.8,4.98,7.12,7.53c1.17,0.99,2.36,1.96,3.54,2.95c-4.88-5.54-9.61-11.21-14.61-16.63
			C71.46,126.98,72.7,129.1,74.09,131.1z"/>
		<path class="st1" d="M97.1,96.63c6.13,3.62,10.58,9.44,14.37,15.34c3.61,5.62,6.65,11.58,9.93,17.39
			c1.88,3.34,3.97,6.54,6.07,9.74c1.05,1.21,2.08,2.43,3.07,3.69c3.43,4.38,6.27,9.13,8.52,14.21c0.74,1.68,1.43,3.38,2.07,5.09
			c1.71,2.96,3.45,5.9,5.27,8.8c1.41,2.26,2.82,4.52,4.17,6.82c-6.93-16.1-13.56-32.35-20.96-48.25c-2.05-4.41-4.14-8.83-6.42-13.13
			c-1.72-3.25-3.81-6.3-5.87-9.34c-3.77-5.53-8.08-11.07-10.72-17.29c-1.18-1.29-2.3-2.65-3.47-3.95c-3.1,3.77-5.12,7.32-6.83,10.54
			C96.56,96.37,96.83,96.47,97.1,96.63z"/>
		<path class="st1" d="M110.56,120.36c-4.15-7.53-8.97-14.95-16.12-19.17c-0.19-0.11-0.36-0.24-0.51-0.38
			c-0.29,0.53-0.58,1.05-0.87,1.55C99.32,107.91,105,114.09,110.56,120.36z"/>
		<path class="st1" d="M180.14,295.48c-3.84-19.07-6.14-38.4-9.74-57.52c-1.76-9.36-3.8-18.71-6.77-27.77
			c-1.75-5.37-3.79-10.63-5.94-15.85c-0.73,1.96-4.23,2.37-5.09-0.22c-0.71-2.12-1.55-4.17-2.5-6.18c0.8,2.31,1.59,4.61,2.37,6.93
			c4.42,6.09,8.27,12.66,8.82,20.34c0.1,1.4-0.74,2.21-1.77,2.45c1.65,6.04,3.12,12.12,4.3,18.27c0.67,3.48,1.12,6.99,1.89,10.46
			c0.74,3.38,1.69,6.71,2.7,10.02c2,6.57,4.28,13.05,5.89,19.73c0.43,1.79-2.32,2.54-2.75,0.76c-1.77-7.35-4.35-14.47-6.48-21.72
			c-2.2-7.47-3.23-15.11-4.84-22.72c-1.99-9.37-4.6-18.58-7.5-27.7c-2.42-4.47-5.77-8.58-8.73-12.47
			c-5.01-6.56-8.98-13.57-13.18-20.66c-4.89-8.27-10.63-15.52-16.74-22.9c-5.77-6.96-11.62-13.94-18.71-19.61
			c-2.99-2.39-5.83-4.93-8.77-7.38c-2.88-2.41-6.02-4.82-9.79-5.54c-1.81-0.35-2.22-2.01-1.68-3.35
			c-7.28,0.56-14.51-1.09-18.38-1.97c-2.9-0.66-5.56-1.5-8.1-2.24c1.42,2.47,3.58,4.48,5.67,6.38c1.44,1.31,2.92,2.57,4.4,3.83
			c-0.81-0.99-1.67-1.93-2.63-2.78c-1.36-1.2,0.58-3.16,1.95-2.07c0.32-0.6,1.11-1.03,1.85-0.79c0.46-0.65,1.44-0.99,2.21-0.3
			c6.37,5.71,12.07,12.08,17.65,18.54c4.87,5.63,9.67,11.32,14.87,16.65c4.96,5.09,10.34,9.6,16.04,13.82
			c10.28,7.62,22.14,15.41,28.11,27.15c0.83,1.63-1.63,3.08-2.46,1.44c-3.31-6.52-8.71-11.7-14.27-16.33
			c-3.26-2.71-6.66-5.25-10.07-7.77c-0.26,0.56-0.85,0.98-1.62,0.79c-4.87-1.18-9.29-4.6-13.22-7.55
			c-4.36-3.28-8.54-6.8-12.62-10.42c-4.64-4.12-8.76-8.64-12.83-13.33c-1.9-2.19-3.82-4.34-5.8-6.42c-1.08-0.98-2.13-2.01-3.07-3.12
			c-1.55-1.52-3.15-3-4.83-4.42c-4.15-3.53-9.06-7.07-11.82-11.88c-0.47-0.83-0.04-1.61,0.61-1.95c-4.81-1.31-9.27-2.01-14.28-0.15
			c-0.02,0.01-0.03,0.01-0.05,0.02c7.94,2.75,15.07,7.38,21.63,12.57c13.25,10.49,24.15,23.47,36.4,35.04
			c6.75,6.37,13.32,13.62,21.43,18.28c7.46,4.29,15.55,7.93,21.5,14.34c0.87,0.93,0.17,2.18-0.76,2.42
			c2.91,2.25,5.78,5.13,9.03,9.39c4.56,5.97,9.36,20.02,18.96,48.12c13.03,38.13,17.22,60.85,18.96,71.45
			c1.06,6.47,2.12,12.91,2.92,21.87c0.02,0.25,0.04,0.51,0.07,0.77c1.93,0.27,3.86,0.49,5.79,0.67c0.59,0.05,1.17,0.1,1.76,0.15
			C187.1,327.14,183.34,311.36,180.14,295.48z"/>
		<path class="st1" d="M139.92,170.45c-4.48-7.26-8.4-14.83-12.76-22.16c-3.47-5.82-7.48-11.26-10.8-17.17
			c-1.16-1.26-2.31-2.53-3.44-3.81c-6.84-7.76-13.67-15.67-21.4-22.57c-1.81,2.5-4.05,4.55-7.48,6.05c3.08,3.1,6.08,6.28,9.03,9.5
			c2.51,2.09,5.01,4.21,7.5,6.32c7.52,6.37,13.64,14.1,19.93,21.63c1.78,2.13,3.48,4.28,5.13,6.46c5,4.93,9.45,10.36,11.49,17.25
			c0.05,0.08,0.1,0.16,0.14,0.24c2.18,3.76,4.25,7.63,6.71,11.22c0.96,1.41,1.98,2.78,3,4.14c-1.51-4.37-3.03-8.73-4.54-13.1
			C141.58,173.12,140.74,171.79,139.92,170.45z"/>
		<path class="st1" d="M119.64,181.44c-4.04-2.33-8.41-4.29-12.21-7.01c-7.43-5.32-13.96-11.99-20.52-18.32
			c-5.89-5.69-11.48-11.67-17.26-17.47c-11.34-11.4-23.97-23.68-39.73-28.49c-0.37-0.11-0.62-0.32-0.78-0.58
			c-1.14,0.74-2.12,1.72-2.27,2.95c-0.52,4.33,9.72,8.8,12.76,10.21c17.12,7.91,18.48,16.53,45.21,37.91
			c24.92,19.94,35.8,22.1,44.96,27.96C126.75,185.77,123.24,183.51,119.64,181.44z"/>
		<path class="st1" d="M97.96,155.25c-1.57-1.43-3.1-2.9-4.6-4.4c0.03,0.21,0,0.4-0.07,0.58C94.78,152.81,96.32,154.1,97.96,155.25z
			"/>
		<path class="st1" d="M107.56,163.14c-0.44-0.33-0.87-0.65-1.31-0.98c-1.89-1.44-3.73-2.93-5.53-4.47
			c0.02,0.32-0.08,0.64-0.25,0.91C102.68,160.2,105.04,161.91,107.56,163.14z"/>
		<path class="st1" d="M304.27,48.43c0.06-0.04,0.12-0.08,0.18-0.11c-0.48-0.03-0.95-0.04-1.41-0.02c-0.86,1.08-1.73,2.16-2.61,3.23
			C301.69,50.48,302.97,49.44,304.27,48.43z"/>
		<path class="st1" d="M305.92,50.96c0.79-0.64,1.58-1.26,2.38-1.88c-0.6-0.21-1.23-0.38-1.89-0.5c0.43,0.38,0.59,0.97,0.11,1.59
			C306.31,50.43,306.11,50.69,305.92,50.96z"/>
		<path class="st1" d="M206.22,124.48c0.26-0.54,0.53-1.07,0.84-1.59c0.08-0.13,0.16-0.24,0.26-0.33c0.04-0.69,0.09-1.38,0.14-2.06
			c0-0.02,0-0.04,0-0.05c0-1.6,0.03-3.19,0.08-4.79c-0.48,0.1-0.96,0.19-1.44,0.28c0.1,2.59,0.1,5.18,0.12,7.75
			C206.22,123.95,206.22,124.21,206.22,124.48z"/>
		<path class="st1" d="M177.52,131.41c0.25,2.3,0.57,4.6,0.95,6.89c-0.19-2.07-0.4-4.13-0.68-6.18c-0.07-0.28-0.15-0.56-0.22-0.84
			C177.56,131.32,177.54,131.37,177.52,131.41z"/>
		<path class="st1" d="M186.99,167.44c0.24,0.39,0.47,0.79,0.7,1.19c-0.09-0.6-0.18-1.19-0.28-1.79
			C187.32,167.07,187.17,167.28,186.99,167.44z"/>
		<path class="st1" d="M165.48,118.1c0.03,1.26,0.11,2.51,0.23,3.76C165.65,120.61,165.57,119.36,165.48,118.1z"/>
		<path class="st1" d="M188.8,177.96c-1.14-1.72-2.16-3.49-3.11-5.29c-0.16,0.14-0.35,0.24-0.55,0.29c1.32,2.08,2.67,4.14,4.05,6.18
			c-0.04-0.29-0.09-0.58-0.13-0.87C188.97,178.18,188.88,178.08,188.8,177.96z"/>
		<path class="st1" d="M180.08,119.64c-0.14,1.67-0.34,3.37-0.64,5.06c0.44,2.09,0.78,4.2,1.07,6.33c-0.45-4.93-0.4-9.9,0.69-14.63
			c-0.3-0.04-0.61-0.08-0.91-0.12C180.23,117.4,180.17,118.52,180.08,119.64z"/>
		<path class="st1" d="M479.21,45.24c-0.18-0.52-0.38-1.05-0.6-1.56c-1.18,1.24-2.41,2.44-3.67,3.59
			C476.33,46.52,477.75,45.84,479.21,45.24z"/>
		<path class="st1" d="M347.9,102.78c-0.84,1.26-1.68,2.53-2.5,3.81c0.01,0.03,0.02,0.06,0.03,0.09
			C346.26,105.39,347.09,104.09,347.9,102.78z"/>
		<path class="st1" d="M358.56,91.63c1.25-1.7,2.5-3.41,3.73-5.12c-0.27,0.02-0.54,0.03-0.82,0.05
			C360.53,88.26,359.56,89.95,358.56,91.63z"/>
		<path class="st1" d="M480.12,49.6c-5.67,3.02-10.96,6.75-15.89,10.87c-6.59,5.5-12.61,11.63-18.53,17.83
			c-6.03,6.31-12.08,12.59-18.1,18.91c-4.34,4.56-8.73,9.1-13.01,13.73c0.12,0.71-0.08,1.47-0.76,2.13
			c-7.71,7.46-13.51,16.51-19.36,25.43c-6.01,9.15-13.64,17.01-20.27,25.68c-2.04,2.66-6.61,0.03-4.55-2.66
			c6.82-8.91,14.62-17.02,20.77-26.44c5.91-9.04,11.89-18.19,19.69-25.74c0.28-0.27,0.57-0.46,0.87-0.58
			c0.03-0.04,0.06-0.08,0.08-0.12c0.68-0.97,1.37-1.94,2.05-2.9c-0.12-0.33-0.12-0.7,0.02-1.06c0.13-0.33,0.81-0.79,0.84-1.03
			c0.12-0.9,0.9-1.36,1.61-1.35c3.95-5.5,7.98-10.93,12.24-16.21c4.72-5.86,9.4-11.74,14.35-17.41c5.28-6.06,10.82-11.97,17.02-17.1
			c5.03-4.16,10.72-8.17,17.17-9.7c0.29-0.3,0.58-0.6,0.86-0.9c-2.41-3.99-6.1-7.35-10.33-8.64c-1.84-0.57-3.61-0.68-5.35-0.42
			c-0.54,0.43-1.08,0.86-1.63,1.29c-2.35,1.87-4.7,3.75-7.02,5.67c-9.63,14.98-20.63,29.08-31.4,43.28
			c0.43,0.51,0.59,1.31,0.06,1.97c-4.06,5.12-8.1,10.26-12.11,15.42c0.01,0.45-0.13,0.93-0.46,1.41
			c-5.57,8.17-11.34,16.19-17.1,24.23c-9.95,13.88-19.63,27.92-28.83,42.32c-6.74,10.54-13.37,21.15-20.38,31.52
			c0.54,0.5,0.78,1.37,0.14,2.07c-2.71,2.97-5.35,6-7.93,9.09c-0.01,0.01-0.02,0.03-0.03,0.04c-0.09,0.13-0.2,0.24-0.3,0.35
			c-4.61,5.54-9.01,11.26-13.19,17.13c-8.43,11.84-16.03,24.28-22.79,37.15c-1.13,3.5-2.27,6.99-3.56,10.44
			c-2.89,7.75-6.57,15.17-10.35,22.51c-2.99,5.81-6.09,11.63-8.9,17.56c-2.12,5.34-3.86,10.86-4.33,16.52
			c2.55-0.85,5.1-1.74,7.63-2.68c19.48-42.98,31.67-69.81,55.13-105.83c37.28-57.23,53.35-61.43,87.49-110.83
			c13.5-19.53,19.17-30.71,35-40.83c11.14-7.12,21.89-10.25,23.33-18.96C480.17,51.73,480.2,50.67,480.12,49.6z"/>
		<path class="st1" d="M160.24,187.34c-0.58-2.79-1.1-5.59-1.58-8.4c-7.47-26.7-12.73-53.92-15.12-81.57
			c-0.06-0.73,0.35-1.16,0.88-1.31c-5.33-12.43,3.39-24.13-2.73-28.74c-1.26-0.95-2.9-1.4-4.8-1.45c0.41,2.46,0.74,4.93,0.79,7.4
			c0.56,2.78,1.18,5.55,1.81,8.32c0.15,0.64-0.11,1.15-0.53,1.46c0.36,1.42,0.72,2.83,1.1,4.25c0.24,0.89-0.25,1.48-0.88,1.67
			c0.4,1.45,0.73,2.92,0.93,4.42c0.24,1.82-2.61,1.79-2.85,0c-0.59-4.41-2.37-8.51-3.88-12.65c-0.88-2.42-1.61-4.88-2.04-7.39
			c-0.46-2.14-0.72-4.31-0.72-6.48c-1.91,0.56-3.91,1.35-5.95,2.32c0.04,0.19,0.04,0.4-0.02,0.63c-0.84,3.56-0.19,7.32,0.68,10.81
			c0.99,3.96,2.39,7.8,3.82,11.62c1.2,3.22,2.48,6.43,3.44,9.73c1.25,4.32,2.25,8.74,3.29,13.11c2.13,8.98,4.13,17.99,6.63,26.87
			c1.91,6.81,3.82,13.66,5.97,20.41c1.8,5.66,3.73,12.21,7.76,16.74c0.88,0.99,0.07,2.32-0.9,2.46c1.12,2.6,2.23,5.19,3.34,7.8
			c1.89,4.46,3.73,8.95,5.42,13.5C162.59,197.73,161.31,192.56,160.24,187.34z"/>
		<path class="st1" d="M304.06,249.09c0.02-0.04,0.04-0.07,0.06-0.11c2.8-4.74,5.72-9.4,8.75-13.99
			C308.98,239.02,306.24,243.94,304.06,249.09z"/>
		<path class="st1" d="M221.56,247.67c-3.12-17.5-6.28-35.02-7.85-52.74c-0.16-1.83,2.69-1.81,2.85,0
			c0.89,10.08,2.3,20.1,3.94,30.08c2.49,15.2,5.47,30.32,7.83,45.54c-0.45-4.12-1-8.23-1.6-12.34c-1.47-10.04-3.22-20.03-4.9-30.03
			c-1.36-8.11-2.88-16.9-0.46-24.94c0.53-7.34,1.72-14.61,3.2-21.82c0.08-1.72,0.16-3.44,0.25-5.17
			c1.31-24.45,4.13-49.56,11.88-72.97c-4.09,2.6-8.36,5-12.89,7.05c-0.3,14.32-2.65,28.51-4.55,42.68c-0.44,3.32-5.72,3.35-5.27,0
			c1.8-13.45,4.01-26.91,4.49-40.48c-1.48,0.55-2.99,1.06-4.53,1.52c-1.34,6.08-1.04,12.57-1.27,18.73
			c-0.33,8.85-1.15,17.68-1.54,26.53c-0.4,9.02-0.61,18.06-0.3,27.08c0.05,1.52,0.07,3.05,0.07,4.57c1.01,11.5,2,23,3.89,34.39
			c0.24,1.43-1.46,2.21-2.31,1.55c-0.72,0.34-1.77,0.16-2.15-0.79c-2.76-6.86-2.55-14.89-2.46-22.16c0.06-4.64,0.11-9.26,0.09-13.89
			c-0.67-7.47-1.37-14.94-2.33-22.37c-0.61-0.25-1.12-0.85-1.01-1.67c0.16-1.19,0.25-2.39,0.28-3.6c-0.65-4.36-1.41-8.72-2.33-13.04
			c-2.2-10.37-4.77-21.67-3.84-32.49c-0.06,0-0.12,0.01-0.18,0.02c-4.45,0.33-9.41,0.29-14.49-0.18c-0.97,4.23-1.03,8.65-0.73,12.98
			c0.76,10.95,3.81,21.57,6.11,32.25c0.91,4.22,1.35,8.49,1.96,12.76c0.47,3.3,0.71,6.87,1.7,10.07c0.39,0.42,0.73,0.89,1.02,1.45
			c0.41,0.78,0.12,1.47-0.41,1.83c2.81,8.62,5.8,17.18,8.81,25.73c5.2,11.01,10.84,21.72,13.49,33.74c0.26,1.17-0.22,2.11-0.97,2.68
			c2.72,8.4,5.27,16.86,7.51,25.41c2.9,11.07,5.27,22.34,6.74,33.71c0.03-0.81,0.06-1.62,0.09-2.43c-0.09-2.04-0.2-4.09-0.34-6.13
			C227.78,282.91,224.7,265.26,221.56,247.67z"/>
		<path class="st1" d="M258.89,87.11c-4.68,7.43-8.55,15.34-11.81,23.49c-5.77,14.44-10.06,29.61-13.57,44.74
			c-2.03,8.74-4.3,17.5-6.12,26.32c-0.27,6.59-0.43,13.18-0.54,19.74c0.25,0.5,0.31,1.12,0.05,1.84
			c-3.44,9.49-0.49,20.27,1.05,29.87c3.38,20.99,7.15,41.78,6.95,63.12c-0.14,14.98-1.31,29.96-1.23,44.92
			c2.1-0.33,4.19-0.68,6.28-1.08c-0.11-10.45-0.02-20.89,0.12-31.34c0.24-18.74,0.64-37.49,0.2-56.23
			c-0.42-17.83-1.63-35.66-4.29-53.3c-0.35-0.45-0.52-1.03-0.54-1.59c-0.01-0.29,0.05-0.59,0.16-0.88
			c-0.05-0.29-0.09-0.58-0.14-0.88c-0.27-1.65,2.03-2.43,2.63-1.14c0.21-0.04,0.43-0.07,0.69-0.09c0.69-0.05,1.37,0.32,1.86,0.77
			c0.02,0.02,0.03,0.04,0.05,0.05c1.47-11.98,3-23.98,5.37-35.82c0.7-3.5,1.48-6.98,2.35-10.43c2.06-11.32,4.59-22.56,7.81-33.6
			c0.32-2.03,0.85-4.02,1.45-5.97c1.02-3.29,2.27-6.52,3.67-9.68c3.29-8.97,7.18-17.74,11.89-26.04
			C269.19,78.04,264.51,82.48,258.89,87.11z"/>
		<path class="st1" d="M217.19,315.44c0.92,9.12,3.43,18.15,3.89,27.33c2.44-0.23,4.88-0.52,7.31-0.84
			c-0.01-0.93-0.01-1.85-0.01-2.78c-0.25-0.23-0.41-0.57-0.4-1.02c0.36-11.71-0.57-23.43-2.43-34.99
			c-2.88-17.88-7.79-35.35-13.37-52.56c-0.58-0.28-1.06-0.81-1.24-1.66c-2.97-13.45-9.73-25.29-15.38-37.71
			c-4.81-10.57-7.65-21.8-10.41-33.03c-1.25-1.89-2.47-3.79-3.67-5.71c-6.33-10.14-12.04-20.79-16.08-32.07
			c-3.34-9.36-5.55-19.44-4.54-29.4c-5.9-2.66-10.94-6.26-14.21-10.97c0.71,7.7,1.62,15.39,2.77,23.04
			c1.55,10.37,3.54,20.66,5.86,30.86c-0.16-1.43-0.32-2.86-0.47-4.28c-1.38-12.65-4.01-25.9-0.36-38.39
			c0.51-1.76,3.27-1.01,2.75,0.76c-2.04,6.97-1.99,14.18-1.32,21.35c1.16,12.54,2.58,25.12,4.41,37.58c0.34,2.32,0.7,4.64,1.1,6.95
			c2.9,10.38,6.1,20.68,9.51,30.92c0.16,0.49,0.06,0.9-0.19,1.2c3.47,12.72,4.53,26.06,7.38,38.91c0.4,1.79-0.91,3.02-2.31,3.25
			c2.74,16.68,5.18,33.39,8.67,49.95c2.89,13.71,6.04,27.38,8.64,41.15c1.36,0.09,2.73,0.15,4.09,0.2
			c-1.72-6.83-3.37-13.68-4.91-20.56c-5.28-23.63-9.36-47.68-10.65-71.89c-0.6,1.02-2.59,0.75-2.69-0.76
			c-0.52-8.39-1.4-16.76-2.6-25.08c-4.24-29.44-11.97-58.23-19.6-86.93c-0.47-1.78,2.28-2.53,2.75-0.76
			c0.28,1.06,0.56,2.12,0.85,3.18c0.75-0.43,1.81-0.27,2.01,0.81c2.14,11.79,4.74,23.5,7.73,35.11
			c4.79,18.62,10.56,36.97,16.91,55.11c-1.62-7.83-3.03-15.7-4.05-23.66c-0.23-1.82,2.62-1.8,2.85,0
			c1.26,9.86,3.14,19.63,5.29,29.34c1.16,5.24,2.41,10.47,3.68,15.68c5.5,14.63,11.31,29.14,17.22,43.6c0.7,1.7-2.06,2.43-2.75,0.76
			c-3.08-7.53-6.13-15.08-9.12-22.65c1.09,4.49,2.15,8.99,3.14,13.51c1.89,8.56,3.65,17.19,4.79,25.88
			c1.16,8.88,1.14,17.87,1.14,26.81c0,1.84-2.85,1.84-2.85,0c0-10.1-0.08-20.18-1.65-30.18c-3.01-19.14-7.97-37.87-12.56-56.68
			c-2.77-7.34-5.45-14.71-8.04-22.12c-0.1,8.36,0.18,16.71,0.79,25.05c2.13,29.27,8.1,58.11,15.29,86.52
			c6.04,0.13,12.09-0.07,18.12-0.55c-0.6-13.11-5.46-25.91-3.96-39.12c0.04-0.36,0.19-0.65,0.4-0.87
			c-0.96-5.25-2.03-10.48-3.19-15.69c-7.02-31.47-17.23-62.08-25.68-93.17c-0.48-1.78,2.27-2.53,2.75-0.76
			c2.39,8.8,4.92,17.57,7.49,26.33c9.08,31.01,18.47,62.03,23.32,94.05C219.57,315.14,218.07,315.91,217.19,315.44z"/>
		<path class="st1" d="M301.16,119.71c8.65-15.33,18.39-30.04,29.16-43.95c-2.07-2.08-3.81-4.32-5.36-6.58
			c-0.91,0.74-1.81,1.48-2.7,2.24c1.11,0.33,1.36,2.29-0.06,2.79c-2.78,0.97-5.31,2.42-7.63,4.18c-2.68,2.59-5.27,5.27-7.77,8.04
			c-0.79,0.88-1.58,1.78-2.35,2.68c-8.1,10.99-13.53,23.75-20.06,35.67c-2.91,5.31-6.45,10.33-9.88,15.4
			c-1.49,2.72-3.06,5.39-4.8,7.97c-0.57,1.25-1.13,2.51-1.65,3.78c-2.66,6.47-4.46,13.21-5.93,20.05
			c-1.13,5.29-2.06,10.61-2.88,15.95c0.03,0.18,0.06,0.36,0.05,0.57c-0.08,7.57-1.7,14.98-2.46,22.48c-0.1,0.96-0.58,1.65-1.21,2.07
			c-0.11,0.74-0.22,1.49-0.34,2.23c-0.28,1.81-3.03,1.04-2.75-0.76c0.07-0.45,0.13-0.9,0.2-1.35c-0.26-0.16-0.5-0.36-0.69-0.63
			c-0.1,1.71-0.19,3.41-0.26,5.12c-1.57,34.45,0.05,69.35-7.91,103.17c-0.15,0.64-0.61,0.96-1.1,1.01c-0.04,5.9-0.05,11.8,0,17.69
			c1.37-0.28,2.73-0.57,4.09-0.87c0.92-5.43,1.88-10.85,2.86-16.27c-0.75-0.13-1.43-0.79-1.19-1.75c1.36-5.32,2.88-10.6,4.5-15.85
			c0.22-1.14,0.45-2.29,0.67-3.43c4.36-21.95,9.36-43.78,15.31-65.36c3.33-12.08,6.98-24.07,10.95-35.96
			c-0.82-0.53-1.31-1.49-0.93-2.75c1.33-4.37,2.12-8.84,2.95-13.33c0.7-3.78,1.65-7.5,2.41-11.27c0.22-1.12,0.44-2.24,0.66-3.36
			c-1.23,2.65-2.43,5.31-3.6,7.98c-0.39,1.62-0.76,3.24-1.09,4.87c-0.16,0.79-0.79,1.09-1.4,1.02c-3.55,8.62-6.74,17.4-9.46,26.32
			c0.54,0.74,0.76,1.74,0.29,2.79c-5.53,12.31-6.1,25.88-7.72,39.07c-0.41,3.33-5.68,3.36-5.27,0c1.64-13.32,2.39-26.71,7.38-39.24
			c2.31-9.26,4.98-18.43,8.02-27.48C279.8,162.17,289.5,140.38,301.16,119.71z"/>
		<path class="st1" d="M426.68,70.61c6.16-8.12,12.34-16.33,18.18-24.79c-1.72,1.93-3.39,3.88-5.04,5.84
			c-4.16,4.95-8.2,9.98-12.28,14.98c-1.04,2.01-2.13,3.99-3.5,5.78c-0.49,0.64-1.19,0.76-1.75,0.55c-2.16,2.57-4.36,5.11-6.61,7.61
			c-9.52,10.55-18.72,21.39-27.36,32.67c-17.24,22.5-32.17,46.73-43.58,72.71c-0.65,1.48-3.17,0.4-2.61-1.1
			c5.13-13.75,11.56-26.99,18.78-39.76c5.9-10.43,12.52-20.4,18.98-30.49c6.05-9.45,12.05-18.93,18.4-28.18
			c4.3-6.26,8.76-12.47,13.51-18.45c-4.57,2.69-11.4,6.64-19.41,10.21c-3.05,6.8-7.57,13.09-11.45,19.27
			c-2.49,3.96-4.78,8.03-7.41,11.9c-2.94,4.34-6.1,8.52-9.39,12.6c-2.41,2.99-4.89,5.91-7.42,8.79c0.3,0.04,0.59,0.14,0.86,0.28
			c3.69-5.07,7.56-10.01,11.73-14.72c1.22-1.38,3.23,0.65,2.02,2.02c-4.41,4.97-8.46,10.23-12.34,15.61
			c-0.1,0.42-0.31,0.85-0.67,1.25c-0.38,0.42-0.76,0.85-1.13,1.28c-2.17,3.07-4.3,6.18-6.4,9.3c-5.59,8.3-11.11,16.63-16.97,24.74
			c-6.04,8.34-11.68,16.96-16.93,25.82c-2.06,3.47-4.04,6.98-5.97,10.52c-0.63,1.71-1.24,3.43-1.8,5.18
			c-0.33,1.01-1.05,1.56-1.86,1.75c-0.8,1.56-1.6,3.13-2.39,4.7c0.12,0.33,0.12,0.72-0.06,1.12c-3.12,6.73-6.25,13.46-9.33,20.21
			c-0.88,1.92-1.75,3.84-2.62,5.76c-0.74,1.87-1.46,3.75-2.17,5.64c-0.15,0.4-0.42,0.66-0.73,0.81
			c-8.82,19.84-17.01,39.98-23.23,60.8c-0.53,1.76-3.28,1-2.75-0.76c2.15-7.18,4.52-14.3,7.08-21.34
			c5.71-15.7,12.3-31.05,19.18-46.26c3.44-8.74,7.22-17.35,11.35-25.79c0.94-1.91,1.9-3.82,2.87-5.72
			c-0.51-0.56-0.75-1.36-0.43-2.33c0.67-2.06,1.39-4.1,2.15-6.11c-2.58,4.93-5.12,9.88-7.61,14.86
			c-9.03,18.07-17.41,36.49-24.33,55.47c-6.78,18.59-12.17,37.75-14.93,57.37c-0.26,1.81-3,1.04-2.75-0.76
			c1.55-11.02,3.93-21.91,6.93-32.62c5.45-19.48,12.83-38.38,21.14-56.8c8.21-18.21,17.37-35.97,26.85-53.55
			c0.47-0.88,1.41-0.85,2.04-0.39c1.69-3.28,3.49-6.5,5.37-9.67c-0.56-0.31-0.93-0.93-0.7-1.61c-1.97,0.22-3.92-2.55-2.23-4.6
			c0.36-0.43,0.72-0.86,1.08-1.28c0.33-2.23,1.94-4.38,3.23-6.06c2.3-2.99,4.94-5.71,7.63-8.34c2.3-2.24,4.67-4.42,7.03-6.59
			c1.34-1.23,2.62-2.51,3.87-3.81c7.72-10.63,15.6-21.15,22.9-32.07c3.33-4.98,6.55-10.06,9.55-15.25c0.83-1.48,1.67-2.96,2.5-4.44
			c2.02-3.69,3.94-7.44,5.7-11.26c-4.36,1.35-8.87,2.42-13.4,3.01c-0.98,1.38-1.96,2.76-2.96,4.12
			c-11.45,15.76-23.83,30.82-35.32,46.55c-10.22,13.99-19.71,28.58-27.11,44.26c0.88,0.72,1.28,1.92,0.44,3.15
			c-5.96,8.68-10.45,18.59-12.73,28.88c-0.38,1.72-1.94,2.17-3.24,1.73c-0.83,3.04-1.58,6.11-2.33,9.17
			c-0.96,3.94-1.83,7.93-2.97,11.83c-1.23,4.21-2.7,8.37-4.12,12.52c-2.76,8.08-5.68,16.11-8.58,24.14
			c-3.96,10.96-7.89,21.95-11.33,33.08c-2.11,10.78-4.07,21.59-5.92,32.41c4.86-1.14,9.68-2.43,14.44-3.86
			c0.38-0.12,0.77-0.23,1.15-0.35c1.72-5.98,4.05-11.79,6.66-17.45c0.33-0.72,0.67-1.43,1-2.15c1.5-3.78,3.19-7.48,4.81-11.11
			c3.95-8.84,7.5-17.84,11.63-26.6c2.04-4.33,4.18-8.62,6.41-12.87c2.38-7.56,4.7-15.32,8.57-22.13c-1.23-0.62-2.1-2.11-1.33-3.7
			c5.55-11.4,11.45-22.62,17.48-33.78c5.02-9.28,8.95-19.51,15.96-27.54c2.24-2.56,5.95,1.18,3.73,3.73
			c-6.86,7.86-10.72,18.28-15.63,27.39c-4.35,8.06-8.63,16.17-12.76,24.35c0.94-0.53,2.05,0.27,2.13,1.2
			c5.19-7.72,10.73-15.2,16.61-22.41c-0.92-0.71-1.35-1.92-0.46-3.16c5.74-7.92,11.16-16.07,16.45-24.29
			c9.17-14.24,18.12-28.61,27.73-42.56c9.82-14.25,20.19-28.11,29.95-42.41c0.81-1.19,2.11-1.39,3.18-1.01
			c1.83-2.35,3.66-4.7,5.5-7.05c-0.39-0.39-0.52-0.97-0.08-1.56C417.53,82.61,422.12,76.62,426.68,70.61z"/>
		<path class="st1" d="M338.51,158.93c-4.43,5.79-8.65,11.75-12.52,17.9c2.54-3.71,5.14-7.39,7.76-11.06
			C335.35,163.51,336.94,161.22,338.51,158.93z"/>
		<path class="st1" d="M277.99,231.65c1.01-3.96,1.94-7.95,2.93-11.92c1.03-4.12,2.13-8.23,3.44-12.26
			c2.58-9.2,6.83-18.1,12.2-25.92c0.21-0.3,0.45-0.54,0.71-0.72c2.61-6.27,6.05-12.17,9.53-17.99c3.97-6.65,7.82-13.3,11.04-20.35
			c3.22-7.06,6.05-14.29,8.91-21.5c4.99-12.56,10.16-25.15,17.4-36.59c-0.9-0.31-1.8-0.65-2.68-1.03c-1.49-0.64-2.87-1.35-4.16-2.11
			c-3.38,1.91-5.56,5.57-7.45,8.82c-2.21,3.8-4.3,7.61-6.68,11.31c-1.34,2.07-2.65,4.16-3.94,6.26c0.02,0.34-0.1,0.7-0.39,1.01
			c-0.22,0.24-0.44,0.47-0.66,0.71c-2.53,4.14-4.98,8.33-7.42,12.53c0.29,0.65,0.29,1.44-0.17,2.25
			c-6.34,11.12-8.73,23.74-13.29,35.58c-1.53,3.98-2.93,8.01-4.27,12.06c0.04,0.21,0.02,0.45-0.08,0.71
			c-0.34,0.87-0.67,1.75-1.01,2.63c-2.54,7.88-4.95,15.8-7.79,23.57c-0.25,0.69-0.69,1.17-1.2,1.46c-0.94,2.8-1.86,5.6-2.76,8.41
			c-6.84,21.32-12.6,42.97-17.58,64.8c-0.67,2.93-1.32,5.86-1.96,8.79c4.51-12.73,9.26-25.38,13.55-38.19
			C275.57,239.87,276.92,235.81,277.99,231.65z"/>
		<path class="st1" d="M243.24,283.82c-0.09,9.36-0.25,18.72-0.36,28.09c1.3-6.77,2.27-13.61,2.98-20.47
			c3.53-34.17,1.05-68.69,5.5-102.79c0.14-1.1,1.26-1.53,2.05-1.29c1.94-12.07,4.93-24.03,6.69-36.11c0.15-1.06,0.77-1.64,1.52-1.83
			c-0.02-0.17,0-0.34,0.06-0.52c5.25-14.72,9.44-30.57,18.36-43.58c8.21-14.5,18.38-27.93,29.93-39.77c0.37-0.38,0.8-0.48,1.2-0.4
			c0.55-0.56,1.1-1.13,1.66-1.69c1.66-1.88,3.38-3.71,5.19-5.46c-1.35-2.08-2.73-3.96-4.32-5.49c-5.76,5.17-11.83,10-17.54,15.23
			c-0.76,1-1.52,2.01-2.26,3.03c-6.24,8.57-11.76,17.65-16.93,26.9c-5.49,9.83-10.74,19.8-14.87,30.29
			c-8.94,22.72-13.63,46.79-17.64,70.79c-0.26,1.59-2.97,1.21-2.8-0.38c0.01-0.12,0.03-0.24,0.04-0.36
			c-0.14-0.01-0.27-0.03-0.39-0.07c-0.12,0.46-0.38,0.91-0.69,1.22c-0.21,0.21-0.45,0.36-0.71,0.48c-0.09,0.07-0.18,0.14-0.29,0.2
			c-0.23,0.14-0.45,0.23-0.67,0.29c1.32,8.97,2.29,18,2.96,27.04C243.31,246.02,243.43,264.93,243.24,283.82z"/>
		<path class="st1" d="M183.45,230.29c-2.33-6.7-4.58-13.43-6.72-20.19c2.03,11.22,3.62,22.5,4.57,33.87
			c-0.13-4.17-0.17-8.35-0.11-12.52C181.21,230.15,182.62,229.77,183.45,230.29z"/>
		<path class="st1" d="M382.56,89.65c1.81-2.81,3.62-5.67,5.22-8.63C385.87,83.79,384.18,86.7,382.56,89.65z"/>
		<path class="st1" d="M418.62,66.32c0.68-0.74,1.36-1.47,2.04-2.21c1.31-1.51,2.63-3.02,3.96-4.51c-1.66,1.21-3.4,2.43-5.22,3.64
			c-0.54,0.63-1.07,1.26-1.6,1.89c-3.59,4.29-7.02,8.71-10.32,13.22c3.03-4.05,6.32-7.91,9.75-11.66
			C417.67,66.22,418.18,66.15,418.62,66.32z"/>
		<path class="st1" d="M230.36,151.61c-0.33-0.19-0.58-0.48-0.65-0.85c-0.22,1.87-0.42,3.74-0.6,5.61
			C229.56,154.8,229.97,153.21,230.36,151.61z"/>
		<path class="st1" d="M230.67,143.2c0.41-2.28,0.9-4.55,1.45-6.8c-0.13-0.02-0.27-0.05-0.39-0.1"/>
		<path class="st1" d="M240.26,108.15c0.53-2.06,1.03-4.12,1.46-6.2c-1.04,3.33-1.92,6.71-2.72,10.12
			C239.41,110.76,239.83,109.45,240.26,108.15z"/>
		<path class="st1" d="M297.66,50.12c-2.01,2.32-3.84,4.82-5.59,7.4c1.58-2.08,3.24-4.1,4.89-6.13
			C297.2,50.96,297.43,50.54,297.66,50.12z"/>
	</g>
	<path class="st1" d="M279.04,329.18c-17.44,5.99-39.64,11.86-57.96,13.58c-12.41,1.16-25.98,0.33-38.56-1.3
		c0.89,15.85,1.36,48.24-4.37,77.29c-6.71,34.02-14,38.8-8.75,46.66c13.3,19.9,69.2,3.06,74.37,1.46
		c13.27-4.11,16.28-7.29,17.5-8.75c12.05-14.36-2.47-36.43-2.92-65.62C258.21,383.18,263.62,364.16,279.04,329.18z"/>
	<path class="st2" d="M466.88,32.32c-13.93-4.28-23.32,16.88-53.95,35c-8.16,4.82-25.29,14.95-43.35,18.26
		c0.95,13-1.35,26.41-4.59,38.92c-3.66,14.17-9.46,27.42-17.35,39.75c-9.07,14.18-19.99,27.05-29.85,40.67
		c-5.18,7.16-9.78,14.55-13.56,22.54c-3.82,8.08-6.91,16.48-9.96,24.88c-5.98,16.48-12.7,32.36-20.98,47.83
		c-8.12,15.16-16.95,30-23.75,45.82c-6.92,16.08-12.12,34.16-11.05,51.8c0.52,8.51,2.61,16.64,5.52,24.61
		c2.64,7.24,5.57,14.54,6.26,22.28c2.24,25.29-34.84,23.38-51.17,21.14c-4.66-0.64-9.1-1.62-12.79-4.71
		c-3.32-2.78-5.3-6.86-6.2-11.04c-2.22-10.28,0.19-21.35,2.63-31.37c2.71-11.13,6.04-21.96,7.93-33.29
		c3.12-18.79,4.02-38.09,0.61-56.91c-3.44-18.98-10.21-37.28-16.16-55.57c-2.9-8.91-5.64-17.79-7.25-27.04
		c-1.59-9.11-2.56-18.33-4.47-27.39c-3.3-15.67-10.07-29.71-20.13-42.15c-9.18-11.35-19.93-21.29-29.42-32.36
		c-9.62-11.22-17.67-24.17-23.28-38.04c-1.77,2.1-3.98,3.83-7.19,5.1c-9.45,3.74-21.25,1.04-26.61-0.18
		c-9.24-2.11-16-5.98-24.24-2.92c-1.36,0.5-5.34,1.99-5.65,4.56c-0.52,4.33,9.72,8.8,12.76,10.21
		c17.12,7.91,18.48,16.53,45.21,37.91c35.68,28.55,42.58,20.64,56.87,39.37c4.56,5.97,9.36,20.02,18.96,48.12
		c13.03,38.13,17.22,60.85,18.96,71.45c1.06,6.47,2.12,12.91,2.92,21.87c1.33,14.93,2.46,42.62-4.37,77.29
		c-6.71,34.02-14,38.8-8.75,46.66c13.3,19.9,69.2,3.06,74.37,1.46c13.27-4.11,16.28-7.29,17.5-8.75
		c12.05-14.36-2.47-36.43-2.92-65.62c-0.15-10.04,1.36-20.66,20.42-62.7c19.64-43.34,31.84-70.26,55.41-106.45
		c37.28-57.23,53.35-61.43,87.49-110.83c13.5-19.53,19.17-30.71,35-40.83c11.14-7.12,21.89-10.25,23.33-18.96
		C481.27,45.09,475.08,34.84,466.88,32.32z"/>
	<path class="st2" d="M466.88,32.32c-13.93-4.28-23.32,16.88-53.95,35c-12.44,7.36-45.78,27.07-71.45,16.04
		c-21.83-9.38-20.51-33.42-36.46-35c-14.98-1.48-19.92,19.37-52.5,43.75c-15.12,11.32-31.28,23.1-53.95,24.79
		c-18.69,1.4-46.37-3.72-53.95-20.42c-5.72-12.59,3.27-24.5-2.92-29.16c-6.5-4.9-22.99,3.32-33.54,13.12
		c-14.93,13.88-12.31,25.69-24.79,30.62c-9.45,3.74-21.25,1.04-26.61-0.18c-9.24-2.11-16-5.98-24.24-2.92
		c-1.36,0.5-5.34,1.99-5.65,4.56c-0.52,4.33,9.72,8.8,12.76,10.21c17.12,7.91,18.48,16.53,45.21,37.91
		c11.32,9.06,19.74,14.44,26.42,18.18c5.71-3.31,11.8-5.98,18.26-7.41c5.5-1.22,11.13-1.58,16.74-1.75
		c6.31-0.19,12.64-0.27,18.9-1.15c7.3-1.02,14.34-3.56,21.26-6.03c6.05-2.15,12.2-4.69,18.53-5.87c6.57-1.22,13.29-1.64,19.94-2.25
		c6.07-0.56,12.14-1.15,18.01-2.88c5.19-1.53,10.12-3.7,14.93-6.16c7.87-4.03,15.61-9.04,24.38-10.88
		c10.37-2.17,19.52,1.17,29.03,5.03c3.9,1.58,7.9,3.2,12.16,3.35c5.48,0.2,10.88-1.46,16.2-2.56c13.1-2.7,25-8.45,37.28-13.5
		c6.58-2.71,13.2-5.35,19.94-7.62c6.41-2.16,12.62-4.03,19.43-3.98c1.18,0.01,2.35,0.07,3.51,0.15c0.64-0.92,1.29-1.84,1.95-2.79
		c13.5-19.53,19.17-30.71,35-40.83c11.14-7.12,21.89-10.25,23.33-18.96C481.27,45.09,475.08,34.84,466.88,32.32z"/>
	<path class="st0" d="M45.2,130.51c-3.33,1.55-8.74,2.71-19.93-1.22c-12.34-4.33-20.07-7.05-22.12-13.37
		c-3.61-11.17,13.15-25.54,22.36-31.35c15.03-9.5,36.17-12.8,45.45-8.51c0.94,0.44,3.62,1.81,7.05,1.46
		c5.49-0.57,9.15-5.2,10.45-6.81c6.82-8.42,20.24-24.99,33.54-30.38c12.84-5.21,30.82-2.13,38.4,7.29
		c4.45,5.52,2.91,10.22,8.02,13.61c5.58,3.7,10.53,0.16,25.03-1.7c16.72-2.14,31.01-0.11,36.94,0.73
		c12.51,1.78,11.84,3.43,16.04,2.67c15.54-2.79,14.39-23.52,32.32-35.48c12.72-8.48,27.56-7.56,43.75-6.56
		c18.95,1.17,19.97,5.98,40.1,8.02c15.67,1.59,27.32-0.08,47.15-2.92c15.64-2.24,25.97-4.82,50.31-7.78
		c16.54-2.01,23.97-2.3,29.89,2.67c8.84,7.43,7.75,21.1,7.53,23.33c-1.05,10.72-7.64,19.13-14.83,23.57
		c-5.57,3.44-13.77,5.9-15.31,3.65c-1.84-2.69,15.11-12.88,12.88-17.98c-0.61-1.39-2.13-1.31-6.08-2.67
		c-10.08-3.49-11.55-7.97-17.01-8.75c-4.36-0.62-8.49,1.51-15.8,7.53c-14.24,11.73-16.61,18.48-24.55,25.76
		c-13.95,12.8-31.64,14.91-51.28,17.26c-15.44,1.84-23.17,2.76-29.65-0.97c-10.5-6.05-10.48-16.51-26.73-28.68
		c-8.81-6.59-12.57-6.33-14.1-6.08c-7.36,1.23-9,10.12-16.28,20.9c-8.11,12.01-17.62,18.08-35.73,29.65
		c-10.02,6.4-18.31,11.7-30.38,15.8c-12.51,4.25-42.39,14.4-62.7-1.22c-7.34-5.64-17.84-18.03-16.04-30.38
		c1.27-8.68,8.2-14.48,5.35-19.2c-2.5-4.14-10.13-3.44-10.45-3.4c-5.62,0.59-10.37,4.34-17.99,14.83
		c-12.87,17.71-9.52,21.03-16.53,26.73c-9.5,7.73-26.85,10.75-39.37,5.1c-6.81-3.07-12.32-8.76-18.47-6.56
		c-1.85,0.66-4.59,2.34-4.62,4.37c-0.06,5.31,18.34,7.53,18.23,12.64C50.02,128.28,46.75,129.79,45.2,130.51z"/>
	<path class="st3" d="M455,41.98c0.27-0.02,0.53-0.03,0.79-0.03c-0.26-0.75-0.49-1.5-0.7-2.26c-0.03-0.11-0.06-0.23-0.09-0.34V41.98
		z"/>
	<path class="st3" d="M271,82.73c-0.06-0.02-0.11-0.04-0.17-0.06c0.79,0.75,1.61,1.45,2.47,2.09c0.13-0.14,0.25-0.29,0.38-0.44
		C272.78,83.86,271.89,83.3,271,82.73z"/>
	<path class="st3" d="M489.97,20.9c-5.92-4.98-13.36-4.68-29.89-2.67c-24.34,2.96-34.67,5.54-50.31,7.78
		c-19.83,2.84-31.48,4.51-47.15,2.92c-20.14-2.04-21.15-6.85-40.1-8.02c-16.19-1-31.03-1.92-43.75,6.56
		c-12.58,8.39-15.77,21.08-21.91,28.88c1.64,3.86,3.15,7.83,4.85,11.69c7.35-0.64,14.47,1.86,21.77,1.86
		c3.8-6.98,6.11-12.11,11.57-13.02c1.53-0.26,5.29-0.51,14.1,6.08c16.25,12.16,16.24,22.63,26.73,28.68
		c6.48,3.73,14.21,2.81,29.65,0.97c19.64-2.34,37.34-4.45,51.28-17.26c7.93-7.28,10.3-14.03,24.55-25.76
		c1.88-1.55,3.55-2.84,5.07-3.89c-0.72-0.76-1.09-1.89-0.55-3.09c1.88-4.21,3.67-8.19,3.33-12.9c-0.16-2.21,2.31-2.99,3.96-2.28
		c3.41,1.47,5.14,4.59,6.2,7.99c1.04,3.33,1.43,6.99,4.34,9.28c0.44,0.35,0.7,0.74,0.83,1.14c2.21,1.56,5.02,3.36,9.63,4.95
		c1.95,0.67,3.3,1,4.25,1.32c3.26-1.14,6.14-3.09,8.98-5.19c2.46-1.83,5.25,2.1,3.19,4.14c-3.31,3.27-6.96,6.23-11.68,7
		c-3.74,5.14-12.93,11.38-11.55,13.4c1.54,2.25,9.74-0.2,15.31-3.65c7.19-4.44,13.77-12.86,14.83-23.57
		C497.72,42,498.81,28.33,489.97,20.9z"/>
	<path class="st3" d="M71.88,76.48c-0.38-0.17-0.69-0.32-0.91-0.42c-9.27-4.29-30.42-0.99-45.45,8.51
		c-9.2,5.82-25.97,20.18-22.36,31.35c2.04,6.32,9.78,9.04,22.12,13.37c11.19,3.93,16.6,2.76,19.93,1.22
		c1.54-0.72,4.81-2.23,4.86-4.37c0.09-4.24-12.57-6.5-16.84-10.18c-0.53-0.07-1.06-0.12-1.59-0.14c-2.4,0.57-4.89,0.59-7.38,0.23
		c-2.39-0.02-4.72-0.39-6.93-1.87c-2.21-1.48-1.09-5.31,1.47-4.95c0.2-1.05,1.04-1.97,2.49-2.06c8.07-0.53,16.16-1.03,24.24-1.05
		c2.94-0.01,3.33,3.93,1.18,5c2.6,1.45,5.29,3.25,8.21,4.57c2.02,0.91,4.16,1.59,6.37,2.07C56.5,104.75,63.92,87.56,71.88,76.48z"/>
	<path class="st3" d="M129.1,69c2.49-2.64,5.64-4.55,8.9-6.28c1.2-0.67,2.43-1.31,3.66-1.92c1.09-0.57,2.16-1.15,3.19-1.75
		c0.45-0.26,0.88-0.39,1.28-0.4c1.66-0.83,3.35-1.61,5.07-2.32c1.03-0.49,2.1-0.91,3.23-1.23c0.37-0.1,0.71-0.13,1.02-0.1
		c1.87-2.17,3.69-4.38,5.52-6.58c-0.18-0.26-0.38-0.51-0.58-0.77c-7.58-9.42-25.56-12.5-38.4-7.29
		c-13.3,5.39-26.72,21.96-33.54,30.38c-1.3,1.61-4.96,6.24-10.45,6.81c-0.16,0.02-0.31,0.02-0.46,0.03
		c-0.07,0.12-0.14,0.24-0.23,0.37c-7.48,9.94-17.09,28.65-9.92,40.61c9.92,0.5,20.3-2.59,26.9-7.96c7-5.7,3.66-9.02,16.53-26.73
		c7.62-10.48,12.36-14.24,17.99-14.83C128.84,69.02,128.95,69.01,129.1,69z"/>
	<path class="st3" d="M264.03,82.91c-5.1-6.71-7.96-14.85-11.2-22.64c-1.8,1.28-3.87,2.21-6.39,2.67c-4.2,0.75-3.53-0.9-16.04-2.67
		c-5.94-0.84-20.23-2.87-36.94-0.73c-14.5,1.86-19.45,5.4-25.03,1.7c-3.18-2.11-3.79-4.73-4.86-7.73c-3.59,4.3-7.2,8.58-11.21,12.47
		c-0.06,0.48-0.24,0.96-0.61,1.41c-4.84,5.91-10.03,12.03-13.45,18.96c-0.38,1.09-0.83,2.15-1.42,3.17
		c-0.61,1.05-1.75,1.36-2.79,1.16c-0.06,0.31-0.12,0.62-0.17,0.94c-1.8,12.35,8.7,24.74,16.04,30.38
		c20.32,15.62,50.19,5.47,62.7,1.22c12.07-4.1,20.36-9.4,30.38-15.8c11.87-7.58,20.04-12.8,26.54-18.88
		C267.56,86.96,265.69,85.1,264.03,82.91z"/>
	<path class="st4" d="M38.77,92.39c4.33,1.37,8.68,0.92,12.63-1.32c4.23-2.4,8.27-5.76,11.79-9.1c2.18-2.07,3.9-4.29,5-6.87
		c-10.25-2.68-28.99,0.83-42.68,9.48c-0.04,0.02-0.07,0.05-0.11,0.07C29.55,87.65,33.86,90.83,38.77,92.39z"/>
	<path class="st4" d="M81.16,77.55c-1.7,2.72-3.88,7-2.74,10.31c1.11,3.23,6.1,2.03,8.35,0.84c2.86-1.52,4.94-4.2,6.65-6.88
		c2.04-3.2,3.67-6.65,5.29-10.08c1.55-3.29,3.05-6.63,4.92-9.75c1.92-3.19,4.29-5.66,7.32-7.83c8.47-6.08,18.95-8.17,28.08-12.97
		c1.42-0.75,2.84-1.6,4-2.7c-7-1.26-14.64-0.72-21.02,1.87c-13.3,5.39-26.72,21.96-33.54,30.38c-1.02,1.25-3.47,4.35-7.1,5.92
		C81.41,76.92,81.35,77.23,81.16,77.55z"/>
	<path class="st4" d="M234.05,74.56c-11.17,0.19-22.3,1.26-33.45,1.81c-5.67,0.28-11.3,0.42-16.97,0.15
		c-4.81-0.22-9.6-0.61-14.4-0.95c-6.11,5.27-11.21,15.54-4.57,22.35c2.98,3.05,7.34,4.41,11.49,4.88c4.9,0.55,9.88,0.34,14.78-0.03
		c5.06-0.38,10.11-1.01,15.13-1.76c3.34-0.5,6.7-0.94,9.95-1.87c7.81-2.24,15.44-5.7,22.37-9.93c3.44-2.1,6.8-4.47,9.54-7.46
		c1.67-1.82,3.18-4.02,3.43-6.5C245.61,74.6,239.82,74.46,234.05,74.56z"/>
	<path class="st4" d="M192.79,60.19c3.45,0.97,7.05,1.31,10.61,1.45c4.2,0.17,8.34-0.01,12.45-1.01c1.67-0.41,3.31-0.91,4.92-1.5
		c-7.13-0.63-16.74-0.94-27.33,0.41c-0.66,0.08-1.29,0.17-1.91,0.26C191.97,59.95,192.38,60.07,192.79,60.19z"/>
	<path class="st4" d="M410.48,41.03c-8.22,3.88-15.78,8.98-23.75,13.32c-5.54,3.01-11.78,6.31-18.27,5.46
		c-7.03-0.92-13.87-2.96-20.96-3.56c-5.1-0.43-13.64-0.65-13.97,6.3c-0.04,0.77-0.57,1.22-1.16,1.34c2.02,3.79,7.78,7.11,10.79,8.69
		c3.12,1.64,6.41,3.05,9.82,3.99c3.08,0.85,6.35,0.72,9.72,0.71c5.09-0.01,10.18-0.25,15.24-0.8c4.8-0.52,9.69-1.28,14.25-2.92
		c8.91-3.21,14.71-11.33,20.18-18.58c2.8-3.72,5.68-7.43,9.18-10.54c2.99-2.65,6.35-4.74,10.03-6.22
		C424.97,35.01,416.69,38.1,410.48,41.03z"/>
	<path class="st4" d="M489.97,20.9c-3.03-2.54-6.45-3.71-11.28-3.97c-3.87,0.97-7.65,2.39-11.23,4.08
		c-0.57,0.27-1.12,0.15-1.52-0.15c-0.23,0.9,0.29,1.83,1.15,2.67c2.23,2.21,5.48,3.48,8.36,4.62c2.76,1.09,5.63,1.93,8.35,3.14
		c3.65,1.62,7.35,3.96,8.85,7.83c1.41,3.62,0.72,7.75,0.2,11.54c1.09,0.23,2.17,0.32,3.22,0.29c0.71-2.11,1.21-4.35,1.44-6.71
		C497.72,42,498.81,28.33,489.97,20.9z"/>
</g>
</svg>
