<?xml version="1.0" encoding="utf-8"?>
<!-- Generator: Adobe Illustrator 23.0.1, SVG Export Plug-In . SVG Version: 6.00 Build 0)  -->
<svg version="1.1" id="Layer_1" xmlns="http://www.w3.org/2000/svg" xmlns:xlink="http://www.w3.org/1999/xlink" x="0px" y="0px"
	 viewBox="0 0 500 500" style="enable-background:new 0 0 500 500;" xml:space="preserve">
<style type="text/css">
	.st0{fill:#726561;}
	.st1{fill:#E8FE78;}
	.st2{fill:#EEF9BD;}
	.st3{fill:#FCF5DE;}
	.st4{fill:#849934;}
	.st5{fill:#899A4B;}
	.st6{fill:#96877E;}
	.st7{fill:#FFFFFF;}
	.st8{fill:#F8F9B2;}
	.st9{fill:#B0D14B;}
	.st10{fill:#84B439;}
	.st11{fill:#688F2B;}
	.st12{fill:#546F1B;}
</style>
<g>
	<path class="st0" d="M491.47,473.39c0.31-0.7-0.7-1.27-4.7-2.49c-12.8-3.88-14.38-11.33-20.72,0.53c-5.89,11-1.39,6.28,6.67,19.64
		c2.88,4.77,3.68,5.27,4.3,4.45c0.89-1.17-4.5-7.67-2.6-10.4c2.45-3.53,9.63,2.36,10.22,1.37c0.56-0.95-6.52-6.52-4.44-10.73
		C482.43,471.22,491.01,474.44,491.47,473.39z"/>
	<g>
		
			<ellipse transform="matrix(0.7071 -0.7071 0.7071 0.7071 -185.9685 430.084)" class="st1" cx="426.17" cy="439.53" rx="56.63" ry="56.63"/>
		<path class="st2" d="M422.21,464.36c-13.04-28.41,32.28-70.96,48.37-37.65C484.53,455.62,437.56,497.81,422.21,464.36z"/>
		
			<ellipse transform="matrix(1 -6.422258e-03 6.422258e-03 1 -2.7415 2.7697)" class="st3" cx="429.89" cy="428.25" rx="12.08" ry="12.08"/>
	</g>
</g>
<g>
	
		<ellipse transform="matrix(0.7071 -0.7071 0.7071 0.7071 -219.2091 356.1816)" class="st1" cx="320.34" cy="442.7" rx="42.18" ry="42.18"/>
	
		<ellipse transform="matrix(0.9934 -0.1146 0.1146 0.9934 -49.9792 38.3287)" class="st2" cx="308.45" cy="453.96" rx="18.25" ry="18.17"/>
</g>
<g>
	
		<ellipse transform="matrix(0.3953 -0.9186 0.9186 0.3953 -112.977 339.0223)" class="st1" cx="200.99" cy="255.32" rx="59.54" ry="59.54"/>
</g>
<g>
	
		<ellipse transform="matrix(0.2919 -0.9564 0.9564 0.2919 -126.3933 505.4423)" class="st1" cx="278.17" cy="338.08" rx="51.73" ry="51.73"/>
</g>
<path class="st4" d="M388.25,438.03c-53.51-50.05-122.39-83.35-194.89-94.08l1.49-10.06c77.39,11.45,150.76,47.93,206.61,102.71
	C402.81,437.92,387.89,438.56,388.25,438.03z"/>
<g>
	<path class="st5" d="M64.06,348.75c7.4-0.06,23.91-3.01,31.57-3.04c7.7,0.05,77.31-1.17,107.28-4.53
		c29.96-3.38,55.1-2.76,84.82-7.34c29.72-4.6,59.35-9.68,88.82-15.45c-29.85,3.3-58.05,1.15-87.96,3.27
		c-29.91,2.09-58.42,6.28-88.31,7.17c-29.88,0.86-62.9,3.29-92.45,1.95c-7.38-0.38-44.12-0.66-44.12-0.66
		c-15.19-1.4-47.71-1.13-47.71-1.13c-8.58,0.6-9.34,4.47-8.73,13.05c0.6,8.58,2.43,12.58,11.02,11.98
		C18.83,353.98,49.31,348.87,64.06,348.75z"/>
</g>
<g>
	<path class="st6" d="M462.43,334.64c-0.4-0.7-5.42,1.39-16.69,6.74c-13.71,6.51-15.89,7.97-15.75,9.64
		c0.08,1.02,1.01,1.9,12.78,6.36c10.3,3.9,13.26,4.61,13.69,3.84c0.64-1.14-5.09-4.21-4.39-6.72c0.96-3.48,13.33-2.68,13.4-3.95
		c0.07-1.24-11.64-1.29-12.64-5.17C451.79,341.35,463.04,335.71,462.43,334.64z"/>
	<g>
		
			<ellipse transform="matrix(0.9982 -0.0604 0.0604 0.9982 -20.9135 23.2583)" class="st1" cx="374.45" cy="357.73" rx="67.31" ry="67.31"/>
		<path class="st2" d="M324.51,370c-21.44-29.24,33.42-83.68,59.63-49.52C406.88,350.1,349.75,404.41,324.51,370z"/>
		<path class="st7" d="M353.02,352.07c7.88-0.91,13.53-8.03,12.62-15.91c-0.91-7.88-8.03-13.53-15.91-12.62
			c-7.88,0.91-13.53,8.03-12.62,15.91C338.02,347.33,345.14,352.98,353.02,352.07z"/>
	</g>
</g>
<g>
	<path class="st4" d="M210,379.23c-5.81-13.94-14.81-26.65-26.03-36.76c-0.3-0.27-1.17-1.43-1.8-2.27
		c-2.81-3.75-4.51-5.86-6.83-5.72c-1.09,0.07-2.04,0.66-2.6,1.64l4.67,2.68c-0.28,0.49-0.79,0.86-1.36,1
		c-0.68,0.16-1.2-0.04-1.34-0.13c0.64,0.42,2.27,2.59,3.15,3.76c1.12,1.5,1.84,2.45,2.5,3.04c10.63,9.58,19.16,21.62,24.66,34.83
		L210,379.23z"/>
</g>
<g>
	<g>
		
			<ellipse transform="matrix(0.7071 -0.7071 0.7071 0.7071 -199.6742 252.107)" class="st1" cx="204.48" cy="367.08" rx="67.31" ry="67.31"/>
		<path class="st2" d="M154.55,379.35c-21.44-29.24,33.42-83.68,59.63-49.52C236.91,359.45,179.79,413.76,154.55,379.35z"/>
		
			<ellipse transform="matrix(0.0389 -0.9992 0.9992 0.0389 -172.5377 514.93)" class="st3" cx="181.41" cy="347.16" rx="14.36" ry="14.36"/>
	</g>
	<path class="st6" d="M271.3,422.64c0.39-0.77-1.06-1.74-6.72-4.31c-18.13-8.23-20.78-17.72-28.93-5.03
		c-7.55,11.77-1.56,7.26,10.52,25.72c4.31,6.58,5.46,7.41,6.27,6.59c1.17-1.19-6.75-10.56-4.28-13.36
		c3.21-3.63,13.61,5.5,14.36,4.46c0.72-1-9.51-9.71-6.86-14.27C258.52,417.54,270.71,423.79,271.3,422.64z"/>
</g>
<g>
	<g>
		
			<ellipse transform="matrix(0.2351 -0.972 0.972 0.2351 -54.7423 483.1131)" class="st1" cx="279.59" cy="276.34" rx="63.72" ry="63.72"/>
		<path class="st8" d="M224.64,281.04c-18.89-35.24,49.43-86.2,72.77-44.86C317.66,272.05,246.88,322.52,224.64,281.04z"/>
		<circle class="st7" cx="260.74" cy="248.59" r="13.59"/>
	</g>
	<path class="st6" d="M359.22,253.73c-0.23-0.6-1.5-0.29-5.78,1.56c-13.69,5.92-20.3,2.62-17.36,13.53
		c2.73,10.12,3.24,4.53,19.57,7.11c5.83,0.92,6.86,0.7,6.82-0.17c-0.07-1.25-9.26-1.57-9.57-4.35c-0.4-3.61,9.91-4.78,9.71-5.72
		c-0.19-0.91-10.18,0.39-11.38-3.38C349.96,258.25,359.57,254.63,359.22,253.73z"/>
</g>
<g>
	<g>
		<path class="st9" d="M23.1,332.99c9.75-18.85,16.83-31.44,24.42-38.95c3.78-3.74,17.04-20.54,16.46-29.6
			c-0.18-2.8-1.12-5.24-3.47-9.24c-6.25-10.61-12.65-15.55-18.13-21.4c-9.35-9.98-13.63-20.07-18.76-32.17
			c-4.86-11.45-1.36-7.39-6.83-22.7c-1.09-3.06-3.02-8.22-0.91-13.14c0.33-0.78,1.67-3.91,3.75-4.05c3.1-0.21,4.59,6.43,7.95,6.31
			c1.7-0.06,3.25-1.84,3.82-3.45c1.48-4.21-3.25-8.74-6.33-13.12c-8.62-12.25-9.27-30.2-4.43-33.22c4.48-2.79,13.41,7.42,16.8,4.69
			c2.5-2.01-1.26-8.41-3.06-21.33c-1.25-8.97-2.64-18.98,1.69-21.88c4.94-3.3,15.64,3.75,21.51,8.96
			c14.33,12.74,19.2,31.72,19.88,31.44c0.41-0.17-2.92-6.41-0.91-13.14c0.4-1.36,1.61-5.4,4.14-5.9c4.57-0.9,10.37,10.42,11.75,13.1
			c4.12,8.03,4.41,13.24,5.74,13.19c1.91-0.07,1.76-10.77,5.44-25.92c4.1-16.86,9.45-24.8,15.87-29.53
			c1.94-1.43,5.21-3.79,7.52-2.67c5.12,2.46,0.72,19.59,2.92,20.14c1.38,0.34,3.44-6.31,8-14.17c4.14-7.13,12.11-20.87,21.72-20.57
			c4.21,0.13,8.7,2.95,10.4,6.63c2,4.33-0.5,8.51,0.43,8.98c1.94,0.99,9.29-18.97,26.23-33.74c10.96-9.56,14.5-6.98,30.25-19.75
			C240.27,6,242.71,0.13,246.26,1.32c5.3,1.77,4.84,22.34,3.69,63.42c-0.28,9.96-0.42,14.94-0.53,16.32
			c-1.49,18.49-5.27,27.37-1.33,30.27c4.02,2.95,11.24-3.87,14.33-1.05c4.14,3.77-4.65,19.75-5.4,21.1
			c-9.23,16.56-21.25,23.38-18.98,28.69c1.52,3.56,7.65,2.22,8.41,5.05c1.09,4.07-10.58,10.21-32.74,24.25
			c-15.47,9.8-22.3,14.75-21.33,18.72c0.49,1.99,2.83,3.31,4.64,3.68c4.88,1.01,7.94-4.36,15.68-10.24
			c11.75-8.91,22.93-10.36,30.61-11.36c6.79-0.88,8.14,0.05,8.53,0.82c1.72,3.46-11.75,11.95-10.38,14.45
			c0.88,1.6,7.47-0.01,31.16-6.6c10.67-2.97,16.5-4.64,18.43-2.12c1.5,1.95-0.13,5.46-1.94,9.26
			c-9.03,18.91-26.32,27.73-26.32,27.73c-2.03,1.04-7.04,3.43-6.72,4.39c0.34,1.05,6.49-1.31,9.19,1.35
			c2.72,2.68,0.53,8.72,0.43,8.98c-1.66,4.44-5.33,7.12-13.17,11.15c-12.69,6.54-23.12,9.82-22.82,11.06
			c0.24,0.99,6.99-1.1,8.6,1.42c1.74,2.73-3.31,9.74-8.6,14.24c-9.08,7.74-20.44,9.43-27.11,10.35c-8.78,1.21-17.15,0.84-17.24,1.99
			c-0.08,1.03,6.65,1.46,7.09,4c0.44,2.6-5.98,5.7-7.11,6.24c-5.88,2.84-16.73,6.05-40.17,1.62c-16.58-3.14-24.87-4.7-33.08-10.04
			c-23.55-15.3-31.02-23.53-31.02-23.53c-1.11-1.23-4.08-4.58-7.09-4c-3.17,0.61-4.31,5.22-6.11,9.74
			c-4.95,12.46-9.94,11.77-19.57,28.76c-1.68,2.96-9.21,16.75-11.8,23.04L23.1,332.99z"/>
		<path class="st10" d="M145.25,311.08c23.44,4.43,34.28,1.22,40.17-1.62c1.13-0.54,7.55-3.64,7.11-6.24
			c-0.43-2.54-7.16-2.97-7.09-4c0.08-1.15,8.45-0.78,17.24-1.99c6.68-0.92,18.03-2.62,27.11-10.35c5.29-4.5,10.34-11.51,8.6-14.24
			c-1.6-2.52-8.35-0.42-8.6-1.42c-0.3-1.24,10.12-4.53,22.82-11.06c7.84-4.03,11.51-6.72,13.17-11.15c0.1-0.26,2.29-6.3-0.43-8.98
			c-2.7-2.66-8.85-0.3-9.19-1.35c-0.31-0.96,4.69-3.35,6.72-4.39c0,0,17.28-8.82,26.32-27.73c1.82-3.8,3.44-7.3,1.94-9.26
			c-1.92-2.51-7.76-0.84-18.43,2.12c-23.69,6.59-30.28,8.21-31.16,6.6c-1.37-2.5,12.1-10.98,10.38-14.45
			c-0.39-0.78-1.74-1.7-8.53-0.82c-7.68,0.99-18.86,2.44-30.61,11.36c-7.74,5.88-10.8,11.25-15.68,10.24
			c-1.81-0.38-4.15-1.69-4.64-3.68c-0.97-3.97,5.86-8.91,21.33-18.72c22.16-14.04,33.83-20.18,32.74-24.25
			c-0.76-2.84-6.89-1.5-8.41-5.05c-2.27-5.31,9.74-12.13,18.98-28.69c0.75-1.35,9.54-17.33,5.4-21.1c-3.09-2.82-10.31,4-14.33,1.05
			c-3.94-2.9-0.16-11.78,1.33-30.27c0.11-1.38,0.25-6.36,0.53-16.32c1.14-41.08,1.61-61.65-3.69-63.42
			c-3.55-1.18-5.99,4.68-19.3,15.47c-15.75,12.77-19.29,10.19-30.25,19.75c-16.94,14.77-24.29,34.72-26.23,33.74
			c-0.93-0.47,1.56-4.66-0.43-8.98c-1.7-3.68-6.19-6.5-10.4-6.63c-9.61-0.3-17.58,13.44-21.72,20.57c-4.56,7.86-6.62,14.52-8,14.17
			c-2.21-0.55,2.19-17.68-2.92-20.14c-2.31-1.11-5.58,1.24-7.52,2.67c-6.42,4.74-11.77,12.68-15.87,29.53
			c-3.69,15.15-3.54,25.85-5.44,25.92c-1.33,0.05-1.62-5.16-5.74-13.19c-1.38-2.68-7.18-14-11.75-13.1c-2.53,0.5-3.73,4.54-4.14,5.9
			c-2.01,6.74,1.33,12.97,0.91,13.14c-0.69,0.28-5.55-18.7-19.88-31.44c-5.87-5.22-16.57-12.26-21.51-8.96
			c-4.34,2.9-2.94,12.9-1.69,21.88c1.8,12.92,5.56,19.32,3.06,21.33c-3.4,2.73-12.32-7.48-16.8-4.69
			c-4.84,3.01-4.19,20.97,4.43,33.22c3.08,4.38,7.81,8.91,6.33,13.12c-0.57,1.61-2.11,3.39-3.82,3.45
			c-3.36,0.12-4.86-6.52-7.95-6.31c-2.08,0.14-3.42,3.26-3.75,4.05c-2.11,4.93-0.18,10.08,0.91,13.14
			c5.48,15.31,1.97,11.26,6.83,22.7c5.13,12.09,9.42,22.18,18.76,32.17c5.48,5.85,11.88,10.79,18.13,21.4
			c2.35,4,3.29,6.44,3.47,9.24c0.58,9.06-12.68,25.86-16.46,29.6c-7.59,7.51-14.67,20.11-24.42,38.95l13.42,1.46
			c2.59-6.3,10.12-20.08,11.8-23.04c9.63-16.99,14.62-16.3,19.57-28.76c1.79-4.51,2.93-9.12,6.11-9.74c3-0.58,5.97,2.77,7.09,4
			c0,0,7.47,8.22,31.02,23.53C120.38,306.38,128.67,307.95,145.25,311.08z M148.66,145c-0.82-0.46-1.46-1.14-1.96-1.93
			c-0.8-0.37-1.56-0.97-2.25-1.87c-3.06-4.01-1.12-9.96,0.66-14.24c0.01-0.02,0.01-0.05,0.02-0.07c0.83-2.85,1.47-5.75,2.79-8.43
			c0.58-1.17,1.32-2.39,2.25-3.34c2.01-3.79,5.36-7.24,9.44-7.82c8.09-1.15,7.6,9.77,6.16,14.71c-1.33,4.53-3.57,8.65-5.57,12.9
			c-1.24,2.63-2.4,5.37-4.29,7.63C154.15,144.67,151.42,146.57,148.66,145z M97.1,162.66c1.49-4.86,4.32-10.27,8.22-13.73
			c0.89-2.74,2.34-5.31,4.9-6.81c3.08-1.8,6.89-1.14,9.56,1.13c4.1,3.47,3.72,10.09,2.93,14.84c-1.57,9.43-6.26,23.53-17.03,25.97
			C94,186.72,95.1,169.22,97.1,162.66z M49.23,195.96c-1.65-5.37-2.36-15.19,4.34-17.55c0.73-0.26,1.41-0.23,1.99-0.02
			c2.23-0.96,5.68,0.68,7.17,2.68c2.56,3.44,2.36,7.96,2.67,12.02c1.8,4.52,2.34,9.71-3.24,11.69
			C55.71,207.07,50.96,201.59,49.23,195.96z"/>
		<path class="st11" d="M145.25,311.08c23.44,4.43,34.28,1.22,40.17-1.62c1.13-0.54,7.55-3.64,7.11-6.24
			c-0.43-2.54-7.16-2.97-7.09-4c0.08-1.15,8.45-0.78,17.24-1.99c6.68-0.92,18.03-2.62,27.11-10.35c5.29-4.5,10.34-11.51,8.6-14.24
			c-1.6-2.52-8.35-0.42-8.6-1.42c-0.3-1.24,10.12-4.53,22.82-11.06c7.84-4.03,11.51-6.72,13.17-11.15c0.1-0.26,2.29-6.3-0.43-8.98
			c-2.7-2.66-8.85-0.3-9.19-1.35c-0.31-0.96,4.69-3.35,6.72-4.39c0,0,17.28-8.82,26.32-27.73c1.82-3.8,3.44-7.3,1.94-9.26
			c-1.92-2.51-7.76-0.84-18.43,2.12c-23.69,6.59-30.28,8.21-31.16,6.6c-1.37-2.5,12.1-10.98,10.38-14.45
			c-0.39-0.78-1.74-1.7-8.53-0.82c-7.68,0.99-18.86,2.44-30.61,11.36c-7.74,5.88-10.8,11.25-15.68,10.24
			c-1.81-0.38-4.15-1.69-4.64-3.68c-0.97-3.97,5.86-8.91,21.33-18.72c22.16-14.04,33.83-20.18,32.74-24.25
			c-0.76-2.84-6.89-1.5-8.41-5.05c-2.27-5.31,9.74-12.13,18.98-28.69c0.75-1.35,9.54-17.33,5.4-21.1c-3.09-2.82-10.31,4-14.33,1.05
			c-3.94-2.9-0.16-11.78,1.33-30.27c0.11-1.38,0.25-6.36,0.53-16.32c1.14-41.08,1.61-61.65-3.69-63.42
			c-3.55-1.18-5.99,4.68-19.3,15.47c-15.75,12.77-19.29,10.19-30.25,19.75c-16.94,14.77-24.29,34.72-26.23,33.74
			c-0.93-0.47,1.56-4.66-0.43-8.98c-1.7-3.68-6.19-6.5-10.4-6.63c-9.61-0.3-17.58,13.44-21.72,20.57c-4.56,7.86-6.62,14.52-8,14.17
			c-2.21-0.55,2.19-17.68-2.92-20.14c-2.31-1.11-5.58,1.24-7.52,2.67c-6.42,4.74-11.77,12.68-15.87,29.53
			c-3.69,15.15-3.54,25.85-5.44,25.92c-1.33,0.05-1.62-5.16-5.74-13.19c-1.38-2.68-7.18-14-11.75-13.1c-2.53,0.5-3.73,4.54-4.14,5.9
			c-2.01,6.74,1.33,12.97,0.91,13.14c-0.69,0.28-5.55-18.7-19.88-31.44c-5.87-5.22-16.57-12.26-21.51-8.96
			c-4.34,2.9-2.94,12.9-1.69,21.88c1.8,12.92,5.56,19.32,3.06,21.33c-3.4,2.73-12.32-7.48-16.8-4.69
			c-4.84,3.01-4.19,20.97,4.43,33.22c3.08,4.38,7.81,8.91,6.33,13.12c-0.57,1.61-2.11,3.39-3.82,3.45
			c-3.36,0.12-4.86-6.52-7.95-6.31c-2.08,0.14-3.42,3.26-3.75,4.05c-2.11,4.93-0.18,10.08,0.91,13.14
			c5.48,15.31,1.97,11.26,6.83,22.7c5.13,12.09,9.42,22.18,18.76,32.17c5.48,5.85,11.88,10.79,18.13,21.4
			c2.35,4,3.29,6.44,3.47,9.24c0.58,9.06-12.68,25.86-16.46,29.6c-7.59,7.51-14.67,20.11-24.42,38.95l13.42,1.46
			c2.59-6.3,10.12-20.08,11.8-23.04c9.63-16.99,14.62-16.3,19.57-28.76c1.79-4.51,2.93-9.12,6.11-9.74c3-0.58,5.97,2.77,7.09,4
			c0,0,7.47,8.22,31.02,23.53C120.38,306.38,128.67,307.95,145.25,311.08z M70.77,246.26c-5.75-2.7-10.68-6.58-14.45-11.71
			c-3.63-4.94-6.16-10.63-10.18-15.29c-4.55-5.29-8.63-10.14-10.89-16.89c-1.85-5.54-3.02-11.71-3.1-17.57
			c-0.07-5.21,0.73-10.84,4.41-14.82c2.08-2.25,4.71-3.56,7.71-4.11c3.66-0.66,7.5-0.01,10.98-1.5c0.2-0.09,0.42-0.14,0.65-0.18
			c0.62-0.86,1.66-1.34,2.66-1.37c0.71-6.09-3.78-13.37-5.66-18.48c-1.45-3.95-2.37-8.19-2.69-12.38c-0.31-4.1-0.43-9.13,1.38-12.94
			c3.63-7.63,12.93,1.75,15.99,5.01c3.32,3.52,6.51,7.4,9.29,11.37c1.42,2.02,2.69,4.15,4.14,6.14c1.45,1.99,3.29,3.59,4.8,5.52
			c1.32,1.68,2.18,3.56,2.83,5.58c0.3,0.92,0.58,1.84,0.89,2.75c0.45-0.64,1.12-1.3,1.44-1.96c0.49-1,0.88-2.06,1.27-3.1
			c0.78-2.12,1.45-4.27,2.51-6.27c0.67-1.28,1.78-1.84,3.2-1.75c0.13-0.02,0.25-0.06,0.38-0.08c7.03-12.1,10.58-26.38,19.95-37.06
			c2.62-2.99,8.43-7.65,12.15-3.81c3.13,3.24,3.56,8.17,5.31,12.12c0.33,0.75,0.78,1.92,1.5,2.39c0.11,0.07,0.15,0.12,0.17,0.17
			c0.03-0.04,0.09-0.1,0.21-0.18c1.77-1.16,3.07-4.64,4.02-6.42c0.98-1.84,1.9-3.81,3.16-5.48c2-2.64,4.83-4.24,7.68-5.79
			c6.85-3.71,12.94-8.49,18.62-13.81c3.1-2.9,5.25-6.18,7.75-9.58c2.51-3.41,5.33-7.3,9.16-9.3c3.28-1.72,7.43-0.84,8.94,2.85
			c1.02,2.5,0.08,5.95-0.29,8.5c-0.53,3.67-1.31,7.47-1.15,11.19c0.01,0.3,0.07,0.62,0.12,0.94c0.84-0.7,1.67-1.33,2.41-2.22
			c4.07-4.9,6.21-11.1,9.53-16.48c6.99-11.34,13.2-23.24,20.82-34.19c2.53-3.64,6.16-9.16,10.97-9.86c8.1-1.19,7.31,8.61,7.37,13.83
			c0.16,15.87-1.44,31.69-8.81,45.83c0.06,0.31,0.06,0.63,0,0.97c-0.14,0.75-0.31,1.32-0.68,2c-0.27,0.5-0.61,0.87-1,1.13
			c-2.91,5.11-4.57,11.47-6.11,16.97c-0.94,3.33-2.38,6.11-4.92,8.5c-1.43,1.35-3.09,2.35-4.79,3.3c8.52,1.73,19.73-1.84,24.96,6.28
			c2.76,4.29,0.98,9.56-1.72,13.38c-4.05,5.73-9.36,10.27-14.65,14.78c-5.09,4.33-8.24,10.31-11.65,15.93
			c-3.13,5.15-7.32,9.62-12.13,13.24c-10.46,7.86-23.57,10.59-33.8,18.83c-5.2,4.19-8.41,10.14-12.83,15.05
			c-4.31,4.78-9.72,8.82-14.9,12.62c-10.66,7.83-22.09,12.99-35.15,15.14c-6.62,1.09-12.76,4.03-19.35,5.27
			C82.86,250.43,76.55,248.97,70.77,246.26z"/>
	</g>
	<g>
		<path class="st12" d="M70.22,272.71c35.79-37.89,69.08-78.06,103.95-116.76c9.84-10.92,90.66-131.14,80.42-134.6
			c6.1,2.06-71.73,114.73-82.52,125.83c-19.42,19.99-39.01,39.64-56.72,61.2C99.54,227.63,85.5,256.51,70.22,272.71z"/>
		<path class="st12" d="M181.01,144.39c1.36-14.17-6.18-24.3-6.55-37.24c-0.33-11.56,7.34-32.11,8.39-36.58
			c-0.02,1.51,2.71-1.58,0.82-2.03c-8.92-2.1-17.25,36.37-17.06,41.93C166.95,120.98,181.52,139.34,181.01,144.39z"/>
		<path class="st12" d="M208.26,114.77c6.77,3.18,46.86-10.3,39.82-16.93C245.7,95.59,208.51,114.89,208.26,114.77z"/>
		<path class="st12" d="M158.02,169.43c16.33,19.04,55.55-5.24,59.28-1.67C213.18,163.82,163.79,176.13,158.02,169.43z"/>
		<path class="st12" d="M117.98,220.91c8.06,7.08,64.8,11.46,62.1,2.03C176.55,210.66,123.74,226.01,117.98,220.91z"/>
		<path class="st12" d="M88.91,255.85c21.25,16.84,48.99,20.09,75.04,16.69c7.71-1,76.73-23.79,70.78-30.82
			c4.83,5.72-71.91,23.4-80.8,23.33C139.15,264.95,98.85,263.77,88.91,255.85z"/>
		<path class="st12" d="M183.96,263.76c6.58-10.97,4.43-27.14,13.3-36.39c0.11-0.11,0.48,0.07,0.53,0.16
			c0.22,0.34-1.59-0.43-0.79,0.63C194.16,224.49,168.71,251.92,183.96,263.76z"/>
		<path class="st12" d="M133.47,271.25c-20.36,0.68,28.5,34.36,29.17,24.31C162.62,295.84,130.5,272.19,133.47,271.25z"/>
		<path class="st12" d="M70.48,264.04c14.42-27,12.65-59.43,6.54-88.58c-2.21-10.54-15.56-35.35-10.58-42.05
			c-5.71,7.66,3.75,32.65,5.19,48.2C73.65,203.11,79.01,248.14,70.48,264.04z"/>
		<path class="st12" d="M74.88,227.5c1.66,0.27-34.05-34.86-30.63-35.32c-9.7,1.3,16.63,35.28,19.63,36.48
			C68.09,230.35,75.37,227.59,74.88,227.5z"/>
		<path class="st12" d="M78.51,196.57c10.2-3.71,26.94-43.95,20.19-44.57c-2.72-0.25,0.09,4.82,0.11,3.01
			C86.73,149.08,84.16,194.53,78.51,196.57z"/>
		<path class="st12" d="M136.58,189.3c1.77-2.92,2.72-65.63,3.71-64.03c0.49,0.78,1.31-0.41,0.69-0.65
			C126.44,118.3,131.15,198.26,136.58,189.3z"/>
		<path class="st12" d="M133.39,155.02c1.19-6.37-10.1-34.01-11.45-34.19C106.51,118.8,131.96,163.39,133.39,155.02z"/>
	</g>
</g>
</svg>
