<?xml version="1.0" encoding="utf-8"?>
<!-- Generator: Adobe Illustrator 23.0.1, SVG Export Plug-In . SVG Version: 6.00 Build 0)  -->
<svg version="1.1" id="Layer_1" xmlns="http://www.w3.org/2000/svg" xmlns:xlink="http://www.w3.org/1999/xlink" x="0px" y="0px"
	 viewBox="0 0 500 500" style="enable-background:new 0 0 500 500;" xml:space="preserve">
<style type="text/css">
	.st0{fill:#244E21;}
	.st1{fill:#3C7825;}
	.st2{fill:#759755;}
	.st3{fill:#0F161F;}
	.st4{fill:#AD4A5B;}
	.st5{fill:#2B181C;}
	.st6{fill:#4A2833;}
	.st7{fill:#7D85B7;}
	.st8{fill:#21293D;}
	.st9{fill:#3A2C47;}
	.st10{fill:#4C3B5A;}
	.st11{fill:#7F83AF;}
	.st12{fill:#96877E;}
	.st13{fill:#262B37;}
	.st14{fill:#414C5D;}
</style>
<g>
	<path class="st0" d="M142.24,138.91c3.46-4.6,12.62-9.18,24.56-0.7c20.59,14.62,45.46,18.49,54.75,18.31
		c29.49-0.58,88.11,15.97,110.25,23.76c15.37,5.41,28.51,14.54,27.7,18.99c-1.36,7.43-35.28,18.32-60.43,22.56
		c-24.34,4.11-45,2.79-100.28-19.81c-34.85-14.25-41.97-20.53-45.21-35.45C150.81,153.84,138.61,143.74,142.24,138.91z"/>
	<path class="st1" d="M359.5,199.27c0.81-4.44-12.33-13.58-27.7-18.99c-20.33-7.16-72.06-21.88-102.67-23.6
		c-20,0.87-37.46-1.06-53.9-1.45c1.37,7.33,3.61,13.89,6.64,19.67c10.58,20.17,29.64,30.61,51.8,40.02
		c31.26,10.01,47.32,9.95,65.4,6.9C324.22,217.59,358.15,206.7,359.5,199.27z"/>
	<path class="st2" d="M290.89,184.43c-38.66-4.37-70.18-13.4-95.39-24.33c3.73,8.81,33.48,20.96,44.92,25.01
		c13.27,4.7,35.69,10.1,53.38,10.23c20.51,0.16,40.84,7.33,65.7,3.09C358.82,194.37,304.49,185.97,290.89,184.43z"/>
</g>
<g>
	<path class="st0" d="M148.32,267.55c5.51,5.65,7.26,19.71-13.61,35.05c-31.33,23.04-46.55,49.63-49.82,59.14
		c-9.58,27.89-42.14,68.57-53.61,80.77c-7.31,7.77-16.64,12.51-19.87,10.58C6.1,449.89,2.8,425.91,3.17,408
		c0.39-18.56,4.8-34.22,37.83-79.43c26.82-36.71,37.37-44.87,58.82-47.51C119.66,278.62,142.56,261.65,148.32,267.55z"/>
	<path class="st1" d="M11.41,453.08c3.23,1.94,12.55-2.8,19.87-10.58c10.49-11.15,38.58-46.08,50.67-73.36
		c6.37-20.42,15.88-39.14,23.67-58.61c-10.52,0.42-19.99,1.97-28.42,4.52c-26.99,8.16-43,25.48-56.92,43.85
		C5.92,382.25,3.46,394.33,3.17,408C2.8,425.91,6.1,449.89,11.41,453.08z"/>
	<path class="st2" d="M36.14,413.04c13.41-29.37,32.21-55.83,54.35-79.67c-12.31,2.21-35.62,29.27-42.93,38.66
		c-7.96,10.22-17.98,26.7-21.67,39.83c-4,14.23-13.22,25.16-13.85,41.48C15.22,454.3,31.9,422.34,36.14,413.04z"/>
</g>
<g>
	<path class="st0" d="M274.55,384.57c1.1-5.38,9.6-11.5,30.39-4.31c32.82,11.34,60.93,11.26,69.98,9.78
		c27.17-4.44,81.21,1.72,99.52,4.9c11.94,2.07,22.94,6.92,23.66,10.11c1.19,5.28-17.29,17.6-32.96,24.55
		c-15.99,7.09-32.05,9.94-89.22,3.21c-43.01-5.06-54.68-9.24-67.92-22.5C296.12,398.44,273.39,390.2,274.55,384.57z"/>
	<path class="st1" d="M498.09,405.05c-0.72-3.19-11.72-8.04-23.66-10.11c-16.76-2.91-63.62-8.34-92.16-5.8
		c-19.11,3.61-38.28,4.43-56.54,6.62c5.99,6.7,12.33,12.38,18.9,17.08c21.68,15.49,44.74,20.3,68.16,23.36
		c28.71,1.56,40.54-1.36,52.34-6.59C480.8,422.65,499.28,410.33,498.09,405.05z"/>
	<path class="st2" d="M446.37,403.43c-32.68,2.18-65.01-0.53-95.8-6.31c8.67,7.36,43.22,12.96,55.17,14.43
		c13.26,1.63,33.3,2.3,46.69-0.27c14.76-2.84,30.76-0.53,45.43-6.8C496.31,401.73,457.01,402.73,446.37,403.43z"/>
</g>
<g>
	<path class="st0" d="M295.05,392.31c-1.87-2.58-2.16-7.75,6.73-10.66c14.97-4.89,25.36-15.05,28.51-19.55
		c10.66-15.25,43.56-40.55,57.31-49.78c9.71-6.51,19.57-9.4,20.54-6.26c1.54,5.02-11.17,28.95-20.5,42.83
		c-8.2,12.21-16.24,20.39-43.51,36.2c-16.89,9.79-21.9,11.08-30.26,9.1C306.21,392.38,296.94,394.91,295.05,392.31z"/>
	<path class="st1" d="M408.13,306.06c-0.97-3.14-10.83-0.26-20.54,6.26c-12.63,8.48-41.93,30.91-54.5,46.12
		c-6.57,9.91-13.42,17.24-18.83,24.27c4.38,1.37,8.46,2.14,12.28,2.37c12.61,0.77,23.11-4.02,34.2-10.28
		c14.69-9.88,20.71-16.73,26.88-25.91C396.96,335.01,409.67,311.08,408.13,306.06z"/>
	<path class="st2" d="M370.57,337.95c-17.42,17.81-33.14,29.46-47.24,37.37c5.78,0.95,21.76-8.43,27.68-12.28
		c6.94-4.51,17.83-13.17,25.13-21.92c8.97-10.75,20.81-18.54,31.72-35.54C406.24,303.6,377.1,331.28,370.57,337.95z"/>
</g>
<g>
	
		<ellipse transform="matrix(0.7071 -0.7071 0.7071 0.7071 -138.4013 155.4489)" class="st3" cx="118.44" cy="244.79" rx="50.57" ry="50.57"/>
</g>
<path class="st4" d="M283.97,389.52c-51.65-41.79-123.39-133.45-140.58-197.63l8.35-2.23c16.1,60.13,88.76,154.3,136.19,194.59
	C288.34,383.89,285.22,390.53,283.97,389.52z"/>
<g>
	<g>
		
			<ellipse transform="matrix(0.7071 -0.7071 0.7071 0.7071 -208.1463 331.2408)" class="st5" cx="295.77" cy="416.88" rx="48.09" ry="48.09"/>
		<path class="st6" d="M316.34,411.12c-25.24-8.24-56.74,34.14-27.06,44.47C315.03,464.55,346.05,420.82,316.34,411.12z"/>
		
			<ellipse transform="matrix(0.9941 -0.1081 0.1081 0.9941 -43.8442 33.4524)" class="st7" cx="286.62" cy="421.11" rx="10.26" ry="10.26"/>
	</g>
</g>
<g>
	<path class="st4" d="M247.74,321.58c-12.33-3.54-23.93-9.9-33.55-18.39c-0.26-0.23-1.32-0.85-2.09-1.29c-3.44-2-5.38-3.23-5.49-5.2
		c-0.05-0.93,0.36-1.79,1.13-2.35c0,0,5.59,2.98,6.66,3.6c1.37,0.8,2.24,1.32,2.81,1.82c9.11,8.04,20.11,14.06,31.79,17.42
		L247.74,321.58z"/>
</g>
<g>
	
		<ellipse transform="matrix(0.9581 -0.2866 0.2866 0.9581 -83.3922 89.9827)" class="st3" cx="265.74" cy="329.91" rx="35.83" ry="35.83"/>
	<ellipse class="st8" cx="274.08" cy="318.78" rx="15.43" ry="15.5"/>
</g>
<path class="st4" d="M143.21,80.09c0.67,6.25-0.22,20.47,0.51,26.93c0.79,6.49,6.53,65.35,6.61,90.96
	c0.06,25.61,3.03,46.76,2.06,72.28c-0.99,25.52-2.4,51.02-4.4,76.44c-0.12-25.5-4.67-49.09-5.79-74.53
	c-1.14-25.44-0.38-49.9-2.54-75.21c-2.18-25.3-3.34-53.39-7.35-78.2c-1.04-6.19-4.85-37.16-4.85-37.16
	c-2.66-12.68-5.59-40.15-5.59-40.15c-0.33-7.3,2.86-8.31,10.16-8.64c7.3-0.33,10.85,0.83,11.18,8.13
	C143.23,41.42,141.88,67.63,143.21,80.09z"/>
<g>
	
		<ellipse transform="matrix(0.7071 -0.7071 0.7071 0.7071 -35.2664 157.8763)" class="st9" cx="172.94" cy="121.51" rx="57.17" ry="57.17"/>
	<path class="st10" d="M178.43,78.18c-26.76-15.25-67.35,36.33-35.99,55.13C169.65,149.61,209.92,96.13,178.43,78.18z"/>
	<circle class="st11" cx="153.88" cy="103.98" r="12.2"/>
</g>
<g>
	<path class="st4" d="M183.12,200.26c-12.33-3.54-23.93-9.9-33.55-18.39c-0.26-0.23-1.32-0.85-2.09-1.29c-3.44-2-5.38-3.23-5.49-5.2
		c-0.05-0.93,0.36-1.79,1.13-2.35l2.71,3.68c0.38-0.28,0.65-0.75,0.71-1.25c0.07-0.59-0.15-1.01-0.24-1.12
		c0.41,0.5,2.41,1.66,3.48,2.29c1.37,0.8,2.24,1.32,2.81,1.82c9.11,8.04,20.11,14.06,31.79,17.42L183.12,200.26z"/>
</g>
<g>
	<g>
		<circle class="st5" cx="213.09" cy="236.86" r="57.17"/>
		<path class="st6" d="M218.58,193.54c-26.76-15.25-67.35,36.33-35.99,55.13C209.8,264.97,250.07,211.49,218.58,193.54z"/>
		
			<ellipse transform="matrix(0.2298 -0.9732 0.9732 0.2298 -64.0145 357.7797)" class="st11" cx="194.03" cy="219.33" rx="12.2" ry="12.2"/>
	</g>
	<path class="st12" d="M254.08,270.99c-0.42,0.59-0.66,0.45-1-0.75c-1.1-3.85-5.16,0.06,2.07-10.51c6.7-9.81,3.66-4.64,10.5-9.07
		c2.44-1.58,2.65-1.51,2.14-0.69c-0.74,1.18-3.94,2.62-5.64,5.26c-2.2,3.43,0.51,3.25-0.1,4.16c-0.58,0.87-3.12,0.9-5.67,4.57
		C253.64,267.9,254.71,270.1,254.08,270.99z"/>
</g>
<g>
	<g>
		
			<ellipse transform="matrix(0.2141 -0.9768 0.9768 0.2141 -188.8671 383.3821)" class="st13" cx="143.82" cy="309.07" rx="54.12" ry="54.12"/>
		<path class="st14" d="M142.45,262.24c-31.57-12.51-67.93,50.09-30.77,65.76C143.91,341.6,179.61,276.97,142.45,262.24z"/>
		<path class="st11" d="M130.01,294.23c0.89,6.31-3.5,12.16-9.81,13.05c-6.31,0.89-12.16-3.5-13.05-9.81
			c-0.89-6.31,3.5-12.16,9.81-13.05C123.27,283.53,129.12,287.92,130.01,294.23z"/>
	</g>
	<path class="st12" d="M135.32,361.02c-0.54,0-0.56-0.16,0.03-0.73c1.9-1.81-2.24-2.45,7.36-2.54c8.9-0.08,4.42,0.2,10.07,1.98
		c2.02,0.64,2.06,0.76,1.34,0.79c-1.04,0.04-3.29-1.01-5.65-0.93c-3.05,0.1-1.78,1.33-2.6,1.35c-0.79,0.01-1.88-1.19-5.24-1.18
		C137.03,359.77,136.14,361.02,135.32,361.02z"/>
</g>
</svg>
