<?xml version="1.0" encoding="utf-8"?>
<!-- Generator: Adobe Illustrator 23.0.1, SVG Export Plug-In . SVG Version: 6.00 Build 0)  -->
<svg version="1.1" id="Layer_1" xmlns="http://www.w3.org/2000/svg" xmlns:xlink="http://www.w3.org/1999/xlink" x="0px" y="0px"
	 viewBox="0 0 500 500" style="enable-background:new 0 0 500 500;" xml:space="preserve">
<style type="text/css">
	.st0{fill:#4F2700;}
	.st1{fill:#9B9B40;}
	.st2{fill:#BFC15D;}
	.st3{opacity:0.25;fill:#54491B;}
	.st4{opacity:0.15;fill:#FFFFFF;}
	.st5{fill:#94A52D;}
	.st6{fill:#96921A;}
	.st7{opacity:0.35;fill:#54491B;}
	.st8{opacity:0.5;}
	.st9{fill:#FFFFFF;}
	.st10{opacity:0.35;}
	.st11{fill:#54491B;}
</style>
<path class="st0" d="M-519,97"/>
<g>
	<g>
		<g transform="matrix(1,0,0,1,-15.3077,265.897)">
			<path class="st1" d="M471.74,2.71c-0.04,0.53-0.04,1.04-0.01,1.54c0.29,4.26,3.2,7.8,3.05,12.33c-0.07,2-0.38,3.89-0.87,5.73
				c-1.94,7.45-6.61,13.88-7.86,21.63c-0.19,1.21-0.23,2.43-0.16,3.66c0.25,5.07,2.06,10.28,0.37,15.1
				c-0.02,0.07-0.06,0.15-0.08,0.21c-4.18,11.15-12.58,15.48-18.91,24.32c-0.25,0.34-0.5,0.7-0.73,1.06
				c-2.03,3.03-3.18,6.72-4.86,10.03c-1.03,2.04-2.27,3.95-4.01,5.47c-3.21,2.78-8.04,2.12-11.07,4.84
				c-1.69,1.51-2.72,3.38-3.73,5.21c-1.38,2.5-2.75,4.97-5.77,6.47c-3.66,1.81-7.48,0.41-11.18,1.68c-0.03,0.01-0.07,0.02-0.1,0.03
				c-0.23,0.08-0.45,0.17-0.65,0.26c-5.67,2.54-3.63,8.95-15.57,11.88c-1.58,0.39-3.02,0.98-4.36,1.7
				c-5.09,2.75-8.81,7.43-13.73,10.35c-1.03,0.61-2.11,1.15-3.27,1.58c-5.97,2.21-12.73,0.37-18.8,2.41
				c-4.88,1.65-8.06,5.06-11.6,8.16c-1.71,1.49-3.52,2.91-5.64,4.01c-4.19,2.18-8.89,1.88-13.44,2.72
				c-0.82,0.15-1.63,0.33-2.45,0.57c-6.21,1.88-13.53,6.27-18.78,10.05c-11.33,8.16-18.19,13.99-31.76,17.8
				c-3.63,1.03-6.8,2.94-10.09,4.57c-1.34,0.67-2.71,1.28-4.14,1.78c-0.15,0.06-0.43,0.21-0.61,0.28c-0.12,0.05-0.21,0.05-0.19-0.07
				c0.48-2.6,25.74-23.42,27.22-24.52c3.25-2.41,6.46-4.94,9.65-7.57c0.01-0.01,0.03-0.02,0.04-0.03
				c4.63-3.82,9.18-7.87,13.59-12.09c11.35-10.82,21.86-22.79,30.59-35.07c6.94-9.73,13.1-19.78,17.69-30.83
				c3.84-9.27,6.12-19.31,11.47-27.98c4.57-7.42,13.1-11.93,17.34-19.29c3.01-5.21,1.83-10.81,3.29-16.25
				c1.69-6.3,8.88-9.21,10.28-15.65c0.85-3.89-0.69-7.42,1.27-11.17c3.37-6.4,9.98-8.86,12.68-15.72c1.67-4.23-0.39-8.95,1.18-13.06
				c3.1-8.06,9.24-14.16,11-22.89c1.51-7.51-0.01-14.47,3.28-21.57c8.36-18.06,31.25-18.73,40.07-40.92c0,0,6.4,6.33,7.18,10.35
				c0.16,0.85,0.25,1.71,0.28,2.57c0.21,4.89-1.18,9.95,0.34,14.6c0.83,2.57,2.54,4.61,4.17,6.68c1.53,1.96,3,3.96,3.62,6.46
				c0.44,1.8,0.52,3.61,0.36,5.41c-0.57,7.07-4.59,14.18-3.49,21.43c0.24,1.59,0.92,3.03,1.8,4.37c2.48,3.79,6.54,6.9,6.86,11.01
				c0.25,3.11-0.15,5.96-0.92,8.68C479.1-14.09,472.59-6.76,471.74,2.71z"/>
		</g>
		<path class="st2" d="M443.71,160.85c0.03,8.05-0.85,16.09-2.32,24.01c-1.46,7.93-3.48,15.75-5.82,23.46
			c-4.75,15.42-10.8,30.37-16.68,45.32c-11.43,30.05-24.77,59.61-41.71,87.12c-4.19,6.9-8.73,13.59-13.36,20.2l-3.58,4.89
			l-1.79,2.44l-1.86,2.39l-3.72,4.78l-3.87,4.66c-2.54,3.14-5.31,6.09-7.98,9.13c-1.36,1.49-2.79,2.93-4.18,4.4l-2.1,2.19
			l-2.17,2.12c-5.72,5.72-11.85,11.01-18.1,16.11c-12.54,10.18-25.84,19.31-39.32,28.1L234.39,468
			c13.12-9.3,26.62-18.06,39.84-27.19c13.27-9.05,26.34-18.39,38.58-28.72c12.24-10.33,23.65-21.56,33.72-34l3.8-4.64l3.67-4.75
			l1.83-2.37l1.77-2.42l3.53-4.85c4.57-6.57,9.04-13.21,13.18-20.06c4.24-6.79,8.18-13.77,12.02-20.79
			c3.77-7.07,7.45-14.19,10.9-21.42c1.78-3.59,3.41-7.25,5.12-10.88c1.63-3.66,3.3-7.31,4.87-11c1.58-3.68,3.15-7.37,4.67-11.09
			l4.61-11.14c6.17-14.85,12.46-29.63,17.51-44.85C439.13,192.66,443,176.95,443.71,160.85z"/>
		<path class="st2" d="M432.09,211.32c1.55-2.57,3.54-4.81,5.75-6.74c2.2-1.94,4.6-3.59,7.01-5.15c4.81-3.13,9.85-5.95,13.85-10.11
			c-3.75,4.4-8.67,7.58-13.26,10.97c-2.3,1.7-4.54,3.46-6.54,5.44c-1.99,1.98-3.72,4.19-4.99,6.62c-0.27,0.51-0.9,0.71-1.41,0.44
			c-0.51-0.27-0.71-0.9-0.44-1.41C432.07,211.36,432.08,211.34,432.09,211.32z"/>
		<path class="st2" d="M414.96,257.5c3.47-3.63,7.83-5.89,12.05-8.01c4.25-2.09,8.44-4.27,12.62-6.51
			c4.18-2.22,8.34-4.48,12.59-6.62c4.31-2.08,9.01-3.04,13.13-5.43c-4.03,2.54-8.75,3.7-12.9,5.9c-4.14,2.28-8.22,4.69-12.32,7.07
			c-4.09,2.38-8.22,4.74-12.4,6.98c-4.12,2.25-8.24,4.64-11.23,8.03l-0.01,0.01c-0.38,0.43-1.04,0.48-1.48,0.09
			c-0.43-0.38-0.48-1.04-0.09-1.48C414.94,257.52,414.95,257.5,414.96,257.5z"/>
		<path class="st2" d="M399.98,292.99c4.73-1.48,9.43-3.1,14.16-4.67c4.73-1.59,9.51-2.99,14.25-4.49c4.75-1.47,9.58-2.86,14.52-3.6
			c1.26-0.2,2.52-0.14,3.75-0.17c1.23,0.01,2.44-0.24,3.67-0.46c2.44-0.44,4.92-0.91,7.41-0.74c-2.5-0.09-4.94,0.47-7.36,0.99
			c-1.21,0.26-2.44,0.56-3.71,0.59c-1.25,0.07-2.49,0.05-3.68,0.29c-4.87,0.9-9.6,2.44-14.28,4.07c-4.69,1.67-9.41,3.23-14.06,4.97
			c-4.66,1.72-9.3,3.51-14.02,5.17c-0.54,0.19-1.14-0.09-1.33-0.64c-0.19-0.55,0.09-1.14,0.64-1.33
			C399.96,292.99,399.97,292.99,399.98,292.99z"/>
		<path class="st2" d="M376.78,336.12c1.1-1.37,2.41-2.37,3.73-3.29c1.33-0.91,2.71-1.74,4.12-2.48c2.82-1.49,5.72-2.75,8.72-3.81
			c1.49-0.52,3.04-1,4.59-1.33c1.54-0.34,3.08-0.65,4.63-0.93c3.09-0.57,6.21-1.02,9.33-1.37c6.25-0.69,12.54-0.94,18.81-0.69
			c1.57,0.06,3.13,0.15,4.7,0.29c1.57,0.16,3.11,0.43,4.65,0.71c3.07,0.57,6.16,1.2,9.3,1.16c-3.14,0.13-6.25-0.42-9.34-0.9
			c-1.55-0.24-3.09-0.47-4.65-0.58c-1.55-0.09-3.12-0.14-4.68-0.16c-6.25-0.08-12.49,0.35-18.67,1.2c-3.09,0.43-6.16,0.97-9.21,1.61
			c-1.52,0.32-3.04,0.67-4.55,1.05c-1.5,0.36-2.94,0.85-4.38,1.4c-2.88,1.11-5.7,2.43-8.37,3.94c-1.34,0.75-2.64,1.58-3.86,2.47
			c-1.21,0.89-2.38,1.87-3.22,2.98l-0.01,0.01c-0.35,0.46-1.01,0.55-1.47,0.2c-0.46-0.35-0.55-1.01-0.2-1.47
			C376.77,336.14,376.78,336.13,376.78,336.12z"/>
		<path class="st2" d="M363.85,357.03c0.68-0.15,1.36-0.31,2.04-0.42l1.95-0.15c1.29-0.07,2.56-0.05,3.84-0.04
			c2.54,0.07,5.06,0.24,7.57,0.45c5.03,0.43,10.02,1.07,14.99,1.78c4.98,0.72,9.94,1.52,14.88,2.46c4.93,0.94,9.86,1.95,14.7,3.31
			c-4.88-1.2-9.83-2.03-14.79-2.8c-4.96-0.76-9.94-1.39-14.92-1.94c-4.98-0.53-9.98-1-14.97-1.25c-2.5-0.12-4.99-0.2-7.47-0.18
			c-1.23,0.04-2.48,0.06-3.69,0.17l-1.8,0.2l-1.64,0.39l-0.23,0.05c-0.56,0.13-1.12-0.21-1.25-0.77c-0.13-0.56,0.21-1.12,0.77-1.25
			C363.84,357.03,363.85,357.03,363.85,357.03z"/>
		<path class="st2" d="M346.13,379.96c3.46-0.82,6.9-0.55,10.19,0.01c3.3,0.59,6.49,1.54,9.6,2.69c3.1,1.17,6.11,2.54,9.02,4.1
			c2.9,1.57,5.72,3.32,8.23,5.44c-2.62-1.98-5.51-3.57-8.47-4.98c-2.96-1.4-6.01-2.59-9.12-3.58c-3.11-0.97-6.29-1.73-9.49-2.13
			c-3.18-0.38-6.46-0.42-9.38,0.45l-0.04,0.01c-0.55,0.16-1.14-0.15-1.3-0.71c-0.16-0.55,0.15-1.14,0.71-1.3
			C346.09,379.97,346.11,379.97,346.13,379.96z"/>
		<path class="st2" d="M315.58,410.17c1.46-1.57,3.25-2.38,5-3.11c1.76-0.73,3.58-1.16,5.39-1.59c3.64-0.76,7.31-1.15,10.99-1.28
			c3.65-0.1,7.44,0.02,10.97,1.11c3.53,0.96,7.06,1.98,10.4,3.49c-3.4-1.35-6.96-2.19-10.52-2.98c-3.54-0.92-7.16-0.84-10.79-0.58
			c-3.61,0.3-7.2,0.87-10.68,1.77c-1.72,0.5-3.45,1-5.04,1.75c-1.57,0.73-3.14,1.6-4.13,2.79l-0.01,0.02
			c-0.37,0.44-1.03,0.51-1.47,0.14c-0.45-0.37-0.51-1.03-0.14-1.47C315.55,410.2,315.57,410.19,315.58,410.17z"/>
		<path class="st2" d="M430.32,215.51c-0.02-6.24-0.83-12.51-2.44-18.59c-1.62-6.07-4.03-11.98-7.59-17.24
			c3.84,5.05,6.61,10.89,8.59,16.94c1.97,6.07,3.15,12.41,3.52,18.83c0.03,0.58-0.41,1.07-0.98,1.11c-0.58,0.03-1.07-0.41-1.11-0.98
			C430.32,215.55,430.32,215.53,430.32,215.51z"/>
		<path class="st2" d="M419.6,245.5c1.41-9.31,1.16-18.92-0.6-28.24c-0.44-2.33-0.99-4.64-1.62-6.94c-0.63-2.3-1.3-4.58-2.1-6.82
			c-1.58-4.48-3.58-8.86-6.49-12.67c3.04,3.7,5.22,8.04,6.98,12.49c0.88,2.23,1.65,4.5,2.36,6.79c0.72,2.28,1.36,4.6,1.89,6.94
			c2.12,9.37,2.74,19.11,1.65,28.74c-0.07,0.57-0.58,0.99-1.16,0.92c-0.57-0.07-0.99-0.58-0.92-1.16c0-0.01,0-0.02,0-0.03
			L419.6,245.5z"/>
		<path class="st2" d="M409.21,271.42c0.45-1.64,0.63-3.44,0.69-5.23c0.05-1.79-0.03-3.6-0.26-5.38c-0.22-1.76-0.7-3.53-1.15-5.31
			c-0.47-1.77-1.01-3.52-1.61-5.24c-1.2-3.46-2.68-6.82-4.52-9.99c-0.92-1.59-1.95-3.11-3.08-4.55c-1.26-1.38-1.82-3.25-3.22-4.48
			c1.47,1.17,2.12,3.02,3.42,4.31c1.21,1.4,2.32,2.89,3.33,4.44c2.01,3.11,3.68,6.45,5.06,9.9c0.69,1.72,1.33,3.47,1.88,5.24
			c0.54,1.77,1.12,3.55,1.44,5.43c0.33,1.86,0.5,3.74,0.54,5.63c0.02,1.89-0.06,3.8-0.49,5.74c-0.13,0.56-0.68,0.92-1.25,0.79
			c-0.56-0.13-0.92-0.68-0.79-1.25c0-0.02,0.01-0.03,0.01-0.05L409.21,271.42z"/>
		<path class="st2" d="M394.02,304.9c0.46-3.83,0.96-7.66,0.85-11.43c-0.04-0.95-0.13-1.82-0.35-2.74c-0.21-0.93-0.45-1.86-0.7-2.79
			c-0.5-1.85-1.07-3.69-1.71-5.5c-1.27-3.63-2.79-7.18-4.57-10.61c-0.44-0.86-0.91-1.7-1.38-2.55l-1.34-2.58
			c-0.9-1.7-1.83-3.43-3.26-4.75c1.49,1.26,2.5,2.97,3.48,4.63l1.45,2.51c0.5,0.82,1.01,1.65,1.5,2.49
			c1.94,3.36,3.64,6.87,5.09,10.49c0.72,1.81,1.39,3.64,1.98,5.5c0.3,0.93,0.58,1.87,0.84,2.81c0.28,0.95,0.45,2.01,0.53,2.99
			c0.29,3.98-0.05,7.87-0.33,11.74c-0.04,0.58-0.54,1.01-1.12,0.97c-0.58-0.04-1.01-0.54-0.97-1.12
			C394.01,304.94,394.01,304.92,394.02,304.9z"/>
		<path class="st2" d="M379.81,331.58c0.48-3.78,0.48-7.65,0.23-11.51c-0.25-3.86-0.78-7.71-1.52-11.53
			c-0.74-3.81-1.68-7.59-2.88-11.3c-1.2-3.7-2.62-7.34-4.52-10.76c2.05,3.33,3.64,6.92,5.02,10.59c1.36,3.67,2.49,7.43,3.4,11.25
			c0.92,3.82,1.63,7.69,2.06,11.61c0.43,3.92,0.62,7.88,0.29,11.88c-0.05,0.58-0.55,1-1.13,0.96c-0.58-0.05-1-0.55-0.96-1.13
			c0-0.01,0-0.03,0-0.04L379.81,331.58z"/>
		<path class="st2" d="M360,362.28c-0.39-7.02-0.74-14.02-1.66-20.96c-0.94-6.92-2.4-13.85-5.34-20.25
			c3.26,6.25,5.09,13.17,6.37,20.09c1.28,6.94,1.98,13.98,2.71,20.96c0.06,0.57-0.36,1.09-0.93,1.15c-0.57,0.06-1.09-0.36-1.15-0.93
			C360.01,362.32,360.01,362.3,360,362.28z"/>
		<path class="st2" d="M338.42,388.48c1.71-3.22,2.98-6.81,3.78-10.42c0.41-1.84,0.56-3.59,0.54-5.51c0.01-1.89-0.01-3.78-0.07-5.67
			c-0.24-7.56-1.1-15.12-2.71-22.54c1.95,7.34,3.17,14.88,3.76,22.48c0.15,1.9,0.25,3.8,0.33,5.71c0.03,0.94,0.09,1.91,0.03,2.91
			c-0.05,0.98-0.17,1.95-0.33,2.91c-0.67,3.83-1.78,7.53-3.46,11.1c-0.25,0.52-0.87,0.75-1.39,0.5c-0.52-0.25-0.75-0.87-0.5-1.39
			c0.01-0.01,0.01-0.03,0.02-0.04L338.42,388.48z"/>
		<path class="st2" d="M316.96,409.65c0.88-3.06,2.21-5.83,3.44-8.61c1.23-2.77,2.48-5.54,3.22-8.42c0.66-2.91,0.99-5.96,1.3-8.97
			c0.3-3.03,0.54-6.07,0.95-9.09c-0.23,3.04-0.3,6.08-0.42,9.12c-0.13,3.05-0.29,6.09-0.8,9.16c-0.6,3.07-1.72,5.95-2.79,8.8
			c-1.07,2.85-2.22,5.67-2.86,8.51l0,0.01c-0.13,0.56-0.69,0.92-1.25,0.79c-0.56-0.13-0.92-0.69-0.79-1.25
			C316.95,409.69,316.96,409.67,316.96,409.65z"/>
		<path class="st2" d="M291.57,428.32c1.31-1.18,2.36-2.79,3.25-4.47c0.89-1.7,1.62-3.5,2.27-5.34c1.3-3.68,2.25-7.51,3.18-11.33
			c-0.59,3.89-1.2,7.79-2.18,11.63c-0.49,1.92-1.08,3.83-1.85,5.7c-0.78,1.86-1.73,3.71-3.22,5.32c-0.39,0.42-1.06,0.45-1.48,0.06
			c-0.42-0.39-0.45-1.06-0.06-1.48c0.02-0.02,0.04-0.05,0.07-0.07L291.57,428.32z"/>
		<path class="st3" d="M303.46,431c-0.82,0.15-1.63,0.33-2.45,0.57c-6.21,1.88-13.53,6.27-18.78,10.05
			c-11.33,8.16-18.19,13.99-31.76,17.8c-3.63,1.03-6.8,2.94-10.09,4.57c-1.34,0.67-2.71,1.28-4.14,1.78
			c-0.15,0.06-0.43,0.21-0.61,0.28c-0.12,0.05-0.21,0.05-0.19-0.07c0.48-2.6,25.74-23.42,27.22-24.52c3.25-2.41,6.46-4.94,9.65-7.57
			c0.01-0.01,0.03-0.02,0.04-0.03c3.54-1.32,7.11-2.57,10.69-3.75c2.22-0.74,5.41-0.82,9.07-0.56
			C295.61,429.81,299.52,430.37,303.46,431z"/>
		<path class="st3" d="M356.2,412.12c-1.03,0.61-2.11,1.15-3.27,1.58c-5.97,2.21-12.73,0.37-18.8,2.41
			c-4.88,1.65-8.06,5.06-11.6,8.16c-6.43-2.27-14.7-3.55-11.35-6.84c1.92-1.89,5.41-2.63,7.74-3.93
			C334.45,404.71,339.78,408.16,356.2,412.12z"/>
		<path class="st3" d="M390.61,387.9c-0.03,0.01-0.07,0.02-0.1,0.03c-0.23,0.08-0.45,0.17-0.65,0.26
			c-5.67,2.54-3.63,8.95-15.57,11.88c-1.58,0.39-3.02,0.98-4.36,1.7c-6.09-3.65-14.36-6.83-16.64-8.8
			c-0.72-0.63-1.17-1.41-0.48-2.18c1.36-1.5,3.02-2.65,4.89-3.49c3.02-1.41,6.59-2.04,10.38-2.19c0.88-0.03,1.77-0.04,2.66-0.02
			c5.68,0.09,11.65,1.09,16.83,2.15C388.62,387.47,389.65,387.69,390.61,387.9z"/>
		<path class="st3" d="M426.38,364.24c-1.03,2.04-2.27,3.95-4.01,5.47c-3.21,2.78-8.04,2.12-11.07,4.84
			c-1.69,1.51-2.72,3.38-3.73,5.21c-7.52-3.75-19.91-6.76-18.67-10.7C390.89,362.78,411.99,365.58,426.38,364.24z"/>
		<path class="st3" d="M448.6,329.77c0.72-0.3,1.53-0.7,2.37-1.16c-0.02,0.07-0.06,0.15-0.08,0.21
			c-4.18,11.15-12.58,15.48-18.91,24.32c-10.74-1.25-28.84-0.11-29.61-5.52c-0.48-3.48,7.07-6.44,9.25-7.48
			C423.28,334.62,436.71,334.8,448.6,329.77z"/>
		<path class="st3" d="M444.02,298.18c3.25-2.98,9.31-6.13,14.59-9.96c-1.94,7.45-6.61,13.88-7.86,21.63
			c-0.19,1.21-0.23,2.43-0.16,3.66c-5.16-1.21-11.41-1.51-13.31-3.88C434.06,305.64,441.72,300.29,444.02,298.18z"/>
		<path class="st3" d="M441.18,270.44c3.04-11.8,17.13-18.67,25.12-27.5c-2.51,8.87-9.02,16.2-9.87,25.68
			c-0.05,0.53-0.05,1.04-0.01,1.54c-3.65,1.09-7.11,2.55-8.61,2.95C446.44,273.47,440.46,273.28,441.18,270.44z"/>
		<path class="st3" d="M442.27,186.47c-0.37-4.7,7.33-14.81,11.29-22.17c0.21,4.89-1.18,9.95,0.34,14.6
			c0.83,2.57,2.54,4.61,4.17,6.68C451.49,188.15,442.85,193.96,442.27,186.47z"/>
		<path class="st3" d="M462.06,197.44c-0.57,7.07-4.59,14.18-3.49,21.43c0.24,1.59,0.92,3.03,1.8,4.37
			c-5.25,2.1-10.55,5.2-13.54,1.77c-2.56-2.95,2.02-8.98,3.67-11.16C452.86,210.76,458.41,203.85,462.06,197.44z"/>
		<path class="st4" d="M427.6,181.31c1.79,3.39,2.55,7.11,3.52,10.79c0.29,1.11,0.48,3.96,1.61,4.59c1.8,0.99,3.43-3.92,3.67-4.96
			c1.08-4.94,3.14-13.26,0.02-17.88c-3.75-5.55-9.9,1.63-8.92,6.1L427.6,181.31z"/>
		<path class="st4" d="M420.16,188.18c-3.61-1.67-9.78,6.13-10.51,9.18c-0.95,4,0.59,7.6,0.04,11.46
			c-1.4,9.75-6.15,14.62-3.48,24.79c0.62,2.37,1.22,5.03,2.77,7.01c5.78,7.34,10.85-6.12,12.07-9.76
			c3.5-10.47,4.92-22.78,2.11-33.57c-0.57-2.18-0.44-5.64-1.87-7.55L420.16,188.18z"/>
		<path class="st4" d="M397.97,248.02c-9.02,3.87-9.05,28.89,0.73,32.2c4.02,1.36,5.9-4.88,7.07-7.66
			c2.97-7.12,0.32-18.83-5.04-24.32L397.97,248.02z"/>
		<path class="st4" d="M382.79,284c-12.51,4.01-12.07,14.12-15.15,24.92c-1.33,4.64-4.53,8.17-5.81,12.94
			c-1.03,3.83-2.98,14.89,2.57,16.91c5.4,1.97,13.17-7.99,15.36-11.62c6.78-11.26,15.44-31.51,5-43.22L382.79,284z"/>
		<path class="st4" d="M348.77,341.28c-0.6-3.92-7.72,5.1-8.28,6.09c-4.34,7.68-8.56,18.16-10.58,26.74
			c-0.55,2.34-1.52,8.42,1.25,9.99c4.53,2.58,9.9-2.72,12.77-5.4c7.45-6.99,17.99-28.6,7.65-37.57L348.77,341.28z"/>
	</g>
	<g>
		<g transform="matrix(1,0,0,1,96.9099,179.426)">
			<path class="st5" d="M249.86,134.07c-0.07,1.87-0.41,3.46-0.92,4.84c-2.8,7.43-10.92,8.66-11.56,14.11
				c-0.65,5.51,2.58,10.52,3.69,16.12c0.43,2.18,0.54,4.44-0.02,6.86c-0.87,3.75-3.08,7.32-5.73,10.78
				c-3.91,5.14-8.77,10.04-11.62,14.95c-1.83,3.16-2.94,6.58-4.04,10.03c-1.1,3.47-2.18,6.94-3.92,10.13
				c-1.74,3.16-3.98,5.83-6.55,8.18c-7.04,6.49-16.49,10.65-24.26,16.22c-1.24,0.88-2.43,1.8-3.57,2.78
				c-0.23,0.2-0.46,0.39-0.69,0.6c-8.18,7.06-16.01,14.64-24.66,21.2c-1.12,0.85-2.23,1.69-3.36,2.52c-2.3,1.7-4.6,3.39-6.92,5.09
				c-0.05,0.03-3.96,2.11-7.53,3.97c-1.54,0.8-3.03,1.56-4.1,2.09c0,0-0.26-0.37-0.14-0.51c1.54-1.72,1.94-2.45,3.98-4.48
				c6.06-6.02,13.23-12.83,15.06-17.01c3.38-7.8,6.52-16.01,9.15-24.41c5.24-16.67,8.56-34.2,8.14-51.21
				c-0.53-21.81-9.9-24.55-12.82-41.2c-2.32-13.32,3.36-26.3-1.71-39.29c-3.87-9.9-12.23-16.47-14.74-27.16
				c-2-8.5,0.87-17.47,0.24-26.04c-0.59-7.85-4.38-14.47-7.55-21.27c-1.67-3.58-3.17-7.21-3.92-11.08
				c-2.01-10.27,2.22-19.06,1.05-28.93C129.5-19.29,119.5-26.82,120-38.66c0.54-12.89,9.43-15.84,5.06-32.06
				c-3.37-12.51-15.87-20.73-14.3-34.5c1.39-12.21,11.41-19.43,11.61-32.87c0.06-3.74-4.37-17.83-4.37-18.25
				c0,0,0.01,0.01,0.03,0.05l1.03-0.18c9.76,5.13,17.97-1.47,25.24,0.26c0.45,0.11,0.89,0.25,1.31,0.41
				c7.13,2.71,11.33,12.75,17.07,17.13c1.45,1.12,3.08,1.83,4.76,2.42c3.53,1.23,7.28,1.87,10.11,4.31c0.26,0.23,0.52,0.46,0.76,0.7
				c6.36,6.45,2.41,16.78,6.26,23.99c1.54,2.89,3.61,5.16,5.9,7.17c5,4.37,11.1,7.41,15.22,12.37c0.73,0.86,1.39,1.78,1.97,2.77
				c5.42,9.25,0.32,20.82,4.29,30.59c1.12,2.73,2.86,5.21,4.8,7.61c4.23,5.17,9.37,9.91,10.96,15.74c0.34,1.25,0.57,2.49,0.73,3.72
				c1.43,11.37-4.17,22.18,0.76,34.23c1.08,2.66,2.83,5.34,4.75,8.08c4.37,6.26,9.55,12.76,9.33,19.64
				c-0.01,0.42-0.06,0.82-0.12,1.23c-0.85,5.44-5.86,9.36-6.05,14.19c-0.23,5.6,2.32,11.2,5.12,16.84
				c3.05,6.14,6.39,12.33,6.76,18.6c0.06,1,0,2.01-0.16,2.99c-1.27,8.26-9.12,15.43-8.77,19.78c0.43,5.29,3.62,9.78,6.24,14.41
				C248.31,126.27,250.02,129.92,249.86,134.07z"/>
		</g>
		<path class="st6" d="M216.18,24.26c1.6,1.9,3.03,3.93,4.49,5.93l4.3,6.07l8.42,12.26c5.58,8.2,11.12,16.42,16.61,24.69
			c10.94,16.67,19.12,34.98,25.97,53.63c3.45,9.33,6.53,18.78,9.39,28.29c2.87,9.52,5.48,19.13,7.65,28.85
			c2.16,9.72,3.85,19.57,4.88,29.51c0.52,4.98,0.75,9.97,1.1,14.88l1.09,14.82c0.71,9.89,1.35,19.82,1.51,29.79
			c0.19,9.97-0.25,19.97-1.21,29.88c-0.95,9.92-2.34,19.78-4.1,29.58c-0.89,4.9-1.85,9.78-2.93,14.64
			c-1.1,4.85-2.29,9.68-3.59,14.49c-5.2,19.2-11.87,38.06-20.97,55.79c-4.61,8.82-9.81,17.35-15.92,25.21
			c-6.06,7.88-13.09,15.07-21.17,20.83c3.92-3.03,7.6-6.36,10.98-9.98c3.41-3.58,6.56-7.4,9.48-11.39
			c5.86-7.96,10.8-16.56,15.15-25.42c8.73-17.73,15.07-36.56,19.93-55.7c4.76-19.17,8.31-38.66,10.08-58.32
			c0.9-9.83,1.28-19.67,1.05-29.53c-0.2-9.86-0.91-19.72-1.64-29.6l-1.02-14.85c-0.33-4.98-0.53-9.9-1.01-14.78
			c-0.96-9.79-2.58-19.53-4.67-29.17c-2.1-9.64-4.64-19.19-7.45-28.67c-2.84-9.48-5.76-18.93-9.03-28.26
			c-6.51-18.65-14.36-36.91-24.92-53.61c-5.27-8.39-10.6-16.75-15.97-25.09l-8.1-12.47l-4.09-6.21
			C219.07,28.29,217.71,26.21,216.18,24.26z"/>
		<path class="st6" d="M249.98,75.8c-0.9-6.12-0.24-12.22,0.75-18.12c1-5.92,2.38-11.73,3.1-17.68c-0.38,5.97-1.42,11.9-2.07,17.82
			c-0.65,5.91-0.92,11.9,0.27,17.61c0.12,0.57-0.25,1.12-0.81,1.24c-0.57,0.12-1.12-0.25-1.24-0.81
			C249.99,75.85,249.98,75.82,249.98,75.8z"/>
		<path class="st6" d="M268.38,113.13c2.85-13.01,6.95-25.72,12.33-37.83c-4.74,12.37-8.13,25.22-10.28,38.22
			c-0.09,0.57-0.63,0.96-1.2,0.87c-0.57-0.09-0.96-0.63-0.87-1.2C268.37,113.17,268.38,113.15,268.38,113.13z"/>
		<path class="st6" d="M285.33,163.68c0.56-4.05,1.82-7.87,3.32-11.55c1.5-3.68,3.27-7.23,5.2-10.68c1.92-3.44,4-6.85,6.49-9.91
			c2.39-3.11,4.93-6.18,6.29-9.9c-1.19,3.78-3.63,7.01-5.87,10.21c-2.34,3.16-4.22,6.58-5.99,10.09c-1.76,3.5-3.35,7.08-4.66,10.75
			c-1.31,3.66-2.35,7.44-2.71,11.21l0,0.02c-0.05,0.58-0.56,1-1.14,0.94c-0.58-0.05-1-0.56-0.94-1.14
			C285.33,163.71,285.33,163.69,285.33,163.68z"/>
		<path class="st6" d="M295.92,218.57c3.46-6.99,6.76-14.23,11.43-20.63c2.27-3.26,5.19-5.99,8.03-8.66
			c2.82-2.69,5.64-5.47,7.47-8.96c-1.67,3.57-4.39,6.52-7.1,9.33c-2.74,2.81-5.47,5.59-7.54,8.88c-4.31,6.49-7.23,13.74-10.4,20.92
			c-0.23,0.53-0.85,0.77-1.38,0.54c-0.53-0.23-0.77-0.85-0.54-1.38C295.91,218.6,295.92,218.58,295.92,218.57z"/>
		<path class="st6" d="M298.59,258.11c2.04-3.45,4.54-6.55,7.24-9.42c2.7-2.87,5.61-5.51,8.64-7.99
			c6.08-4.94,12.62-9.27,19.48-12.97c-6.69,4-13,8.61-18.8,13.77c-2.89,2.59-5.64,5.32-8.16,8.25c-2.51,2.92-4.79,6.04-6.58,9.39
			l0,0.01c-0.27,0.51-0.91,0.7-1.42,0.43c-0.51-0.27-0.7-0.91-0.43-1.42C298.58,258.14,298.59,258.12,298.59,258.11z"/>
		<path class="st6" d="M297.89,318.76c0.03-0.05,0.05-0.11,0.07-0.17c0.97-0.11-2.8-2.1-1.78-1.01c-0.01,0.01-0.05,0.06-0.04,0.04
			l0.01-0.02l0.05-0.07l0.11-0.15l0.22-0.31l0.44-0.63l0.91-1.29l2.23-2.29c1.46-1.44,2.94-2.89,4.51-4.25
			c1.55-1.37,3.29-2.62,4.97-3.74l5.02-3.52c6.66-4.73,13.35-9.59,20.75-13.15c-7.24,3.87-13.66,8.97-20.12,13.99l-4.88,3.74
			c-1.68,1.22-3.21,2.43-4.68,3.84c-1.47,1.38-2.86,2.86-4.25,4.36l-1.97,2.18l-0.81,1.25l-0.42,0.65l-0.21,0.33l-0.11,0.17
			l-0.06,0.09l-0.04,0.06l-0.07,0.08c1.02,1.1-2.77-0.88-1.79-1c0.02-0.07,0.05-0.13,0.08-0.19c0.28-0.51,0.91-0.69,1.42-0.42
			C297.98,317.62,298.16,318.26,297.89,318.76z"/>
		<path class="st6" d="M292.68,339.09c3.02-2.12,6.44-3.21,9.8-4.07c3.39-0.83,6.74-1.45,10.1-2.23c3.36-0.74,6.73-1.49,10.12-2.1
			c1.71-0.28,3.38-0.64,5.13-0.75c1.73-0.08,3.45,0.14,5.17,0c-1.71,0.23-3.45,0.1-5.15,0.26c-1.68,0.19-3.37,0.64-5.04,1
			c-3.35,0.78-6.66,1.69-9.98,2.6c-3.3,0.94-6.68,1.76-9.93,2.73c-3.23,1-6.43,2.24-8.97,4.23l-0.01,0.01
			c-0.45,0.36-1.11,0.28-1.47-0.18c-0.36-0.45-0.28-1.11,0.18-1.47C292.65,339.11,292.67,339.1,292.68,339.09z"/>
		<path class="st6" d="M276.71,393.31c3.23-2.58,6.8-4.67,10.54-6.29c3.72-1.66,7.58-2.9,11.45-4.04l11.62-3.27
			c1.95-0.51,3.91-0.96,5.89-1.33c0.99-0.18,1.98-0.35,2.99-0.46c1-0.09,2.02-0.2,3.01,0.01c-0.99-0.17-2-0.02-2.99,0.12
			c-0.99,0.15-1.97,0.36-2.95,0.58c-1.95,0.45-3.89,0.99-5.8,1.58L299,383.98c-3.79,1.3-7.55,2.7-11.1,4.47
			c-3.57,1.74-6.9,3.89-9.85,6.46l-0.01,0.01c-0.44,0.38-1.1,0.34-1.48-0.1c-0.38-0.44-0.34-1.1,0.1-1.48
			C276.68,393.33,276.7,393.32,276.71,393.31z"/>
		<path class="st6" d="M293.11,334.7c-4.11-9.13-9.68-17.61-16.13-25.36c-3.21-3.89-6.65-7.59-10.24-11.14
			c-0.89-0.89-1.81-1.77-2.72-2.64c-0.9-0.9-1.86-1.68-2.93-2.36c-2.11-1.37-4.46-2.43-6.33-4.17c1.92,1.67,4.29,2.64,6.46,3.95
			c1.1,0.64,2.13,1.43,3.05,2.29c0.95,0.84,1.89,1.68,2.82,2.55c3.72,3.44,7.31,7.04,10.68,10.84c6.76,7.58,12.7,15.96,17.23,25.15
			c0.26,0.52,0.04,1.15-0.48,1.4c-0.52,0.26-1.15,0.04-1.4-0.48C293.12,334.72,293.11,334.71,293.11,334.7z"/>
		<path class="st6" d="M298.86,286.46c-2.28-6.6-5.99-12.69-10.19-18.38c-4.23-5.69-8.82-11.11-13.95-16.01
			c-5.09-4.94-10.67-9.38-16.61-13.29c-5.93-3.92-12.24-7.27-18.76-10.14c6.59,2.71,12.99,5.91,19.05,9.7
			c6.06,3.78,11.78,8.12,17.04,12.97c5.3,4.82,10.08,10.19,14.49,15.83c4.39,5.65,8.35,11.78,10.9,18.62
			c0.2,0.54-0.07,1.14-0.61,1.35c-0.54,0.2-1.14-0.07-1.35-0.61C298.87,286.48,298.86,286.47,298.86,286.46z"/>
		<path class="st6" d="M296.19,226.62c-0.84-3.59-2.27-7.01-4.43-9.97c-1.06-1.47-2.38-2.85-3.61-4.28c-1.24-1.42-2.53-2.8-3.8-4.2
			c-5.16-5.52-10.6-10.78-16.37-15.66c-5.77-4.87-11.87-9.39-18.42-13.18c-6.54-3.79-13.51-6.91-20.86-8.8
			c7.39,1.71,14.46,4.68,21.12,8.34c6.67,3.65,12.91,8.06,18.83,12.82c5.92,4.78,11.52,9.95,16.84,15.39
			c1.31,1.38,2.64,2.74,3.93,4.14c1.27,1.42,2.61,2.75,3.81,4.33c2.4,3.12,4.03,6.79,5,10.56l0,0.01c0.14,0.56-0.19,1.13-0.75,1.27
			c-0.56,0.14-1.13-0.19-1.27-0.75C296.2,226.63,296.19,226.62,296.19,226.62z"/>
		<path class="st6" d="M285,162.45c-3.29-5.32-7.68-9.98-12.39-14.23c-4.74-4.24-9.84-8.09-15.08-11.75
			c-5.25-3.64-10.61-7.15-16.02-10.56c-5.42-3.39-10.98-6.59-16.85-9.15c5.94,2.4,11.6,5.46,17.12,8.71
			c5.51,3.27,10.97,6.63,16.33,10.14c5.36,3.53,10.6,7.27,15.52,11.43c4.9,4.18,9.52,8.8,13.13,14.3c0.32,0.48,0.18,1.13-0.3,1.45
			c-0.48,0.32-1.13,0.18-1.45-0.3c0-0.01-0.01-0.01-0.01-0.02L285,162.45z"/>
		<path class="st6" d="M262.26,99.44c-3.24-3.94-6.73-7.7-10.45-11.22c-3.72-3.52-7.64-6.83-11.81-9.82
			c-4.25-2.91-8.36-6.04-12.55-9.03c-2.09-1.5-4.19-2.99-6.33-4.43c-2.14-1.42-4.29-2.86-6.63-3.94c2.38,1,4.58,2.37,6.77,3.72
			c2.19,1.37,4.34,2.79,6.48,4.22c4.3,2.86,8.49,5.83,12.84,8.6c4.31,2.87,8.39,6.08,12.28,9.52c3.89,3.43,7.55,7.12,10.99,11.02
			c0.38,0.43,0.34,1.09-0.09,1.48c-0.43,0.38-1.1,0.34-1.48-0.09C262.28,99.47,262.27,99.45,262.26,99.44z"/>
		<path class="st3" d="M242.5,23.62c7.14,2.71,11.33,12.75,17.07,17.13c1.45,1.12,3.08,1.83,4.76,2.42
			c-2.74,10.6-3.44,26.45-12.46,25.76C241.88,68.15,245.9,38.96,242.5,23.62z"/>
		<path class="st3" d="M271.22,96.56c-5.48-4.47,2.29-31.32,3.97-48.38c6.36,6.45,2.41,16.78,6.26,23.99
			c1.54,2.89,3.61,5.16,5.9,7.17C281.34,88.09,275.21,99.81,271.22,96.56z"/>
		<path class="st3" d="M306.09,409.5c-7.04,6.49-16.49,10.65-24.26,16.22c-1.24,0.88-2.43,1.8-3.57,2.78
			c-0.23,0.2-0.46,0.39-0.69,0.6c-8.18,7.06-16.01,14.64-24.66,21.2c-1.12,0.85-2.23,1.69-3.36,2.52c-2.3,1.7-4.6,3.39-6.92,5.09
			c-0.05,0.03-3.96,2.11-7.53,3.97c-1.54,0.8-2.91,2.18-4.1,2.09c-0.32-0.03-0.26-0.37-0.14-0.51c1.54-1.72,1.94-2.45,3.98-4.48
			c6.06-6.02,13.23-12.83,15.06-17.01c3.38-7.8,6.52-16.01,9.15-24.41c3.16-1.34,6.41-2.5,9.73-3.49c0.51-0.16,1.01-0.3,1.52-0.45
			c2.58-0.73,8.61-0.95,15.63-1.43C292.47,411.73,299.87,411.04,306.09,409.5z"/>
		<path class="st3" d="M302.55,91.7c0.73,0.86,1.39,1.78,1.97,2.77c5.42,9.25,0.32,20.82,4.29,30.59c1.12,2.73,2.86,5.21,4.8,7.61
			c-8.57,10.16-18.41,25.79-23.26,22.79C282.46,150.59,299.71,116.52,302.55,91.7z"/>
		<path class="st3" d="M325.31,152.12c1.43,11.37-4.17,22.18,0.76,34.23c1.08,2.66,2.83,5.34,4.75,8.08
			c-12.4,7.11-26.32,21.57-29.58,17.92C294.62,204.97,316.45,176.52,325.31,152.12z"/>
		<path class="st3" d="M332.21,366.2c-3.91,5.14-8.77,10.04-11.62,14.95c-1.83,3.16-2.94,6.58-4.04,10.03
			c-9.8-3.61-44.41,10.17-27.94-9.1C294.88,374.74,316.01,370.9,332.21,366.2z"/>
		<path class="st3" d="M345.69,267.92c-1.27,8.26-9.12,15.43-8.77,19.78c0.43,5.29,3.62,9.78,6.24,14.41
			c-13.33,2.1-34.1,12.62-35.56,7.82c-0.64-2.09,2.1-6.18,3-7.88c2.93-5.5,5.26-11.07,10.01-15.37
			C326.74,281.11,337.78,275.28,345.69,267.92z"/>
		<path class="st3" d="M333.97,229.49c-0.23,5.6,2.32,11.2,5.12,16.84c-9.54,4.86-20.54,12.64-23.17,13.86
			c-0.69,0.32-5.31,2.01-5.88,0.19c-5.41-17.21,16.23-32.59,29.99-45.09C339.18,220.75,334.16,224.66,333.97,229.49z"/>
		<path class="st3" d="M334.27,332.44c-0.65,5.51,2.58,10.52,3.69,16.12c-16.96,3.03-43.1,14.42-43.66,1.57
			c-0.89-20.72,34.77-23.04,51.53-31.8C343.04,325.75,334.92,326.98,334.27,332.44z"/>
		<path class="st4" d="M225.56,53.64c-2.4,5.14-10.78,11.95-11.25,17.54c-0.93,11.2,20.13,45.15,33.39,41.24
			c7.38-2.17,5.85-12.69,4.43-17.92c-3.72-13.69-11.58-29.04-21.71-39.3L225.56,53.64z"/>
		<path class="st4" d="M239.46,124.44c-22.48,17.47,0.35,27.3,2.39,46.54c0.45,4.27-2,8.4-3.11,12.41
			c-3.13,11.31-0.37,25.66,7.93,34.22c29.2,30.12,44.84,6.81,35.86-27.3c-2.53-9.61-5.8-19.58-10.04-28.59
			c-7.74-16.47-15.69-26.58-29.74-36.69L239.46,124.44z"/>
	</g>
	<path class="st7" d="M312.9,329.97c-0.08,0.45-0.18,0.9-0.33,1.35c-0.25,0.8-0.59,1.54-1,2.25c-2.29,3.91-6.62,6.57-7.59,11.06
		c-0.82,3.84-0.64,7.65-0.34,11.45c0.08,1.01,0.17,2.02,0.25,3.03c0.29,3.46,0.47,6.93-0.1,10.44c-0.02,0.1-0.03,0.21-0.07,0.33
		c-0.35,1.76-1.06,3.35-1.88,4.86c-1.58,2.93-3.57,5.57-4.1,8.63c-0.02,0.16-0.06,0.33-0.07,0.48c-0.42,2.78-0.24,5.47-0.08,8.13
		l0.03,0.44c0.21,3.44,0.34,6.86-0.98,10.47c-0.03,0.1-0.07,0.2-0.1,0.29c-1.98,4.94-6.77,4.51-9.95,8.13
		c-0.24,0.27-0.46,0.56-0.65,0.86c-2.69,4-1.52,9.6-4.1,13.54c-0.11,0.18-0.23,0.35-0.36,0.52c-1.06,1.38-2.41,2.24-3.9,2.86
		c-3.38,1.43-7.47,1.61-10.52,3.57c-7.59,4.86-11.95,13.21-17.5,20.15c-1.09,1.36-2.23,2.68-3.45,3.9
		c-3.3,3.33-7.44,5.33-10.78,8.37c0,0-0.02-0.44-0.08-1.24c-0.03-0.51-0.09-1.17-0.15-1.97c-0.03-0.35-0.07-0.73-0.1-1.14
		c-0.05-0.54-0.1-1.14-0.16-1.77c6.06-6.02,13.23-12.83,15.06-17.01c3.38-7.8,6.52-16.01,9.15-24.41
		c5.24-16.67,8.56-34.2,8.14-51.21c-0.53-21.81-9.9-24.55-12.82-41.2c-2.32-13.32,3.36-26.3-1.71-39.29
		c-3.87-9.9-12.23-16.47-14.74-27.16c-2-8.5,0.87-17.47,0.24-26.04c-0.59-7.85-4.38-14.47-7.55-21.27c1.71-2.61,3.12-5.13,3.66-7.42
		c1.69-7.08,1.06-27.09,2.24-26.94c1.09,0.14,2.31,1.01,3.6,2.38c1.53,1.6,3.16,3.89,4.79,6.42c4.4,6.85,8.84,15.58,11.43,18.05
		c0.3,0.29,0.65,0.59,1.03,0.83c3.34,2.49,8.44,3.83,10.17,7.61c0.35,0.77,0.56,1.6,0.7,2.48c0.44,2.92-0.03,6.29,0.59,9.08
		c0.65,2.89,2.06,5.24,3.63,7.46c2.18,3.11,4.67,5.96,5.79,9.66c1.05,3.44-0.03,7.27,0.85,10.69c0.09,0.3,0.18,0.62,0.29,0.92
		c1.96,5.11,9.14,7.52,13.15,11.62c0.5,0.5,0.94,1.01,1.31,1.57c3.78,5.53,3.34,12.53,6.12,18.45c0.08,0.2,0.17,0.39,0.27,0.59
		c0.38,0.76,0.82,1.49,1.35,2.2c2.05,2.8,5.37,4.86,7.39,7.78c0,0,0,0,0,0.01c0.68,0.97,1.21,2.05,1.49,3.29
		c0.46,1.95-0.21,3.89-0.91,5.82c0,0.01,0,0.01-0.01,0.01c-0.28,0.78-0.56,1.57-0.78,2.34c-0.19,0.68-0.33,1.35-0.36,2.03
		c-0.05,0.86,0,1.71,0.11,2.57c0.28,2.13,0.98,4.25,1.75,6.36c1.04,2.82,2.2,5.62,2.63,8.45
		C313.1,327.12,313.14,328.54,312.9,329.97z"/>
	<g>
		<g transform="matrix(1,0,0,1,440.815,-288.816)">
			<path class="st5" d="M-199.18,702.78c0.52,5.25,1.23,11.02,0.71,16.3c-0.35,3.58-3.43,6.88-3.57,10.02
				c-0.23,4.61,1.92,9.27,1.04,13.95c-1.01,5.4-5.42,9.67-5.06,15.38c-10.01-11.64-4.25-14.23-8.7-26.51
				c-1.01-2.82-2.6-4.94-4.42-6.76c-3.46-3.49-7.77-5.96-10.53-10.34c-5.24-8.28-2.3-18.86-7.52-27.57
				c-3.65-6.1-11.34-8.58-15.71-14.03c-5.55-6.9-4.95-16.86-11.71-23.88c-3.84-3.99-9.66-5.41-13.74-9.25
				c-6.66-6.3-8.66-14.66-14.5-21.3c-3.78-4.29-9.02-6.23-12.38-11.14c-2.51-3.67,0.28-8.21-0.65-12.29
				c-1.76-7.66-8.19-13.5-9.55-21.28c-0.98-5.6,0.96-10.63-1.43-16.17c-2.33-5.41-6.98-7.5-9.92-12.15
				c-3.58-5.66-1.21-12.88-3.54-18.86c-1.54-3.93-5.42-6.81-6.81-10.73c-0.9-2.56,0.52-5.11,0.77-7.62
				c0.52-5.25-2.73-9.69-2.29-14.6c0.37-4.08,3.47-7.02,2.69-11.34c-0.77-4.33-3.75-7.57-4.91-11.69c-0.73-2.59,1.81-5.43,2.22-7.95
				c0.97-5.94-3.73-13.17-1.66-18.56c2.38-6.22,10.94-10.76,14.48-16.58c4.17-6.86,4.68-17.14,4.72-17.16
				c0.28,0,4.67,8.43,5.24,9.21c1.49,2.04,3.05,3.78,4.62,5.42c3.4,3.56,6.82,6.72,9.5,11.56c2.71,4.88,7.51,6.32,11.84,8.33
				c2.72,1.26,5.24,2.74,6.97,5.42c0.91,1.44,1.44,3.07,1.86,4.75c0.65,2.64,1.01,5.41,2.18,7.79c1.21,2.49,2.96,4.67,4.82,6.79
				c2.86,3.28,5.94,6.42,7.43,10.32c0.37,0.99,0.71,2.01,1,3.03c1.56,5.31,2.27,10.98,4.31,16.15c1.47,3.69,4.34,6,7.36,8.19
				c3.01,2.2,6.17,4.29,8.25,7.55c0.78,1.21,1.38,2.5,1.89,3.83c1.49,3.87,2.28,8.05,4.59,11.44c1.69,2.47,4.67,3.85,7.03,5.78
				c1.35,1.09,2.5,2.37,3.11,4.11c0.88,2.56,0.76,5.09,1.1,7.57c0.27,1.86,0.8,3.69,2.22,5.49c2.48,3.11,6.73,4.28,8.89,7.9
				c1.23,2.06,1.6,4.35,1.92,6.66c0.29,2.19,0.52,4.41,1.36,6.47c1.85,4.53,6.7,7.72,7.91,12.5c0.07,0.23,0.11,0.46,0.16,0.7
				c1.6,9.27-0.38,19.22,1.22,28.7c0.11,0.64,0.25,1.26,0.43,1.87c1.7,5.8,6.26,10.16,6.46,16.64c0.01,0.08,0.01,0.17,0.01,0.25
				c0.12,9.65-4.97,19.67-4.47,29.49c0.04,0.71,0.11,1.41,0.2,2.12c0.55,4.02,4.02,6.51,4.45,10.79c0.01,0.02,0.01,0.03,0.01,0.06
				C-196.47,685.98-199.96,694.86-199.18,702.78z"/>
		</g>
		<path class="st6" d="M119.68,127.63l-0.07-0.71l-0.04-0.35c0.08,0.04,0.03,0.22,0.05,0.32l0.08,1.43l0.19,2.85l0.41,5.7
			c0.27,3.79,0.76,7.57,1.33,11.33c0.57,3.76,1.22,7.51,1.86,11.27c0.64,3.77,1.23,7.53,1.95,11.25
			c2.84,14.92,7.4,29.46,12.85,43.64c2.73,7.09,5.65,14.1,8.69,21.07c1.52,3.49,3.12,6.93,4.71,10.39
			c1.59,3.45,3.17,6.91,4.85,10.33c6.53,13.74,13.44,27.32,20.33,40.92c6.83,13.63,13.73,27.24,20.18,41.09
			c6.4,13.87,12.57,27.87,17.82,42.24c5.2,14.38,9.64,29.05,12.9,44l2.16,11.26l1.54,11.36c0.58,3.78,0.75,7.6,1.22,11.37
			c0.43,3.78,1.1,7.53,2.24,11.18c-1.3-3.59-2.15-7.33-2.75-11.11c-0.61-3.78-0.89-7.58-1.6-11.32l-1.9-11.25l-2.52-11.12
			c-3.57-14.78-8.26-29.26-13.72-43.44c-11.1-28.32-24.79-55.54-38.58-82.72c-6.83-13.63-13.74-27.23-20.2-41.08
			c-1.65-3.44-3.2-6.93-4.76-10.42c-1.56-3.49-3.14-6.97-4.63-10.49c-3.01-7.03-5.82-14.14-8.41-21.34
			c-5.18-14.39-9.51-29.14-12.04-44.26c-0.6-3.79-1.06-7.58-1.58-11.34c-0.52-3.78-1.04-7.56-1.49-11.35
			c-0.44-3.79-0.82-7.6-0.95-11.42l-0.16-5.72l-0.06-2.86l-0.02-1.43c0.02-0.11-0.06-0.27,0.06-0.33l0.03,0.36L119.68,127.63z"/>
		<path class="st6" d="M129.73,196.87c-0.76-2.11-0.71-4.14-0.57-6.1c0.16-1.96,0.49-3.87,0.89-5.76c0.81-3.77,1.88-7.45,3.04-11.09
			c1.16-3.64,2.42-7.25,3.69-10.84c1.26-3.6,2.61-7.17,3.71-10.82c-0.94,3.7-2.12,7.33-3.22,10.98c-1.11,3.65-2.2,7.3-3.19,10.97
			c-0.98,3.67-1.88,7.37-2.5,11.09c-0.31,1.86-0.54,3.73-0.61,5.57c-0.07,1.83,0.04,3.71,0.67,5.18l0.02,0.05
			c0.23,0.53-0.02,1.15-0.55,1.37c-0.53,0.23-1.15-0.02-1.37-0.55C129.75,196.9,129.74,196.88,129.73,196.87z"/>
		<path class="st6" d="M141.32,228.09c1.33-9.35,3.97-18.43,7.5-27.11c3.56-8.67,8.04-16.96,13.61-24.46
			c-5.29,7.7-9.43,16.12-12.64,24.83c-3.18,8.73-5.44,17.8-6.4,26.98c-0.06,0.58-0.57,0.99-1.14,0.94
			c-0.58-0.06-0.99-0.57-0.94-1.14C141.31,228.12,141.31,228.1,141.32,228.09z"/>
		<path class="st6" d="M153.66,256.41c0.53-4.36,1.79-8.51,3.29-12.52c1.52-4.01,3.33-7.89,5.35-11.65
			c2.03-3.76,4.27-7.39,6.73-10.87c2.47-3.47,5.16-6.8,8.24-9.72c-2.97,3.05-5.5,6.47-7.81,10.02c-2.3,3.55-4.38,7.25-6.23,11.06
			c-1.84,3.81-3.48,7.71-4.8,11.7c-1.31,3.99-2.36,8.09-2.69,12.19l0,0.02c-0.05,0.58-0.55,1.01-1.13,0.96
			c-0.58-0.05-1.01-0.55-0.96-1.13C153.65,256.44,153.66,256.43,153.66,256.41z"/>
		<path class="st6" d="M175.29,299.66c-0.63-5.71-0.53-11.48,0.31-17.13c0.88-5.64,2.37-11.18,4.5-16.45
			c2.12-5.27,4.73-10.34,7.82-15.08c0.78-1.18,1.52-2.4,2.43-3.49c0.9-1.1,1.86-2.14,2.83-3.17c1.93-2.05,3.9-4.11,5.23-6.61
			c-1.26,2.54-3.18,4.68-5.04,6.79c-0.93,1.06-1.86,2.12-2.71,3.23c-0.87,1.1-1.56,2.32-2.3,3.52c-2.93,4.81-5.36,9.91-7.29,15.17
			c-1.94,5.26-3.23,10.75-3.92,16.28c-0.65,5.54-0.57,11.15,0.21,16.64l0,0.01c0.08,0.57-0.32,1.1-0.89,1.18
			c-0.57,0.08-1.1-0.32-1.18-0.89C175.29,299.69,175.29,299.67,175.29,299.66z"/>
		<path class="st6" d="M192.88,334.99c-1.35-3.22-1.26-6.61-0.95-9.78c0.33-3.2,1.02-6.29,1.6-9.35c1.01-6.18,2.42-12.39,4.22-18.42
			c3.64-12.07,8.77-23.63,14.82-34.63c-5.74,11.16-10.53,22.84-13.81,34.92c-1.63,6.06-2.84,12.16-3.68,18.4
			c-0.5,3.12-1.1,6.18-1.32,9.25c-0.22,3.03-0.15,6.17,1.04,8.76l0.01,0.01c0.24,0.53,0.01,1.15-0.52,1.39
			c-0.53,0.24-1.15,0.01-1.39-0.52C192.89,335.01,192.89,335,192.88,334.99z"/>
		<path class="st6" d="M204.69,359.27c0.79-4.33,2.54-8.37,4.75-12.04c2.23-3.67,4.92-6.99,7.75-10.15
			c2.83-3.16,5.84-6.14,8.83-9.11c1.52-1.46,2.92-3.06,4.59-4.38c0.81-0.68,1.63-1.34,2.39-2.07c0.75-0.73,1.5-1.49,1.96-2.45
			c-0.42,0.97-1.14,1.78-1.87,2.54c-0.74,0.76-1.53,1.46-2.31,2.17c-1.6,1.37-2.92,3.02-4.38,4.55c-2.87,3.1-5.74,6.19-8.41,9.43
			c-2.67,3.24-5.18,6.62-7.18,10.26c-1.99,3.64-3.48,7.54-4.04,11.57l0,0.02c-0.08,0.57-0.61,0.97-1.18,0.89
			c-0.57-0.08-0.97-0.61-0.89-1.18C204.69,359.3,204.69,359.28,204.69,359.27z"/>
		<path class="st6" d="M218.16,396.28c0.32-2.85,1.36-5.57,2.85-7.92c1.49-2.36,3.37-4.38,5.35-6.24c1.98-1.86,4.07-3.56,6.13-5.29
			c2.05-1.73,4.09-3.49,5.86-5.52c-1.63,2.14-3.57,4.04-5.51,5.91c-1.94,1.86-3.92,3.69-5.74,5.64c-1.82,1.94-3.49,4.01-4.74,6.3
			c-1.25,2.27-2,4.76-2.12,7.29c-0.03,0.58-0.52,1.02-1.09,1c-0.58-0.03-1.02-0.52-1-1.09C218.16,396.33,218.16,396.3,218.16,396.28
			z"/>
		<path class="st6" d="M226.39,426.24c0.46-2.24,1.21-4.41,2.27-6.42c1.06-2.01,2.42-3.81,3.91-5.45c1.49-1.64,3.11-3.12,4.66-4.65
			c1.54-1.53,3.04-3.14,4.12-5.04c-0.93,1.99-2.31,3.74-3.74,5.4c-1.43,1.66-2.92,3.26-4.24,4.97c-1.32,1.7-2.47,3.52-3.3,5.46
			c-0.84,1.94-1.35,3.98-1.61,6.06l0,0.02c-0.07,0.57-0.6,0.98-1.17,0.91c-0.57-0.07-0.98-0.6-0.91-1.17
			C226.38,426.3,226.39,426.27,226.39,426.24z"/>
		<path class="st6" d="M130.58,199.57c-3.61-5.84-7.75-11.4-12.29-16.59c-2.28-2.59-4.67-5.09-7.22-7.42
			c-2.55-2.33-5.25-4.51-8.21-6.32c3.04,1.67,5.87,3.72,8.55,5.93c2.68,2.22,5.22,4.61,7.65,7.11c4.84,5.01,9.29,10.4,13.27,16.16
			c0.33,0.48,0.21,1.13-0.27,1.46c-0.48,0.33-1.13,0.21-1.46-0.27c-0.01-0.01-0.02-0.03-0.03-0.04L130.58,199.57z"/>
		<path class="st6" d="M141.59,229.95c-5.65-5.19-11.81-9.84-18.31-13.98c-6.51-4.14-13.35-7.77-20.3-11.14
			c7.1,3.06,14.11,6.38,20.84,10.25c6.73,3.86,13.18,8.28,19.15,13.3c0.44,0.37,0.5,1.03,0.13,1.47c-0.37,0.44-1.03,0.5-1.47,0.13
			C141.62,229.98,141.6,229.96,141.59,229.95z"/>
		<path class="st6" d="M156.53,258.06c0.02,0.02,0.07,0.07,0.04,0.05c0,0.02-0.01-0.05-0.32-0.16c-0.29-0.11-0.75,0.01-0.93,0.21
			c-0.17,0.13-0.34,0.41-0.36,0.66c-0.01,0.16,0,0.17,0,0.17l0,0.04l0.01,0.08c0.03,0.11,0.01,0.04,0,0.01l-0.06-0.13
			c-0.09-0.2-0.21-0.42-0.32-0.63c-0.23-0.43-0.48-0.87-0.74-1.3c-0.25-0.43-0.52-0.86-0.78-1.27c-0.13-0.2-0.28-0.43-0.28-0.39
			l-0.58-0.47c-1.57-1.25-3.22-2.41-4.91-3.51c-3.39-2.2-6.96-4.15-10.58-6.01c-3.6-1.86-7.35-3.44-11.23-4.67
			c-3.87-1.25-7.86-2.13-11.86-2.96c4.03,0.66,8.05,1.37,12,2.46c3.95,1.07,7.81,2.51,11.54,4.23c3.71,1.71,7.4,3.53,10.95,5.62
			c1.78,1.04,3.52,2.16,5.2,3.38l0.63,0.46c0.43,0.33,0.52,0.57,0.69,0.78c0.31,0.44,0.6,0.87,0.88,1.3
			c0.28,0.44,0.56,0.87,0.83,1.33c0.14,0.23,0.27,0.46,0.41,0.71l0.11,0.21c0.04,0.09,0.07,0.14,0.13,0.37l0.02,0.13l0.01,0.07
			c0,0.01,0.01,0.03,0,0.2c-0.02,0.26-0.19,0.56-0.37,0.7c-0.2,0.19-0.68,0.31-0.98,0.21c-0.37-0.13-0.43-0.24-0.47-0.26
			c-0.12-0.11-0.16-0.15-0.23-0.22c-0.41-0.41-0.42-1.07-0.01-1.48c0.41-0.41,1.07-0.42,1.48-0.01c0.01,0.01,0.03,0.03,0.04,0.04
			L156.53,258.06z"/>
		<path class="st6" d="M175.3,300.16c-6.55-6.91-14.07-12.96-22.42-17.68c-8.33-4.75-17.41-8.16-26.75-10.45
			c9.42,1.96,18.67,5.04,27.25,9.54c8.6,4.46,16.47,10.32,23.42,17.14c0.41,0.4,0.42,1.07,0.01,1.48c-0.4,0.41-1.07,0.42-1.48,0.01
			c-0.01-0.01-0.02-0.02-0.02-0.02L175.3,300.16z"/>
		<path class="st6" d="M192.99,335.87c-0.9-1.07-1.68-2.21-2.73-3.19l-1.49-1.52l-1.6-1.43c-1.05-0.97-2.18-1.86-3.3-2.76
			c-1.11-0.92-2.28-1.76-3.44-2.61c-4.66-3.39-9.56-6.49-14.56-9.41c-5-2.91-10.15-5.58-15.4-8.02c-5.26-2.4-10.64-4.64-16.28-6.05
			c5.68,1.23,11.14,3.32,16.49,5.57c5.34,2.29,10.59,4.81,15.7,7.59c5.11,2.77,10.13,5.75,14.95,9.04c1.2,0.83,2.41,1.64,3.57,2.54
			c1.17,0.88,2.35,1.75,3.46,2.72l1.69,1.42l1.6,1.54c1.11,0.98,2.03,2.2,3.02,3.33c0.38,0.43,0.34,1.09-0.09,1.47
			c-0.43,0.38-1.09,0.34-1.47-0.09c0,0-0.01-0.01-0.01-0.01L192.99,335.87z"/>
		<path class="st6" d="M205.88,364.17c-3.24-4.49-7.5-8.33-11.92-11.85c-4.46-3.51-9.19-6.69-14.06-9.64
			c-4.89-2.93-9.92-5.62-15.09-8.02c-5.18-2.39-10.48-4.54-16.02-6c5.57,1.28,10.96,3.28,16.23,5.52c5.26,2.26,10.4,4.8,15.41,7.6
			c4.99,2.82,9.86,5.87,14.49,9.3c4.6,3.44,9.06,7.19,12.67,11.87c0.35,0.46,0.27,1.11-0.19,1.47c-0.46,0.35-1.11,0.27-1.47-0.19
			c-0.01-0.01-0.01-0.01-0.02-0.02L205.88,364.17z"/>
		<path class="st6" d="M219.05,399.03c-4.68-6.97-9.67-13.82-15.87-19.49c-3.09-2.84-6.52-5.3-10.24-7.27
			c-3.72-1.97-7.7-3.44-11.79-4.52c4.13,0.91,8.19,2.21,12.03,4.05c3.84,1.83,7.43,4.19,10.69,6.95c6.55,5.5,11.89,12.24,16.9,19.08
			c0.34,0.47,0.24,1.12-0.23,1.46c-0.47,0.34-1.12,0.24-1.46-0.23c-0.01-0.01-0.02-0.02-0.02-0.03L219.05,399.03z"/>
		<path class="st6" d="M226.66,429.35c-1-2.29-2.51-4.46-4.13-6.52c-1.63-2.06-3.42-4.02-5.25-5.93c-1.84-1.91-3.74-3.78-5.66-5.62
			c-1.91-1.85-3.88-3.66-5.74-5.57c1.98,1.78,4.05,3.45,6.09,5.18c2.04,1.72,4.06,3.46,6.04,5.26c1.97,1.81,3.91,3.67,5.72,5.67
			c1.8,2.01,3.53,4.13,4.84,6.65c0.27,0.51,0.07,1.15-0.45,1.41c-0.51,0.27-1.15,0.07-1.41-0.45c-0.01-0.02-0.02-0.04-0.03-0.06
			L226.66,429.35z"/>
		<path class="st3" d="M150.88,156.39c-4.54,5.21-8.18,15.08-10.7,18.23c-1.56,1.95-4.35,7.53-7.62,5.9
			c-3.97-2-4.18-7.09-4.31-10.87c-0.36-10.54,1.96-21.13,1.47-31.68c-0.01-0.3-0.08-0.81-0.18-1.47c3.4,3.56,6.82,6.72,9.5,11.56
			C141.75,152.94,146.55,154.38,150.88,156.39z"/>
		<path class="st3" d="M155.77,197.29c-1.33,1.58-4.44,5.39-7.07,3.57c-2.67-1.87-0.95-6.55-0.23-8.87
			c2.76-8.9,8.25-16.73,11.23-25.44c0.65,2.64,1.01,5.41,2.18,7.79c1.21,2.49,2.96,4.67,4.82,6.79
			C161.94,185.52,159.98,192.34,155.77,197.29z"/>
		<path class="st3" d="M186.8,218.83c-3.01,3.17-6.27,6.15-8.96,9.6c-2.81,3.6-4.51,7.85-7.66,11.2c-2.33,2.49-5.51,5.85-9,3.49
			c-3.39-2.29,0.19-12.75,0.77-15.54c2.5-12.08,9.13-21.73,13.19-33.11c1.56,5.31,2.27,10.98,4.31,16.15
			C180.9,214.32,183.78,216.63,186.8,218.83z"/>
		<path class="st3" d="M208.56,247.44c-6.6,7.99-12.12,18.16-16.9,27.2c-1.12,2.1-5.76,11.27-9.61,9.84
			c-4.18-1.54-3.35-16.34-2.69-19.78c1.89-9.87,7.01-20.02,12.66-28.27c1.5-2.2,3.39-4.07,4.93-6.21c1.49,3.87,2.28,8.05,4.59,11.44
			C203.22,244.12,206.2,245.51,208.56,247.44z"/>
		<path class="st3" d="M226.12,282.51c-6.29,6.53-10.18,14.96-15.85,22.04c-1.48,1.85-7.22,10.55-9.87,5.42
			c-1.69-3.3-0.51-9.4,0.17-12.77c2.39-11.98,7.31-23.07,12.57-34.04c0.04-0.1,0.11-0.21,0.18-0.34c0.27,1.83,0.79,3.62,2.18,5.39
			c2.44,3.06,6.61,4.21,8.74,7.76C225.45,277.99,225.81,280.24,226.12,282.51z"/>
		<path class="st3" d="M215.91,347.95c-8.95,2.69,3.09-19.7,3.28-20.01c5.35-9.05,11.4-17.5,16.05-26.79
			c0.07,0.22,0.11,0.45,0.16,0.69c1.57,9.1-0.38,18.88,1.2,28.2c0.11,0.63,0.24,1.24,0.42,1.84c-3.18,1.77-6.43,3.6-9.19,5.77
			C224.09,340.57,220.58,346.55,215.91,347.95z"/>
		<path class="st3" d="M243,349.14c0.12-0.3,0.24-0.61,0.35-0.92c0.01,0.08,0.01,0.17,0.01,0.24c0.12,9.48-4.88,19.33-4.4,28.97
			c-3.19,2.38-6.25,5.17-7.42,5.89c-0.81,0.51-5.07,3.05-5.66,0.75C224.35,378.09,240.43,355.7,243,349.14z"/>
		<path class="st3" d="M241.67,414.94c0.51,5.16,1.21,10.83,0.7,16.01c-0.34,3.52-3.37,6.76-3.51,9.85
			c-0.22,4.53,1.88,9.1,1.02,13.71c-1,5.3-5.33,9.5-4.97,15.11c-9.83-11.44-4.18-13.98-8.55-26.04c-1-2.77-2.56-4.85-4.34-6.64
			c2.44-11.51,7.1-22.88,12.1-32.16c2.05-3.8,6.15-9.18,9.42-14.66c0.01,0.02,0.01,0.03,0.01,0.06
			C244.33,398.43,240.91,407.16,241.67,414.94z"/>
		<path class="st4" d="M110.34,159.61c-3.4-1.19-4.97,9.29-5.2,11.16c-1.16,9.54,2.01,25.39,10.11,31.59
			c6.91,5.28,9.67-5.46,9.6-10.37c-0.13-9.76-4.11-24.03-11.34-31.09L110.34,159.61z"/>
		<path class="st4" d="M129.52,225.02c-3.89-2.38-20.8-9.61-21.15,0.37c-0.18,5.28,5.2,7.79,7.31,11.9
			c5.02,9.82,4.21,20.87,14.28,27.89c9.21,6.43,22.82,4.81,19.29-9.58c-2.87-11.72-10.68-21.44-19.6-29.17L129.52,225.02z"/>
		<path class="st4" d="M137.25,284.53c1.15,5.6-1.8,10.63-0.58,16.36c2.42,11.35,13.99,19.78,23.44,24.91
			c5.08,2.76,14.72,8.25,19.09,1.67c3.13-4.7-1.51-12.71-4.05-16.67c-7.55-11.75-18.87-23.66-33.26-26.15L137.25,284.53z"/>
		<path class="st4" d="M170.05,345.54c13.76,9.37,14.85,24.38,24.03,36.92c1.86,2.55,8.72,9.43,12.19,5.81
			c3.24-3.39,0.8-10.44-0.59-13.86c-4.51-11.11-10.62-21.51-20.74-28.44c-2.95-2.02-12.38-6.94-14.99-2.25L170.05,345.54z"/>
	</g>
	<g>
		<path class="st1" d="M234.46,463.17c0,0-10.1,0.89-15.79-0.28c-6.83-1.41-11.26-7.18-17.36-9.67c-0.81-0.34-1.66-0.61-2.54-0.81
			c-5.22-1.18-11.15,2.15-15.87,0.7c-8.49-2.61-14.51-10.18-23.26-12.58c-7.57-2.06-17.29,2.96-21.96,1.17
			c-4.63-1.76-7.29-7.96-12.79-8.17c-5.5-0.21-11.14,2.86-16.95,2.45c-11.18-0.81-18.18-7.17-28.34-9.31
			c-5.61-1.17-10.64,1.93-15.83-1.9c-6.8-5.02-11.24-12.08-17.21-17.83c-3.48-3.35-8.85-3.93-12.08-7.51
			c-3.93-4.33-4.17-9.96-7.38-14.56c-4.43-6.33-10.42-4.9-12.66-13.81c-1.39-5.51-3.2-9.55-6.26-14.37
			c-1.22-1.94-2.43-3.79-3.87-5.58c-0.44-0.56-2.16-1.41-1.47-1.57c6.58-1.48,13.41-6.84,17.53-7.44c1.13-0.17,2.27-0.19,3.38-0.11
			c5.56,0.39,11.02,3.31,16.54,3.71c1.67,0.12,3.31-0.09,4.96-0.44c4.82-1.01,9.59-3.13,14.44-1.05c0.17,0.07,0.33,0.15,0.48,0.23
			c7.38,3.34,13.06,9.94,21.37,11.85c0.89,0.2,1.78,0.3,2.68,0.33c4,0.16,8.14-0.97,12.22,0.21c0.15,0.05,0.29,0.09,0.44,0.15
			c6.13,2.03,10.16,8.66,16.31,11.24c0.8,0.34,1.61,0.59,2.42,0.77c3.99,0.87,8.12,0.2,12.05,1.24c0.64,0.18,1.27,0.39,1.91,0.67
			c4.11,1.8,5.97,6.58,9.75,8.94c2.51,1.57,5.3,0.92,8.01,0.87c1.49-0.03,2.94,0.1,4.34,0.87c2.57,1.4,4.78,3.19,6.94,5.03v0.01
			c3.54,2.99,6.99,6.11,11.78,7.91c1.41,0.53,2.81,0.76,4.18,0.94c2.75,0.35,5.42,0.51,7.96,2.65c0.9,0.76,1.69,1.58,2.39,2.45
			c3.69,4.53,5.13,10.29,8.97,14.7c1.52,1.75,3.34,2.54,5.19,3.01c2.56,0.65,5.2,0.73,7.3,1.97c0.74,0.43,1.42,0.99,2.01,1.78
			c3.13,4.2,4.75,9.39,7.81,13.65c2.96,4.13,8.1,5.95,10.9,9.9C230.56,450.41,229.69,459.03,234.46,463.17z"/>
		<path class="st2" d="M4.08,351.36c5.32,0.75,10.51,2.34,15.55,4.21c5.05,1.88,9.94,4.15,14.8,6.48
			c9.64,4.8,18.98,10.14,28.31,15.43c4.67,2.64,9.35,5.24,14.05,7.76c4.71,2.51,9.52,4.73,14.43,6.8c9.85,4.05,19.99,7.4,30.24,10.5
			c10.23,3.18,20.56,6.16,30.74,9.73c10.17,3.57,20.21,7.7,29.67,13.01c9.44,5.32,18.2,11.74,26.35,18.78
			c2.02,1.78,4.03,3.58,5.98,5.43c1.93,1.84,3.98,3.54,6.08,5.2c2.1,1.65,4.25,3.25,6.48,4.72c2.24,1.44,4.5,2.94,7.1,3.65
			c-1.33-0.22-2.58-0.77-3.8-1.33c-1.23-0.56-2.4-1.22-3.57-1.89c-2.32-1.36-4.56-2.87-6.75-4.43c-2.19-1.57-4.35-3.19-6.4-4.96
			c-2.03-1.75-4.1-3.44-6.19-5.1c-8.34-6.68-17.19-12.72-26.56-17.74c-2.33-1.27-4.73-2.41-7.15-3.52c-2.39-1.17-4.86-2.16-7.3-3.23
			c-4.94-2-9.92-3.88-15-5.55c-10.11-3.44-20.41-6.39-30.69-9.53c-10.27-3.17-20.52-6.58-30.49-10.79
			c-4.95-2.17-9.86-4.52-14.58-7.13c-4.73-2.6-9.37-5.32-13.97-8.09c-9.23-5.5-18.35-11.12-27.74-16.24
			c-4.71-2.53-9.46-5.01-14.37-7.11c-1.21-0.58-2.48-1-3.72-1.5l-1.87-0.73c-0.62-0.24-1.27-0.42-1.9-0.63
			c-1.28-0.4-2.53-0.89-3.83-1.21L4.08,351.36z"/>
		<path class="st2" d="M64.24,381.41c-0.46-0.33-1.01-0.67-1.38-1.02l-1.13-1.04c-0.72-0.71-1.42-1.43-2.11-2.15
			c-1.36-1.45-2.7-2.92-4.02-4.41c-2.63-2.97-5.21-5.98-7.77-8.99l-7.63-9.1c-2.54-3.03-5.03-6.11-7.64-9.08
			c2.73,2.86,5.36,5.83,8.03,8.74l8.02,8.75c2.69,2.9,5.39,5.78,8.14,8.62c1.37,1.42,2.76,2.82,4.17,4.19
			c0.71,0.67,1.42,1.35,2.14,1.99l1.09,0.92c0.37,0.31,0.69,0.46,1.02,0.71l0.29,0.22c0.45,0.34,0.54,0.99,0.2,1.44
			C65.32,381.64,64.69,381.74,64.24,381.41z"/>
		<path class="st2" d="M96.88,396.57c-3.26-2.4-5.76-5.48-7.96-8.68c-2.17-3.23-4.04-6.62-5.69-10.1c-0.83-1.74-1.61-3.5-2.34-5.28
			c-0.73-1.77-1.44-3.58-1.97-5.43c-0.56-1.84-1.07-3.68-1.7-5.49c-0.63-1.8-1.36-3.59-2.47-5.15c1.19,1.51,2.01,3.28,2.72,5.06
			c0.72,1.79,1.31,3.61,1.96,5.42c0.62,1.81,1.38,3.54,2.19,5.28c0.8,1.73,1.65,3.44,2.55,5.13c1.79,3.37,3.79,6.62,6.04,9.66
			c2.27,3.01,4.83,5.83,7.87,7.86l0.02,0.01c0.48,0.32,0.61,0.97,0.29,1.45c-0.32,0.48-0.97,0.61-1.45,0.29
			C96.91,396.59,96.89,396.58,96.88,396.57z"/>
		<path class="st2" d="M128.8,407.49c-3.5-2.24-6.25-5.32-8.55-8.59c-2.3-3.29-4.17-6.81-5.85-10.39c-3.35-7.19-5.84-14.68-8.74-22
			c3.23,7.19,6.05,14.58,9.68,21.54c1.82,3.47,3.82,6.85,6.18,9.93c2.36,3.06,5.11,5.84,8.36,7.72l0.01,0.01
			c0.5,0.29,0.67,0.93,0.38,1.43c-0.29,0.5-0.93,0.67-1.43,0.38C128.82,407.5,128.81,407.49,128.8,407.49z"/>
		<path class="st2" d="M157.54,416.88c-4-5.6-7.6-11.48-10.76-17.56c-3.16-6.09-5.89-12.39-8.02-18.89
			c2.46,6.38,5.5,12.51,8.93,18.38c3.44,5.87,7.29,11.5,11.51,16.81c0.36,0.45,0.29,1.11-0.17,1.47c-0.45,0.36-1.11,0.29-1.47-0.17
			C157.56,416.91,157.55,416.89,157.54,416.88z"/>
		<path class="st2" d="M180.78,427.08c-2.33-2.4-4.11-5.13-5.72-7.92c-1.6-2.79-3-5.67-4.3-8.59c-2.57-5.85-4.75-11.85-6.58-17.94
			c2.17,5.98,4.67,11.84,7.53,17.49c1.44,2.82,2.98,5.59,4.69,8.23c1.71,2.62,3.6,5.17,5.82,7.22l0.02,0.02
			c0.42,0.39,0.45,1.05,0.06,1.48c-0.39,0.42-1.05,0.45-1.48,0.06C180.81,427.11,180.8,427.09,180.78,427.08z"/>
		<path class="st2" d="M203.19,442.06c-3.83-8.31-7.11-16.95-8.86-25.9c2.43,8.8,6.31,17.05,10.72,24.96c0.28,0.5,0.1,1.14-0.4,1.42
			c-0.51,0.28-1.14,0.1-1.42-0.4C203.21,442.11,203.2,442.08,203.19,442.06z"/>
		<path class="st2" d="M67.19,382.5c-6.68-2.05-13.77-2.71-20.84-2.82c-7.09-0.11-14.2,0.33-21.31,0.52
			c7.09-0.54,14.16-1.33,21.3-1.57c7.12-0.24,14.37,0.07,21.42,1.85c0.56,0.14,0.9,0.71,0.76,1.27c-0.14,0.56-0.71,0.9-1.27,0.76
			C67.22,382.51,67.2,382.51,67.19,382.5z"/>
		<path class="st2" d="M103.32,399.17c-4.81-1.12-9.69-1.93-14.62-2.02c-2.46-0.06-4.94,0.07-7.43,0.2
			c-2.5,0.15-5.01,0.18-7.47,0.36c-9.92,0.72-19.62,3.35-29.3,5.74c9.59-2.72,19.19-5.69,29.2-6.78c2.51-0.28,5-0.39,7.47-0.63
			c2.49-0.22,5-0.43,7.53-0.46c5.07-0.08,10.12,0.57,15.06,1.55c0.57,0.11,0.94,0.66,0.82,1.23c-0.11,0.57-0.66,0.94-1.23,0.82
			C103.35,399.18,103.33,399.17,103.32,399.17z"/>
		<path class="st2" d="M134.15,408.83c-5.08-0.42-10.13-0.56-15.1,0.37c-5.01,0.89-9.98,2.1-14.88,3.53
			c-9.78,2.92-19.34,6.8-28.05,12.22c8.53-5.71,18-9.95,27.74-13.22c4.89-1.61,9.85-3,14.9-4.07c5.1-1.14,10.4-1.18,15.53-0.92
			c0.58,0.03,1.02,0.52,1,1.09c-0.03,0.58-0.52,1.02-1.09,1C134.18,408.83,134.16,408.83,134.15,408.83z"/>
		<path class="st2" d="M166.99,420.5c-7.22-0.03-14.49,1.05-21.57,2.8c-3.54,0.89-7.03,1.97-10.44,3.29
			c-3.4,1.33-6.73,2.89-9.84,4.85c3.01-2.1,6.28-3.83,9.64-5.33c3.36-1.49,6.84-2.75,10.36-3.82c3.53-1.06,7.12-1.93,10.76-2.6
			c3.64-0.66,7.32-1.13,11.06-1.28c0.58-0.02,1.06,0.43,1.09,1c0.02,0.58-0.43,1.06-1,1.09c-0.01,0-0.03,0-0.04,0L166.99,420.5z"/>
		<path class="st2" d="M195.29,436.3c-2.93-0.74-6.16-0.89-9.32-0.91c-3.18-0.01-6.38,0.17-9.56,0.47c-3.18,0.3-6.36,0.74-9.51,1.34
			c-3.14,0.61-6.28,1.34-9.25,2.58c2.9-1.39,6.02-2.3,9.14-3.09c3.13-0.77,6.3-1.39,9.49-1.87c3.19-0.47,6.41-0.83,9.65-1
			c3.25-0.14,6.5-0.2,9.86,0.45c0.57,0.11,0.94,0.66,0.83,1.23c-0.11,0.57-0.66,0.94-1.23,0.83c-0.02,0-0.04-0.01-0.05-0.01
			L195.29,436.3z"/>
		<path class="st2" d="M217.93,454.84c-3.33-1.36-6.95-2.09-10.62-2.42c-3.67-0.33-7.4-0.28-11.12-0.1
			c3.68-0.53,7.4-0.94,11.17-0.95c3.76-0.01,7.57,0.37,11.27,1.5c0.55,0.17,0.87,0.75,0.7,1.3c-0.17,0.55-0.75,0.87-1.3,0.7
			C218,454.87,217.96,454.85,217.93,454.84z"/>
		<path class="st3" d="M45.25,345.25c1.83,6.57,5.74,15.36,3.39,16.25c-3.81,1.45-9.85-5.92-11.73-7.63
			c-2.36-2.12-7.61-7.51-13.15-11.89c5.56,0.39,11.02,3.31,16.54,3.71C41.96,345.81,43.6,345.6,45.25,345.25z"/>
		<path class="st3" d="M84.23,356.6c0.52,7.5,2.78,17.13-0.08,17.28c-7.87,0.41-14.92-18.8-23.97-29.45
			c7.38,3.34,13.06,9.94,21.37,11.85C82.43,356.48,83.33,356.58,84.23,356.6z"/>
		<path class="st3" d="M115.62,368.96c0.88,7.24,2.99,15.62-1.24,15.36c-8.42-0.52-12.09-16.72-17.49-27.37
			c6.13,2.03,10.16,8.66,16.31,11.24C114,368.54,114.81,368.78,115.62,368.96z"/>
		<path class="st3" d="M147.34,380.68c0.44,6.63,2.18,15.68-2.48,15.04c-3.47-0.47-13.24-17.79-17.19-25.51
			c0.64,0.18,1.27,0.39,1.91,0.67c4.11,1.8,5.97,6.58,9.75,8.94C141.84,381.37,144.62,380.73,147.34,380.68z"/>
		<path class="st3" d="M174.58,395.43c0.96,8.05,3.99,18.88-0.21,18.34c-7.77-0.99-11.4-15.87-15.75-27.19
			c3.54,2.99,6.99,6.11,11.78,7.91C171.81,395.02,173.21,395.25,174.58,395.43z"/>
		<path class="st3" d="M199.09,418.23c-0.24,6.15-0.11,13.05-4.77,8.08c-3.58-3.83-6.38-16.01-9.39-25.79
			c3.69,4.53,5.13,10.29,8.97,14.7C195.42,416.97,197.24,417.76,199.09,418.23z"/>
		<path class="st3" d="M234.46,463.17c0,0-10.1,0.89-15.79-0.28c-6.83-1.41-11.26-7.18-17.36-9.67c1.34-3.26,4.59-6.18,5.64-9.15
			c0.96-2.73,1.1-14.98-0.55-23.86c0.74,0.43,1.42,0.99,2.01,1.78c3.13,4.2,4.75,9.39,7.81,13.65c2.96,4.13,8.1,5.95,10.9,9.9
			C230.56,450.41,229.69,459.03,234.46,463.17z"/>
		<path class="st4" d="M18.08,362.43c3.54,3.54,0.86,6.45,2.75,10.16c2.22,4.36,7.07,4.95,10.09,8.37
			c3.89,4.41,3.87,12.29,9.66,15.38c6.96,3.71,24.43-2.36,20.28-12.04c-4.11-9.59-21.95-21.15-32.13-22.75
			c-2.33-0.37-9.87-3.43-11.51,0.04L18.08,362.43z"/>
		<path class="st4" d="M62.8,407.18c-1.12,1.76,0.37,4.13,1.18,5.7c2.72,5.28,6.88,7.5,12.63,8.39c8.99,1.39,23.68,9.02,30.98,7.59
			c5.41-1.06,14.23-2.61,14.39-9.72c0.03-1.41-0.21-3.04-1.23-4.1c-1.62-1.67-3.43-3.01-5.38-4.26c-2.47-1.58-4.99-2.83-7.73-3.89
			c-5.49-2.12-11.34-3.82-17.2-4.47c-9.08-1-17.39,0.41-25.94,3.06L62.8,407.18z"/>
		<path class="st4" d="M134.94,425.45c-1.96,4.47,2.15,9.09,6.41,10.1c5.58,1.33,20.18-1.15,23.8-5.66
			c3.59-4.46-3.96-8.07-7.34-9.33c-7.02-2.61-17-2.56-22.7,2.98L134.94,425.45z"/>
		<path class="st4" d="M170.78,438.93c2.27,2.42,4.89,4.96,7.81,6.61c2.1,1.19,4.06,1.9,6.44,2.15c1.69,0.18,3.53,0.42,5.23,0.2
			c4.6-0.6,7.68-4.25,3.92-8.07c-4.46-4.54-19.17-10.52-22.96-2.67L170.78,438.93z"/>
		<g class="st8">
			<path class="st9" d="M15.99,367.75c2.27,2.84,4.58,5.65,6.95,8.39c1.19,1.36,2.4,2.72,3.69,3.96c0.32,0.31,0.65,0.61,0.99,0.88
				c0.32,0.28,0.75,0.64,1.04,1c0.62,0.73,1.14,1.51,1.61,2.3c1.87,3.19,3.3,6.55,4.82,9.84c0.38,0.82,0.76,1.64,1.16,2.42
				c0.2,0.39,0.41,0.77,0.63,1.08c0.12,0.1,0.05,0.13,0.22,0.19c0.08,0.05,0.35,0.11,0.52,0.17c1.68,0.43,3.51,0.76,5.28,1.18
				c1.79,0.42,3.58,0.87,5.36,1.58c0.89,0.36,1.77,0.8,2.62,1.49c0.2,0.2,0.41,0.41,0.6,0.61l0.43,0.59l0.79,1.16
				c1.99,3.08,3.86,6.16,5.99,9.04c1.06,1.43,2.16,2.84,3.38,4.1c1.22,1.25,2.52,2.39,3.98,3.07c1.47,0.71,3.14,0.96,4.84,0.96
				c1.71,0.01,3.45-0.25,5.24-0.53c0.9-0.13,1.82-0.27,2.82-0.32c0.25-0.02,0.5-0.02,0.78,0c0.27,0.01,0.54,0.02,0.84,0.1l0.44,0.09
				l0.35,0.12c0.24,0.08,0.47,0.16,0.68,0.25c1.73,0.68,3.39,1.4,5.07,2.11c3.34,1.41,6.68,2.81,10.06,4.06
				c3.37,1.21,6.83,2.49,10.21,2.82c3.43,0.23,6.96-0.54,10.51-1.26c1.78-0.37,3.58-0.74,5.45-0.94c1.85-0.21,3.87-0.13,5.71,0.58
				c3.71,1.48,5.93,4.7,8.61,6.91c0.68,0.56,1.39,1.05,2.15,1.26c0.82,0.2,1.7,0.31,2.59,0.34c1.78,0.08,3.6,0,5.4-0.14
				c3.61-0.29,7.21-0.76,10.8-1.33c-3.54,0.81-7.12,1.48-10.74,1.92c-1.81,0.23-3.63,0.39-5.48,0.39c-0.92,0-1.86-0.06-2.81-0.25
				c-1.02-0.24-1.84-0.78-2.59-1.34c-1.49-1.15-2.75-2.49-4.09-3.66c-1.33-1.18-2.76-2.21-4.34-2.79c-1.58-0.55-3.29-0.59-5.04-0.35
				c-1.74,0.23-3.49,0.64-5.25,1.06c-3.52,0.83-7.17,1.76-11.03,1.52c-3.87-0.35-7.31-1.64-10.78-2.84c-3.45-1.24-6.82-2.62-10.19-4
				c-1.68-0.69-3.36-1.4-5.02-2.03c-0.89-0.35-1.36-0.45-2.21-0.4c-0.81,0.04-1.69,0.18-2.59,0.31c-1.79,0.26-3.66,0.53-5.59,0.51
				c-1.92-0.02-3.93-0.33-5.74-1.22c-1.83-0.88-3.29-2.21-4.58-3.57c-1.3-1.37-2.43-2.85-3.51-4.34c-2.16-2.99-4.04-6.15-5.96-9.18
				l-0.73-1.1l-0.37-0.51l-0.35-0.36c-0.56-0.46-1.31-0.86-2.09-1.21c-1.58-0.69-3.31-1.18-5.04-1.64
				c-1.75-0.47-3.49-0.83-5.32-1.35c-0.26-0.1-0.44-0.12-0.76-0.29c-0.28-0.08-0.61-0.46-0.79-0.7c-0.29-0.45-0.5-0.87-0.71-1.29
				c-0.4-0.84-0.77-1.68-1.12-2.52c-1.43-3.35-2.77-6.72-4.48-9.87c-0.42-0.79-0.88-1.55-1.41-2.23c-0.27-0.36-0.53-0.59-0.88-0.93
				c-0.36-0.31-0.69-0.64-1-0.98c-1.27-1.34-2.41-2.76-3.55-4.18C20.21,373.67,18.07,370.73,15.99,367.75z"/>
		</g>
	</g>
	<g>
		<path class="st1" d="M296.11,346.12c-0.77,4.93,0.08,9.68,0.73,14.46c0.48,3.44,0.87,6.9,0.48,10.43
			c-0.01,0.11-0.02,0.23-0.04,0.34c-0.72,5.21-4.67,9.12-5.21,13.81c-0.36,3.13,0.05,6.09,0.39,9.04c0.41,3.43,0.72,6.83-0.38,10.52
			c-0.03,0.1-0.06,0.2-0.09,0.29c-1.7,5.04-6.5,4.88-9.48,8.68c-3.44,4.4-1.24,10.78-4.26,15.17c-3.21,4.68-9.81,4.18-14.03,7.25
			c-8.72,6.32-12.57,17.36-19.56,25.2c-3.11,3.51-6.94,5.18-10.1,8.41c0,0-0.24,0.12-0.34-0.68c-0.7-5.38-3.76-27.31-9.36-45.3
			c-1.15-3.73,1.78-7.39,0.89-11.34c-2.37-10.48-10.55-19.02-12.78-29.63c-0.38-1.79,2.92-25.88,4.01-28.3
			c2.59-5.79,7.95-10.13,8.09-16.92c0.16-8.08-6.39-14.84-7.83-22.54c-1-5.39,2.39-10.53,1.8-15.84c-0.8-7.36-6.74-13.82-8.17-21.08
			c-1.57-8,4.58-13.64,3.66-21.15c-0.73-5.96-5.24-11.4-7.57-16.77c-3.9-8.96,9.99-21.69,11.58-30.55
			c1.29-7.16-0.47-27.1,0.71-27.02c2.39,0.17,5.6,3.8,8.87,8.31c4.78,6.59,9.7,15.06,12.43,17.37c0.33,0.28,0.69,0.55,1.07,0.78
			c3.47,2.3,8.65,3.35,10.58,7.02c0.39,0.74,0.65,1.57,0.83,2.43c0.61,2.89,0.33,6.28,1.1,9.04c1.95,6.82,8.08,10.34,10.37,16.56
			c1.24,3.37,0.38,7.26,1.45,10.62c0.1,0.3,0.21,0.61,0.35,0.91c2.24,4.98,9.55,6.99,13.79,10.85c0.52,0.46,0.99,0.96,1.4,1.49
			c4.22,5.49,4.02,12.79,7.45,18.64c0.43,0.73,0.91,1.44,1.48,2.12c2.21,2.68,5.64,4.55,7.82,7.35c0,0,0,0,0,0.01
			c0.73,0.94,1.32,1.98,1.68,3.2c1,3.38-1.5,6.91-1.49,10.3c0.01,3.01,1.13,5.92,2.37,8.8c1.19,2.76,2.51,5.5,3.1,8.3
			c0.41,1.85,0.48,3.72,0.01,5.64C302.61,337.68,296.94,340.77,296.11,346.12z"/>
		<path class="st2" d="M219.3,184.49c0.75,3.06,0.76,6.26,0.67,9.39c-0.05,1.57-0.11,3.14-0.1,4.7c0,1.55,0.12,3.13,0.18,4.69
			c0.38,6.25,1.09,12.48,2.13,18.64c2.01,12.34,5.04,24.53,9.42,36.2l1.66,4.37l1.8,4.32c1.17,2.89,2.49,5.73,3.73,8.6
			c2.61,5.68,5.31,11.33,8.1,16.96c5.52,11.27,11.08,22.58,15.86,34.29l1.69,4.43c0.57,1.48,1.12,2.96,1.61,4.47l1.52,4.5l1.34,4.57
			l0.66,2.29l0.56,2.32l1.1,4.64l0.85,4.7c0.14,0.78,0.29,1.56,0.41,2.35l0.23,2.4c1.39,12.82-0.63,25.62-4.09,37.78
			c-7.09,24.34-19.32,46.85-34.43,66.89c6.99-10.44,13.41-21.24,18.73-32.58c5.41-11.27,10.12-22.92,13.18-35l1.12-4.53
			c0.35-1.51,0.6-3.05,0.9-4.57c0.67-3.04,0.99-6.12,1.41-9.19c0.53-6.15,0.86-12.36-0.02-18.44l-0.25-2.29l-0.41-2.28l-0.84-4.57
			l-1.1-4.52l-0.55-2.26l-0.66-2.23l-1.33-4.47l-1.51-4.41c-0.48-1.48-1.03-2.93-1.6-4.38l-1.68-4.36
			c-9.25-23.17-22.2-44.96-30.45-68.93c-4.14-11.96-6.92-24.34-8.61-36.83c-0.8-6.26-1.26-12.55-1.39-18.85
			c0.01-1.58-0.05-3.14,0.01-4.73c0.06-1.58,0.18-3.15,0.3-4.71C219.72,190.74,219.89,187.59,219.3,184.49z"/>
		<path class="st2" d="M226.24,249.59c1.46-7.72,2.09-15.65,3.2-23.52c0.55-3.94,1.22-7.87,2.16-11.74
			c0.94-3.86,2.16-7.67,3.87-11.26c-1.54,3.66-2.59,7.49-3.36,11.37c-0.76,3.88-1.25,7.81-1.63,11.75
			c-0.77,7.88-1.04,15.81-2.18,23.75c-0.08,0.57-0.61,0.97-1.19,0.89c-0.57-0.08-0.97-0.61-0.89-1.18c0-0.01,0-0.03,0.01-0.04
			L226.24,249.59z"/>
		<path class="st2" d="M239.9,284.04c1.01-3.33,2.35-6.5,3.88-9.56c1.52-3.06,3.24-6.02,5.11-8.87c1.87-2.85,3.9-5.59,6.18-8.13
			c2.36-2.54,5.53-4.01,7.64-6.71c-1.97,2.81-5.12,4.49-7.24,7.06c-2.11,2.62-3.99,5.43-5.69,8.34c-1.7,2.91-3.24,5.9-4.58,8.98
			c-1.35,3.07-2.49,6.23-3.28,9.43l0,0.01c-0.14,0.56-0.71,0.9-1.27,0.76c-0.56-0.14-0.9-0.71-0.76-1.27
			C239.89,284.08,239.9,284.06,239.9,284.04z"/>
		<path class="st2" d="M260.54,327.98c0.98-4.31,2.09-8.59,3.43-12.8c1.35-4.21,2.91-8.36,4.9-12.32c0.99-1.98,2.08-3.91,3.37-5.73
			c1.3-1.8,2.74-3.47,4.18-5.13c2.85-3.31,5.87-6.58,7.61-10.65c-1.58,4.14-4.5,7.56-7.21,10.98c-1.37,1.71-2.73,3.43-3.93,5.24
			c-1.18,1.81-2.18,3.76-3.08,5.74c-1.79,3.97-3.18,8.11-4.34,12.32c-1.16,4.2-2.09,8.47-2.89,12.77c-0.1,0.57-0.65,0.95-1.22,0.84
			c-0.57-0.1-0.95-0.65-0.84-1.22C260.54,328.02,260.54,328,260.54,327.98z"/>
		<path class="st2" d="M267.62,350.01c1.28-4.05,3.13-7.87,5.27-11.46c2.15-3.6,4.59-6.99,7.16-10.25
			c5.16-6.53,10.89-12.53,16.38-18.73c-5.23,6.43-10.7,12.67-15.55,19.36c-2.42,3.34-4.69,6.79-6.63,10.4
			c-1.95,3.6-3.57,7.37-4.63,11.27c-0.15,0.56-0.72,0.89-1.28,0.74c-0.56-0.15-0.89-0.72-0.74-1.28
			C267.61,350.04,267.62,350.02,267.62,350.01z"/>
		<path class="st2" d="M270.66,376.54c0.71-3.6,2.1-7.01,3.85-10.15c1.75-3.15,3.86-6.06,6.14-8.79
			c4.58-5.46,9.85-10.23,15.17-14.88c-5.08,4.91-10.1,9.93-14.35,15.53c-2.12,2.8-4.03,5.75-5.57,8.86
			c-1.53,3.11-2.68,6.4-3.17,9.78c-0.08,0.57-0.62,0.97-1.19,0.88c-0.57-0.08-0.97-0.62-0.88-1.19
			C270.65,376.57,270.66,376.55,270.66,376.54z"/>
		<path class="st2" d="M266.97,399.63c0.66-1.31,1.62-2.28,2.57-3.14c0.95-0.86,1.94-1.61,2.81-2.4c1.84-1.71,3.85-3.25,5.92-4.62
			c4.16-2.75,8.58-4.95,12.74-7.62c-3.96,2.95-8.25,5.48-12.14,8.47c-1.95,1.49-3.77,3.1-5.43,4.88c-0.89,0.94-1.82,1.75-2.64,2.61
			c-0.82,0.85-1.55,1.75-1.93,2.69c-0.22,0.54-0.83,0.79-1.36,0.58c-0.54-0.22-0.79-0.83-0.58-1.36
			C266.94,399.69,266.95,399.66,266.97,399.63L266.97,399.63z"/>
		<path class="st2" d="M258.56,424.05c1.8-1.26,3.62-2.23,5.47-3.22c1.85-0.97,3.72-1.88,5.61-2.75c1.89-0.87,3.79-1.71,5.73-2.47
			c0.97-0.38,1.94-0.74,2.93-1.06c0.99-0.29,1.99-0.65,3.04-0.65c-1.04,0.09-1.99,0.53-2.95,0.9c-0.95,0.4-1.88,0.84-2.81,1.29
			c-1.85,0.91-3.66,1.9-5.46,2.92c-1.79,1.02-3.57,2.08-5.3,3.18c-1.72,1.11-3.46,2.25-4.96,3.5l-0.03,0.02
			c-0.44,0.37-1.11,0.31-1.48-0.13c-0.37-0.44-0.31-1.11,0.14-1.48C258.51,424.09,258.54,424.07,258.56,424.05z"/>
		<path class="st2" d="M226.53,250.41c-0.79-1.88-2.09-3.74-3.43-5.49c-1.36-1.76-2.83-3.44-4.37-5.07
			c-1.54-1.62-3.15-3.19-4.84-4.67c-1.7-1.47-3.45-2.89-5.43-3.97c2.06,0.92,3.94,2.22,5.76,3.56c1.81,1.36,3.56,2.81,5.24,4.33
			c1.68,1.53,3.3,3.12,4.84,4.82c1.52,1.72,3.01,3.46,4.15,5.66c0.27,0.51,0.06,1.15-0.45,1.41c-0.51,0.27-1.15,0.06-1.41-0.45
			c-0.01-0.02-0.02-0.05-0.03-0.07L226.53,250.41z"/>
		<path class="st2" d="M241.32,286.98c-3.69-4.81-8.17-9.04-12.7-13.2c-4.53-4.16-9.16-8.29-13.2-12.95
			c4.3,4.43,9.12,8.25,13.89,12.16c4.76,3.91,9.53,7.91,13.63,12.67c0.38,0.44,0.33,1.1-0.11,1.48c-0.44,0.38-1.1,0.33-1.48-0.11
			C241.35,287.01,241.33,286.99,241.32,286.98z"/>
		<path class="st2" d="M260.91,329.73c-5.26-7.63-11.8-14.39-18.83-20.53c-7.06-6.12-14.68-11.64-22.7-16.49
			c8.2,4.55,16.04,9.79,23.37,15.69c7.31,5.92,14.17,12.49,19.86,20.12c0.35,0.46,0.25,1.12-0.21,1.46
			c-0.46,0.35-1.12,0.25-1.46-0.21C260.93,329.75,260.93,329.74,260.91,329.73L260.91,329.73z"/>
		<path class="st2" d="M270.58,377.35c-2.03-6.09-5.01-11.87-8.52-17.29c-3.52-5.43-7.58-10.52-11.95-15.33
			c-8.75-9.62-18.68-18.15-28.92-26.21c10.46,7.78,20.62,16.05,29.69,25.5c4.52,4.73,8.76,9.75,12.49,15.17
			c3.72,5.42,6.92,11.24,9.2,17.47c0.2,0.54-0.08,1.14-0.62,1.34c-0.54,0.2-1.14-0.08-1.34-0.62
			C270.59,377.37,270.59,377.35,270.58,377.35z"/>
		<path class="st2" d="M261.17,416.59c-1.38-6.13-3.79-12.13-6.38-17.97c-2.63-5.84-5.57-11.56-8.76-17.13
			c-3.22-5.55-6.7-10.97-10.57-16.09l-1.45-1.92l-1.55-1.85l-1.55-1.85l-1.66-1.75c-2.17-2.38-4.66-4.43-7.33-6.22
			c2.72,1.72,5.28,3.72,7.52,6.04l1.71,1.71l1.6,1.81l1.6,1.81l1.51,1.89c4.03,5.04,7.67,10.39,11.06,15.88
			c3.36,5.51,6.47,11.18,9.29,17.01c2.78,5.84,5.38,11.79,7,18.19c0.14,0.56-0.2,1.13-0.76,1.27c-0.56,0.14-1.13-0.2-1.27-0.76
			c0-0.01,0-0.02-0.01-0.02L261.17,416.59z"/>
		<path class="st2" d="M249.26,441.5c-1.08-5.33-2.89-10.45-5.36-15.34c-1.22-2.45-2.5-4.9-3.79-7.31c-1.32-2.41-2.7-4.78-4.12-7.13
			c-5.71-9.4-12.2-18.33-18.38-27.44c6.47,8.92,13.23,17.63,19.27,26.89c1.5,2.32,2.96,4.66,4.37,7.05c1.38,2.4,2.74,4.79,4.05,7.24
			c1.3,2.45,2.53,4.97,3.53,7.58c1.02,2.61,1.81,5.3,2.48,8.01c0.14,0.56-0.2,1.13-0.76,1.27c-0.56,0.14-1.13-0.2-1.27-0.77
			C249.27,441.53,249.26,441.51,249.26,441.5z"/>
		<path class="st3" d="M241.63,209.05c-3.25,6.12-6.42,15.14-10,15.48c-0.73,0.07-1.74-0.08-2.15-0.82
			c-1.83-3.36-0.03-20.86-1.35-32.8c4.78,6.59,9.7,15.06,12.43,17.37C240.89,208.56,241.25,208.83,241.63,209.05z"/>
		<path class="st3" d="M246.24,271.41c-9.33-10.57,6.44-34.36,6.81-52.9c0.61,2.89,0.33,6.28,1.1,9.04
			c1.95,6.82,8.08,10.34,10.37,16.56c1.24,3.37,0.38,7.26,1.45,10.62C257.92,261.63,250.46,276.19,246.24,271.41z"/>
		<path class="st3" d="M267.9,304.94c-6.5-8.03,8.16-25.15,12.22-38.45c0.52,0.46,0.99,0.96,1.4,1.49
			c4.22,5.49,4.02,12.79,7.45,18.64C281.09,292.54,272.22,310.25,267.9,304.94z"/>
		<path class="st3" d="M290.5,405.6c0.5-0.19,0.99-0.39,1.5-0.6c-1.7,5.04-6.5,4.88-9.48,8.68c-3.44,4.4-1.24,10.78-4.26,15.17
			c-3.21,4.68-9.81,4.18-14.03,7.25c-8.72,6.32-12.57,17.36-19.56,25.2c-3.11,3.51-6.94,5.18-10.1,8.41c0,0-0.24,0.12-0.34-0.68
			c0.02-4.88,3.02-11.77,4.15-14.46c5.95-14.28,18.4-31.68,31.58-40.21c4.16-2.68,8.31-4.52,12.92-6.26
			C285.39,407.17,288.02,406.55,290.5,405.6z"/>
		<path class="st3" d="M292.08,385.15c-0.36,3.13,0.05,6.09,0.39,9.04c-8.04,2.43-19.45,9.24-15.94-2.15
			c2.27-7.38,13.53-14.19,20.75-20.69C296.56,376.55,292.62,380.46,292.08,385.15z"/>
		<path class="st3" d="M298.26,296.1c0.73,0.94,1.32,1.98,1.68,3.2c1,3.38-1.5,6.91-1.49,10.3c0.01,3.01,1.13,5.92,2.37,8.8
			c-8.21,5.05-20.8,18.03-22.95,12.2C273.59,319.03,293.61,306.85,298.26,296.1z"/>
		<path class="st3" d="M303.93,332.34c-1.32,5.34-6.99,8.43-7.82,13.77c-0.77,4.93,0.08,9.68,0.73,14.46
			c-6.5,2.41-15.69,7.77-17.08,5.47c-0.81-1.32,0.39-4.46,0.59-5.76c1.32-9.1,16.33-23.65,23.57-33.58
			C304.33,328.55,304.41,330.43,303.93,332.34z"/>
		<path class="st4" d="M218.61,226.43c-16.86,4.25,1.06,31.81,9.61,35.64c7.01,3.14,9.95-6.48,9.11-11.49
			c-1.77-10.48-7-17.54-15.41-23.29L218.61,226.43z"/>
		<path class="st4" d="M222.04,274.08c-5.85,4.47,1.41,11.89,2.08,16.88c0.58,4.29-1.49,8.62-1.13,12.94
			c0.67,8.11,8.58,14.4,14.13,19.44c2.49,2.26,5.56,5.54,9.2,5.33c9.75-0.57,8.53-13.02,6.84-19.6
			c-3.41-13.3-13.03-32.54-27.71-35.95L222.04,274.08z"/>
		<path class="st4" d="M235.51,345.63c-19.64,6.85-8.65,40.74-0.68,53.01c2.83,4.35,7.63,12.45,13.93,12.12
			c9.35-0.5,10.2-13.46,10.39-20.1c0.47-16.31-5.76-38.49-22.03-45.98L235.51,345.63z"/>
		<path class="st4" d="M231.66,419.17c-1.03-0.53-1.42,3.82-1.43,4.25c-0.1,4,0.95,18.74,8.43,15.53c5.87-2.52,4.5-16.15,2.66-20.75
			c-1.42-3.56-4.96-5.79-7.63-2.14L231.66,419.17z"/>
	</g>
	<g transform="matrix(1,0,0,1,-261.716,62.0459)" class="st10">
		<path class="st11" d="M651.58,326.15c-5.67,2.54-3.63,8.95-15.57,11.88c-1.58,0.39-3.02,0.98-4.36,1.7
			c-5.09,2.75-8.81,7.43-13.73,10.35c-1.03,0.61-2.11,1.15-3.27,1.58c-5.97,2.21-12.73,0.37-18.8,2.41
			c-4.88,1.65-8.06,5.06-11.6,8.16c-1.71,1.49-3.52,2.91-5.64,4.01c-4.19,2.18-8.89,1.88-13.44,2.72c-0.82,0.15-1.63,0.33-2.45,0.57
			c-6.21,1.88-13.53,6.27-18.78,10.05c-11.33,8.16-18.19,13.99-31.76,17.8c-3.63,1.03-6.8,2.94-10.09,4.57
			c-1.34,0.67-2.71,1.28-4.14,1.78c-0.15,0.06-0.43,0.21-0.61,0.28c5.4-5.2,13.84-12.49,19.84-17.57c3.81-3.23,6.63-5.57,7.08-5.93
			c2.62-2.07,6.68-2.77,8.41-5.93c0.48-0.88,0.92-1.8,1.35-2.73c1.68-3.6,3.28-7.29,6.94-9.47c2.11-1.25,4.4-1.96,6.7-2.66
			c1.9-0.59,3.82-1.15,5.66-2.01c3.16-1.49,5.28-3.65,7.26-5.97c1.92-2.24,3.71-4.66,6.15-6.76c3.93-3.4,10.2-1.51,14.68-3.49
			c0.23-0.1,0.44-0.2,0.65-0.32c6.91-3.44,10.21-10.93,17.47-13.94c0.56-0.24,1.13-0.44,1.68-0.64c0.01,0,0.01,0,0.02,0
			c6.19-2.11,11.88-1.69,18.17-1.33c1.19,0.07,2.4,0.14,3.65,0.18c2.54,0.09,4.58-1.26,6.73-2.37c0.42-0.21,0.85-0.43,1.28-0.6
			c0.98-0.43,2.02-0.72,3.14-0.76c5.82-0.16,10.39,1.59,15.06,3.48C650.04,325.52,650.81,325.83,651.58,326.15z"/>
	</g>
	<g>
		<g transform="matrix(1,0,0,1,-261.716,62.0459)">
			<path class="st1" d="M759.4,413.75c-0.97,1.51-3.27,2.99-5.92,4.2c-0.02,0.01-0.03,0.02-0.05,0.02
				c-0.41,0.19-0.83,0.37-1.25,0.55c-0.09,0.05-0.19,0.08-0.28,0.11c-3.53,1.43-7.34,2.37-9.41,2.38c-3.35,0-6.17-2.2-9.34-2.86
				c-6.48-1.33-13.48-1.13-19.93,0.32c-0.71,0.16-1.42,0.35-2.12,0.55c-2.56,0.74-5.08,1.66-7.75,1.81
				c-1.38,0.08-2.75,0.06-4.1-0.05c-8.66-0.64-16.95-4.42-25.92-3.44c-2.24,0.25-4.5,0.91-6.76,1.69
				c-3.54,1.21-7.09,2.68-10.64,3.23c-1.88,0.3-3.75,0.35-5.62-0.04c-3.75-0.79-6.44-4.08-10.1-4.7c-1.77-0.29-3.48-0.19-5.18-0.18
				c-1.69,0.02-3.37-0.06-5.05-0.71c-0.29-0.11-0.58-0.24-0.87-0.38c-3-1.52-4.64-5.74-7.72-6.7c-4.1-1.27-7.77,1.24-11.72,1.34
				c-0.34,0.01-0.69,0.01-1.04-0.02c-2.63-0.23-4.72-1.42-6.92-2.29c-1.85-0.73-3.78-1.25-6.17-0.8c-3.05,0.57-5.66,1.94-8.48,2.51
				c-1.59,0.34-3.25,0.42-5.09-0.06c-1.96-0.5-2.85-2.16-4.09-3.42c-0.47-0.48-1-0.9-1.66-1.18c-3.55-1.51-7.92-1.68-11.16-3.88
				c-2.24-1.53-2.92-4.32-5.51-5.5c-0.46-0.2-0.9-0.36-1.32-0.47c-3.23-0.86-5.73,0.7-9.11,0.32c-0.11-0.01-0.23-0.03-0.34-0.04
				c-4.33-0.62-7.04-3.47-12.05-2.34c-3.11,0.71-6.33,2.33-9.2,3.67c-0.26,0.11-31.45,10.56-31.55,10.34
				c-0.72-1.52,17.47-13.01,28.38-19.7c4.25-2.62,7.39-4.5,7.89-4.78c2.91-1.66,7.03-1.72,9.22-4.58c2.99-3.92,5.08-8.79,10.05-10.8
				c4.17-1.68,8.66-1.47,12.92-2.73c6.58-1.95,9.64-7.07,15.21-10.55c4.41-2.76,10.3,0.07,15.04-1.22
				c7.77-2.12,12.21-9.41,20.07-11.33c8.48-2.06,15.27,0.23,23.52,1.8c4.1,0.79,7.46-2.49,11.6-1.97
				c9.76,1.23,15.19,7.32,23.9,10.83c5.05,2.03,10.55,1.57,15.54,4c6.58,3.22,12.2,8.86,18.72,12.42c3.34,1.81,7.36,0.95,10.45,2.94
				c3.37,2.19,5.12,6.05,8.62,7.99c4.5,2.48,13.22,1.08,16.6,4.8c4.69,5.16,6.5,13.08,9.01,19.39c0.67,1.67,4.37,6.51,5.96,8.56
				C759.12,413.4,759.4,413.75,759.4,413.75z"/>
		</g>
		<path class="st2" d="M237.71,468.82c3.37-4.59,8.23-7.86,13.21-10.55c5.02-2.69,10.31-4.83,15.67-6.69
			c10.76-3.68,21.84-6.27,32.95-8.48c11.1-2.32,22.42-3.8,33.74-4.68c11.34-0.86,22.72-0.95,34.08-0.51
			c11.35,0.53,22.68,1.64,33.91,3.43c11.21,1.85,22.35,4.22,33.24,7.46c10.9,3.21,21.62,7.04,31.89,11.94
			c5.1,2.49,10.08,5.19,15.04,7.92c4.96,2.71,9.9,5.45,14.93,8.05c-10.39-4.48-20.32-10-30.67-14.43
			c-5.15-2.26-10.42-4.23-15.76-6.03c-5.33-1.8-10.71-3.44-16.15-4.9c-10.87-2.91-21.89-5.2-33.02-6.85
			c-11.12-1.69-22.33-2.75-33.56-3.23c-22.47-0.99-45.03,0.36-67.19,4.39c-11.1,1.97-22.16,4.2-32.93,7.46
			c-5.39,1.61-10.7,3.49-15.77,5.92c-2.53,1.22-4.99,2.58-7.31,4.17C241.69,464.82,239.51,466.64,237.71,468.82z"/>
		<path class="st2" d="M282.43,446.68c6.31,0.83,12.15,3.49,17.28,6.93c5.15,3.46,9.68,7.68,13.86,12.17
			c-4.42-4.25-9.18-8.18-14.42-11.28c-5.22-3.09-11-5.3-16.94-5.74c-0.58-0.04-1.01-0.54-0.97-1.12c0.04-0.58,0.54-1.01,1.12-0.97
			C282.38,446.67,282.41,446.67,282.43,446.68z"/>
		<path class="st2" d="M313.09,441.17c2.11,0.57,3.98,1.57,5.73,2.62c1.76,1.07,3.4,2.17,5.13,3.2c3.45,2.11,6.84,4.33,10.1,6.72
			c6.54,4.75,12.58,10.23,17.62,16.52c-5.31-6.07-11.54-11.24-18.22-15.67c-3.34-2.22-6.78-4.28-10.3-6.22
			c-3.57-1.89-6.92-4.32-10.56-5.15l-0.01,0c-0.56-0.13-0.92-0.69-0.79-1.25c0.13-0.56,0.69-0.92,1.25-0.79
			C313.06,441.16,313.08,441.16,313.09,441.17z"/>
		<path class="st2" d="M348.84,438.16c10.37,4.04,19.81,10.17,27.97,17.57c8.19,7.4,15.17,16,21.32,25.08
			c-6.43-8.88-13.67-17.22-22.01-24.29c-8.32-7.07-17.78-12.78-28.01-16.4c-0.54-0.19-0.83-0.79-0.64-1.34
			c0.19-0.54,0.79-0.83,1.34-0.64C348.82,438.15,348.83,438.16,348.84,438.16z"/>
		<path class="st2" d="M390.35,439.89c5.4,1.94,10.44,4.62,15.25,7.58c2.41,1.48,4.77,3.02,7.11,4.59c2.33,1.57,4.68,3.15,6.92,4.89
			c4.47,3.47,8.57,7.37,12.39,11.51c3.81,4.15,7.37,8.51,10.86,12.91c-3.63-4.29-7.31-8.54-11.24-12.55
			c-3.93-4-8.12-7.75-12.64-11.03c-2.26-1.64-4.62-3.12-7-4.63c-2.38-1.49-4.77-2.95-7.19-4.34c-4.85-2.78-9.87-5.24-15.12-6.94
			l-0.01,0c-0.55-0.18-0.85-0.77-0.67-1.32c0.18-0.55,0.77-0.85,1.32-0.67C390.33,439.88,390.34,439.89,390.35,439.89z"/>
		<path class="st2" d="M432.28,448.7c6.83,4.13,13.81,8.13,20.2,13.03c3.19,2.45,6.18,5.16,8.92,8.08c2.74,2.93,5.24,6.07,7.55,9.32
			c-2.45-3.15-5.08-6.17-7.93-8.96c-2.85-2.79-5.92-5.33-9.17-7.61c-6.51-4.56-13.61-8.22-20.62-12.06l-0.01,0
			c-0.51-0.28-0.69-0.91-0.42-1.42c0.28-0.51,0.91-0.69,1.42-0.42C432.26,448.68,432.27,448.69,432.28,448.7z"/>
		<path class="st2" d="M473.3,464.04c3.09,2.42,5.75,5.24,8.21,8.18c2.46,2.94,4.72,6.02,6.88,9.16c-2.44-2.93-4.96-5.78-7.65-8.46
			c-2.69-2.66-5.54-5.17-8.65-7.17c-0.49-0.31-0.63-0.96-0.32-1.45c0.31-0.49,0.96-0.63,1.45-0.32
			C473.24,463.99,473.28,464.02,473.3,464.04z"/>
		<path class="st2" d="M281.42,447.02c3.44-2.09,6.62-4.69,9.56-7.53c2.94-2.85,5.65-5.96,8.18-9.22c-2.24,3.46-4.69,6.81-7.42,9.94
			c-2.73,3.13-5.74,6.06-9.16,8.55c-0.47,0.34-1.12,0.24-1.46-0.23c-0.34-0.47-0.24-1.12,0.23-1.46
			C281.37,447.05,281.4,447.04,281.42,447.02z"/>
		<path class="st2" d="M312.43,441.35c2.8-1.05,5.41-2.7,7.8-4.62c2.4-1.93,4.59-4.13,6.65-6.46c4.13-4.67,7.7-9.84,11.37-14.92
			c-3.38,5.27-6.66,10.63-10.57,15.59c-1.96,2.47-4.07,4.85-6.44,6.99c-2.37,2.13-5.03,4.03-8.03,5.36
			c-0.53,0.23-1.15-0.01-1.38-0.53c-0.23-0.53,0.01-1.15,0.53-1.38C312.39,441.36,312.41,441.35,312.43,441.35z"/>
		<path class="st2" d="M347.31,438.16c3.21-0.63,6.2-2.58,8.84-4.81c2.66-2.26,5.06-4.87,7.36-7.56c2.3-2.7,4.48-5.51,6.69-8.3
			c2.22-2.78,4.42-5.59,6.92-8.13c-2.37,2.65-4.43,5.56-6.51,8.44c-2.07,2.89-4.11,5.81-6.3,8.64c-2.19,2.82-4.49,5.59-7.13,8.07
			c-2.64,2.45-5.68,4.74-9.46,5.69c-0.56,0.14-1.13-0.2-1.27-0.76c-0.14-0.56,0.2-1.13,0.76-1.27c0.02,0,0.03-0.01,0.05-0.01
			L347.31,438.16z"/>
		<path class="st2" d="M386.21,440c0.91-0.07,1.82,0.03,2.76-0.21l1.41-0.25l1.4-0.39c0.94-0.24,1.86-0.57,2.78-0.92
			c0.93-0.32,1.83-0.71,2.74-1.1c3.62-1.57,7.13-3.45,10.58-5.44c6.88-4.02,13.5-8.49,19.95-13.21c-6.23,4.99-12.67,9.76-19.4,14.1
			c-3.38,2.15-6.84,4.2-10.47,5.97c-0.91,0.44-1.82,0.89-2.77,1.26c-0.93,0.4-1.87,0.79-2.86,1.09l-1.47,0.48l-1.53,0.34
			c-1,0.29-2.12,0.26-3.19,0.37c-0.57,0.06-1.08-0.36-1.14-0.93c-0.06-0.57,0.36-1.08,0.93-1.14c0.01,0,0.01,0,0.02,0L386.21,440z"
			/>
		<path class="st2" d="M432.44,448.31c4.67,0.28,9.39-0.85,13.87-2.59c4.5-1.72,8.84-3.96,13.33-5.8
			c-4.35,2.16-8.49,4.69-12.92,6.76c-4.41,2.08-9.24,3.65-14.32,3.71l-0.01,0c-0.58,0.01-1.05-0.46-1.06-1.03
			c-0.01-0.58,0.46-1.05,1.03-1.06C432.39,448.31,432.42,448.31,432.44,448.31z"/>
		<path class="st2" d="M472.66,463.63c4.75,0.54,9.63,0.71,14.43,1.36c-4.84,0.05-9.63,0.57-14.52,0.73
			c-0.58,0.02-1.06-0.44-1.08-1.02c-0.02-0.58,0.44-1.06,1.02-1.08C472.55,463.63,472.61,463.63,472.66,463.63z"/>
		<path class="st3" d="M286.72,457.82c0.08,0.07,0.19,0.17,0.33,0.3c-4.33-0.62-7.04-3.47-12.05-2.34c-3.11,0.71-6.33,2.33-9.2,3.67
			c-0.26,0.11-31.45,10.56-31.55,10.34c-0.72-1.52,17.47-13.01,28.38-19.7c2.07-0.16,3.93-0.25,5.46-0.25
			C275.96,449.84,281.04,452.87,286.72,457.82z"/>
		<path class="st3" d="M316.14,468.89c-0.47-0.48-1-0.9-1.66-1.18c-3.55-1.51-7.92-1.68-11.16-3.88c-2.24-1.53-2.92-4.32-5.51-5.5
			c-0.46-0.2-0.9-0.36-1.32-0.47c-1.35-4.73-4.72-10.01-3.9-11.73c0.97-2.06,8.42,4.44,9.36,5.22
			C304.77,453.68,310.8,462.51,316.14,468.89z"/>
		<path class="st3" d="M339.97,470.65c-1.85-0.73-3.78-1.25-6.17-0.8c-3.05,0.57-5.66,1.94-8.48,2.51
			c-1.72-5.86-9.76-17.2-8.23-18.02C320.97,452.23,334.57,465.16,339.97,470.65z"/>
		<path class="st3" d="M365.1,472.93c0.74,1.43,1.79,3.82,3.13,5.77c-0.29-0.11-0.58-0.24-0.87-0.38c-3-1.52-4.64-5.74-7.72-6.7
			c-4.1-1.27-7.77,1.24-11.72,1.34c-0.15-0.76-0.32-1.38-0.41-1.61c-1.39-3.72-12.27-17.9-9.45-19.4
			C343.6,449.02,362.66,468.26,365.1,472.93z"/>
		<path class="st3" d="M394.2,484.33c-1.88,0.3-3.75,0.35-5.62-0.04c-3.75-0.79-6.44-4.08-10.1-4.7c-1.77-0.29-3.48-0.19-5.18-0.18
			c-0.2-4.1-3.31-16.03-1.39-16.15c2.8-0.19,5.48,4.59,6.98,6.27C381.5,472.46,388,479.96,394.2,484.33z"/>
		<path class="st3" d="M409.4,462.09c9.03,6.13,17.28,17.36,28.12,20.75c-8.66-0.64-16.95-4.42-25.92-3.44
			c-2.24,0.25-4.5,0.91-6.76,1.69c-2.18-8.8-11.16-23.6-7.92-24.54C401.17,455.33,406.32,460.01,409.4,462.09z"/>
		<path class="st3" d="M490.19,480.69c-3.53,1.43-7.34,2.37-9.41,2.38c-3.35,0-6.17-2.2-9.34-2.86c-6.48-1.33-13.48-1.13-19.93,0.32
			c-0.71,0.16-1.42,0.35-2.12,0.55c2.59-6.4-7.33-21.61-0.08-20.19C460.29,463.05,477.64,484.88,490.19,480.69z"/>
		<path class="st3" d="M497.68,475.8c-0.97,1.51-3.27,2.99-5.92,4.2c1.85-0.98,3.57-2.63,5.14-5.08l0.06-0.05
			C497.4,475.45,497.68,475.8,497.68,475.8z"/>
		<path class="st4" d="M480.93,454.9c0.98-2.12-3.86-4.57-5.31-5.25c-5.75-2.69-12.7-3.88-19.04-2.76
			c-1.17,0.21-5.27,0.62-5.46,2.34c-0.28,2.49,2.91,4.13,4.71,5.13c4.6,2.57,12.74,5.94,18.13,6.07c2.26,0.05,7.59,0.01,7.64-3.22
			L480.93,454.9z"/>
		<path class="st4" d="M452.81,436.05c-10.27,3.16-15.38-8.58-23.64-8.41c-5.24,0.11-10.69,3.97-15.1,6.55
			c-1.24,0.73-4.56,2.04-4.01,4.01c0.99,3.56,7.62,3.76,10.46,3.84c8.89,0.23,16.78,2.71,25.53-0.26c2.49-0.85,7.2-2.14,7.25-5.42
			L452.81,436.05z"/>
		<path class="st4" d="M415.39,420c-3.82,0.61-9.92-0.57-13.06-2.7c-3.3-2.24-7.21-6.62-11.59-6.44
			c-7.51,0.32-15.87,9.47-20.43,14.6c-1.58,1.78-5.23,5.92-2.89,8.37c3.07,3.21,9.15,1.94,13.04,1.61
			c9.42-0.8,18.66-3.46,26.86-8.15c2.56-1.46,6.66-3.22,7.91-6.2L415.39,420z"/>
		<path class="st4" d="M365.76,410.35c1.16-0.62-3.19-1.25-3.54-1.31c-2.77-0.43-5.22-0.57-7.82,0.61
			c-6.67,3.02-14.16,10.27-17.78,16.65c-1.13,1.98-3.99,5.32-2.26,7.64c3.21,4.31,9.63,1.41,13.37-0.22
			c9.71-4.24,19.2-11.9,19.58-22.76L365.76,410.35z"/>
		<path class="st4" d="M327.76,419.92c-2.52,0.55-5.27,0.17-7.74,1c-3.18,1.07-12.01,7.9-15.39,10.15c-1.22,0.81-5.91,6-4.09,7.59
			c2.27,1.99,8.27-0.6,10.41-1.54c6-2.63,18.86-8.44,17.49-17.14L327.76,419.92z"/>
	</g>
	<g class="st8">
		<path class="st9" d="M436.5,171.82c-3.82,1.76-7.54,3.74-11.14,5.89c-3.58,2.18-7.05,4.57-10.09,7.4
			c-1.52,1.41-2.93,2.94-4.05,4.63c-1.1,1.69-1.92,3.6-2.48,5.56c-1.14,3.94-1.3,8.12-1.29,12.29c0.01,2.09,0.06,4.2,0.01,6.34
			c-0.05,2.13-0.22,4.31-0.82,6.48c-0.64,2.18-1.71,4.1-2.87,5.92c-1.17,1.81-2.45,3.51-3.72,5.19c-1.26,1.68-2.53,3.34-3.55,5.07
			c-0.5,0.86-0.95,1.75-1.2,2.63c-0.28,0.89-0.27,1.67-0.16,2.73c0.36,4.01,1.63,8.34,0.57,12.9c-0.26,1.12-0.73,2.22-1.34,3.22
			c-0.61,1.01-1.44,1.87-2.23,2.61c-1.62,1.52-3.5,2.73-5.33,3.78c-1.81,1.06-3.6,2.05-4.28,3.58c-0.18,0.38-0.3,0.79-0.38,1.23
			c-0.08,0.47-0.13,0.97-0.17,1.47c-0.07,1.01-0.09,2.05-0.11,3.1c-0.04,2.1-0.09,4.26-0.44,6.43c-0.36,2.15-1.03,4.42-2.57,6.25
			c-0.37,0.45-0.82,0.88-1.25,1.23c-0.43,0.34-0.85,0.68-1.3,0.99c-0.88,0.64-1.78,1.22-2.64,1.79c-1.75,1.12-3.3,2.29-4.1,4.03
			c-0.87,1.69-1.07,3.76-1.16,5.78c-0.04,2.05,0.08,4.16,0.11,6.28c0.03,2.12-0.01,4.27-0.34,6.41c-0.33,2.12-0.97,4.32-2.38,6.09
			c-0.68,0.89-1.62,1.6-2.56,2.12c-0.92,0.53-1.84,1.03-2.77,1.54c-1.85,1-3.7,1.99-5.49,3.08c-1.79,1.08-3.53,2.26-5.06,3.67
			c-1.53,1.4-2.86,3.1-3.49,5.12c0.52-2.06,1.77-3.86,3.26-5.37c1.5-1.51,3.22-2.76,4.98-3.93c1.76-1.17,3.59-2.23,5.39-3.31
			c0.9-0.54,1.8-1.08,2.69-1.63c0.87-0.54,1.61-1.16,2.19-1.97c1.17-1.58,1.74-3.58,1.99-5.6c0.26-2.03,0.25-4.11,0.16-6.19
			c-0.08-2.09-0.26-4.18-0.27-6.34c0.05-2.15,0.17-4.4,1.18-6.52c0.48-1.05,1.18-2.03,2.01-2.82c0.83-0.79,1.73-1.43,2.61-2.03
			c0.88-0.6,1.75-1.16,2.57-1.77c0.42-0.3,0.8-0.62,1.2-0.94c0.38-0.31,0.69-0.62,0.99-0.98c1.19-1.42,1.78-3.34,2.09-5.31
			c0.3-1.99,0.34-4.05,0.36-6.15c0.01-1.05,0.02-2.12,0.09-3.21c0.04-0.55,0.09-1.1,0.18-1.67c0.1-0.59,0.27-1.2,0.53-1.78
			c0.52-1.17,1.43-2.1,2.34-2.78c0.92-0.69,1.86-1.23,2.76-1.77c1.8-1.06,3.48-2.16,4.92-3.54c0.74-0.7,1.36-1.38,1.84-2.18
			c0.48-0.79,0.84-1.66,1.06-2.59c0.47-1.84,0.43-3.86,0.24-5.89c-0.2-2.04-0.58-4.1-0.77-6.28c-0.04-0.57-0.09-1.05-0.06-1.72
			c0.04-0.63,0.15-1.24,0.33-1.8c0.34-1.14,0.87-2.14,1.43-3.09c1.13-1.89,2.45-3.57,3.73-5.24c1.28-1.67,2.55-3.32,3.67-5.04
			c1.11-1.71,2.12-3.51,2.67-5.38c0.55-1.89,0.71-3.94,0.81-6.01c0.1-2.07,0.1-4.17,0.14-6.29c0.09-4.22,0.35-8.55,1.66-12.69
			c0.65-2.06,1.55-4.05,2.79-5.86c1.25-1.78,2.75-3.34,4.36-4.74c3.24-2.79,6.83-5.05,10.52-7.1
			C428.76,175.16,432.58,173.36,436.5,171.82z"/>
	</g>
	<g class="st8">
		<path class="st9" d="M217.61,220.25c-2.63,2.31-4.8,5.24-5.86,8.53c-0.51,1.64-0.77,3.37-0.58,5.06c0.2,1.7,0.69,3.29,1.44,4.89
			c1.37,3.22,3.03,6.3,4.58,9.49c1.55,3.17,2.88,6.66,3.08,10.35c0.27,3.67-0.55,7.34-1.69,10.7c-0.55,1.68-1.14,3.32-1.31,4.88
			c-0.18,1.56,0.26,2.95,1.22,4.21c2.14,2.84,4.11,5.83,5.83,8.98c1.69,3.16,3.16,6.51,3.86,10.15c0.31,1.82,0.5,3.71,0.22,5.61
			c-0.25,1.8-0.57,3.51-0.87,5.26c-0.62,3.47-1.34,6.94-1.83,10.35c-0.12,0.85-0.21,1.7-0.23,2.51c-0.04,0.83,0.09,1.44,0.34,2.29
			c0.48,1.63,1.08,3.3,1.63,4.98c1.12,3.35,2.19,6.76,2.75,10.34c0.26,1.79,0.46,3.63,0.05,5.55c-0.42,1.8-1.03,3.49-1.68,5.14
			c-1.32,3.3-2.78,6.5-4.16,9.73c-1.39,3.22-2.73,6.47-3.78,9.81c-0.27,0.83-0.52,1.67-0.71,2.53l-0.32,1.27l-0.22,1.29
			c-0.34,1.72-0.36,3.48-0.16,5.23c-0.71-3.48-0.04-7.09,0.83-10.49c0.9-3.43,2.09-6.76,3.33-10.06c1.26-3.3,2.62-6.55,3.8-9.84
			c0.58-1.64,1.14-3.3,1.47-4.93c0.3-1.55,0.1-3.28-0.19-4.95c-0.63-3.37-1.73-6.68-2.88-9.99c-0.58-1.66-1.19-3.3-1.73-5.03
			c-0.13-0.44-0.26-0.89-0.36-1.4c-0.09-0.51-0.11-1.03-0.1-1.5c0.02-0.95,0.1-1.86,0.21-2.75c0.46-3.56,1.19-7,1.78-10.46
			c0.3-1.72,0.61-3.47,0.83-5.16c0.24-1.6,0.06-3.26-0.22-4.9c-0.61-3.29-1.98-6.48-3.59-9.52c-1.63-3.04-3.55-5.94-5.6-8.76
			c-1.18-1.53-1.85-3.75-1.54-5.7c0.25-1.95,0.92-3.64,1.48-5.29c1.15-3.27,1.96-6.6,1.8-9.99c-0.09-3.38-1.25-6.64-2.66-9.82
			c-1.42-3.19-3-6.38-4.26-9.69c-0.68-1.62-1.16-3.45-1.27-5.25c-0.11-1.82,0.26-3.64,0.86-5.32
			C212.44,225.2,214.82,222.39,217.61,220.25z"/>
	</g>
</g>
</svg>
